<?xml version="1.0" encoding="utf-8"?>
<!-- Generator: Adobe Illustrator 19.0.0, SVG Export Plug-In . SVG Version: 6.00 Build 0)  -->
<svg version="1.1" baseProfile="tiny"
	 id="svg2" xmlns:rdf="http://www.w3.org/1999/02/22-rdf-syntax-ns#" xmlns:dc="http://purl.org/dc/elements/1.1/" xmlns:inkscape="http://www.inkscape.org/namespaces/inkscape" xmlns:sodipodi="http://sodipodi.sourceforge.net/DTD/sodipodi-0.dtd" xmlns:cc="http://creativecommons.org/ns#" xmlns:svg="http://www.w3.org/2000/svg" sodipodi:docname="controller.svg" inkscape:version="0.91 r13725"
	 xmlns="http://www.w3.org/2000/svg" xmlns:xlink="http://www.w3.org/1999/xlink" x="0px" y="0px" viewBox="-110.2 211.2 354 371.5"
	 xml:space="preserve">
<sodipodi:namedview  fit-margin-left="0" fit-margin-top="0" inkscape:cy="239.53903" inkscape:cx="177.72468" inkscape:zoom="1.796588" showgrid="false" guidetolerance="10" gridtolerance="10" objecttolerance="10" borderopacity="1" bordercolor="#666666" id="namedview4" pagecolor="#ffffff" fit-margin-bottom="0" fit-margin-right="0" inkscape:current-layer="g10" inkscape:window-maximized="0" inkscape:window-y="24" inkscape:window-x="49" inkscape:window-height="998" inkscape:pageshadow="2" inkscape:pageopacity="0" inkscape:window-width="1631">
	</sodipodi:namedview>
<g>
	<g id="g20" transform="matrix(0,-1,1,0,89.080585,205.40957)">
		<path id="path22" inkscape:connector-curvature="0" fill="#DEDFDE" d="M-257.2-93.3L-257.2-93.3c-0.1,0-0.4-0.2-0.9-0.5h0
			c-0.5-0.3-1.3-0.7-2.3-1.2c0,0,0,0,0,0c0,0,0,0,0,0c-0.7-0.3-1.4-0.7-2.2-1.2c-0.3-0.1-0.6-0.3-0.9-0.5c-1.1-0.6-2.3-1.2-3.7-1.9
			c-0.3-0.1-0.5-0.3-0.8-0.4c-0.1-0.1-0.3-0.1-0.4-0.2c-0.5-0.3-1.1-0.5-1.6-0.8c-0.4-0.2-0.8-0.4-1.3-0.6c-0.6-0.3-1.3-0.6-2-1
			c-0.2-0.1-0.5-0.2-0.7-0.3c-1.1-0.6-2.3-1.1-3.6-1.7c0,0,0,0,0,0c-0.5-0.2-1-0.5-1.5-0.7c0,0,0,0-0.1,0c-0.7-0.4-1.5-0.7-2.3-1.1
			c-0.6-0.3-1.1-0.5-1.7-0.8c-2.1-1-4.4-2.1-6.7-3.1c-0.4-0.2-0.7-0.3-1.1-0.5c-0.8-0.4-1.7-0.8-2.6-1.2c-0.4-0.2-0.7-0.3-1.1-0.5
			c-0.6-0.2-1.1-0.5-1.7-0.7c-0.7-0.3-1.4-0.6-2.2-0.9c-0.6-0.2-1.1-0.5-1.7-0.7c-5.3-2.3-10.8-4.6-16.6-6.8
			c-0.6-0.2-1.3-0.5-1.9-0.7c-0.5-0.2-1.1-0.4-1.6-0.6c-0.8-0.3-1.7-0.6-2.5-0.9c-1-0.4-2-0.7-3-1.1c-0.9-0.3-1.8-0.6-2.7-1
			c-0.2-0.1-0.4-0.2-0.6-0.2c-2.1-0.7-4.2-1.5-6.3-2.2h0c-0.4-0.1-0.7-0.3-1.1-0.4c-13.8-4.6-27.8-8.2-40.8-10
			c-0.1-0.5-0.1-1.1,0-1.7c1-4.2,3.6-7.3,6.8-10c11.2-9.1,24.3-14.6,37.6-19.7c17.8-6.8,36.2-11.9,54.7-16.3
			c10.2-2.4,20.5-4.5,30.9-6.4c7.3-1.3,14.6-2.5,21.9-3.4c6.1-0.7,12.3-1.6,18.4-2.1c8.3-0.7,16.5-1.3,24.8-1.6
			c4.5-0.2,9.1-0.4,13.6-0.2c7.4,0.3,14.8,0.7,22.2,1.4c4.8,0.4,9.7,0.8,14.5,1.3c5.8,0.6,11.5,1.5,17.2,2.5
			c7.3,1.3,14.5,3.2,21.4,5.9c5.1,2,9.9,4.8,14.4,7.9c1.1,0.8,1.6,2,2,3.2c2.4,6.8,4,13.9,5.7,20.9c1.6,6.6,3.1,13.2,4.6,19.8
			c0.1,0.6,0.3,1.5,0.3,2.1c0,0,0,0-0.1,0c-1.2-0.8-2.5-1.6-3.8-2.5c-5.1-3.2-10.5-6.1-16.1-8.6c-17-7.7-35.9-11.9-55.7-11.9
			c-14.9,0-29.2,2.4-42.6,6.8c-0.4,0.1-0.7,0.2-1.1,0.4c-19.8,6.7-37.6,17.8-52.1,32.2C-245-110.5-251.6-102.2-257.2-93.3"/>
	</g>
	<g id="g24" transform="matrix(0,-1,1,0,146.47848,7.16657)">
		<path id="path26" inkscape:connector-curvature="0" fill="#DEDFDE" d="M-383.7,97.1c-6.6-0.1-13.1-0.7-19.7-1.4
			c-5.2-0.5-10.4-1-15.6-1.7c-5.6-0.7-11.1-1.5-16.6-2.4c-8.9-1.5-17.8-3-26.7-4.9c-11.2-2.4-22.3-5-33.3-8
			c-7.6-2.1-15.1-4.3-22.6-6.8c-8.6-2.9-17-5.9-25.3-9.7c-6.9-3.2-13.8-6.4-20.1-10.8c-4.3-3-8.4-6.3-10.9-11.1
			c-0.5-1-1-2.1-0.9-3.3c-0.1-0.2-0.1-0.3-0.2-0.5c0.7-0.1,1.5-0.2,2.2-0.3c0.8-0.1,1.6-0.2,2.4-0.4c1.1-0.2,2.2-0.3,3.2-0.5
			c0.1,0,0.2,0,0.3,0c0.7-0.1,1.5-0.3,2.2-0.4c0.7-0.1,1.4-0.3,2.1-0.4c46.2-9.2,98.7-36,106.7-40.2c0,0,0,0,0,0
			c0.4-0.2,0.8-0.4,1-0.5c12.9,20.5,31.1,37.3,52.8,48.5c8.2,4.3,17,7.7,26.1,10.2c0,0,0.1,0,0.1,0c11.5,3.2,23.7,4.9,36.2,4.9
			c2.6,0,5.1-0.1,7.6-0.2h0c0.1,0,0.3,0,0.4,0h0c4.7-0.3,9.4-0.8,14-1.6h0c0,0,0,0,0,0h0c19.6-3.2,37.8-10.6,53.6-21.2
			c-0.2,0.5-0.6,1.1-1,1.5c-0.5,4.6-1.8,9.1-2.8,13.7c-1.7,7.5-3.9,15-5.6,22.5c-1.2,5.1-4.7,7.5-8.8,9.9
			c-8.7,5.1-18.2,7.8-27.9,9.8c-7.7,1.6-15.6,2.6-23.4,3.4c-5.6,0.6-11.2,0.7-16.8,1.3C-361.7,97.6-372.7,97.3-383.7,97.1"/>
	</g>
	<g id="g28" transform="matrix(0,-1,1,0,182.47228,95.85097)">
		<path id="path30" inkscape:connector-curvature="0" fill="#A7A8A8" d="M-250.1-49.7c-14.3-0.3-27.1-5-38.2-14
			c-11.3-9-18.9-20.6-22.2-34.7c-4.6-19.4-1.1-37.5,10.8-53.6c10-13.5,23.5-21.8,40.2-24.9c4.2-0.8,8.5-1.1,12.8-1.1
			c36.8,0,73.5,0,110.3,0h0.1c0.7,0,2,0,3,0c0,0.1,0.1,0.2,0.1,0.2c0.4,0.8,0.9,1.6,1.3,2.4c-12.1,0-28.2,0-40.2,0
			c-25,0-50,0-75.1,0c-10.6,0-20.7,2.2-30.1,7.3c-10.6,5.7-18.8,13.9-24.7,24.4c-6.1,10.9-8.5,22.6-7.5,35
			c1.1,13.5,6.2,25.4,15.2,35.5c9.4,10.6,21.1,17.1,34.9,19.7c3.1,0.6,6.2,1,9.3,0.9c5.8-0.1,11.7,0.2,17.5-0.1
			c8.7-0.4,17.4,0,26.1-0.4c8.5-0.4,17.1,0,25.6-0.4c8.8-0.4,17.7,0,26.5-0.4c5.9-0.3,16.2-0.1,22.3-0.3c-0.5,0.9-0.9,1.8-1.4,2.7
			h-3.3c-4.7,0-9.4-0.2-14.1,0.1c-9,0.5-18,0-26.9,0.4c-8.4,0.4-16.8,0-25.2,0.4c-8.8,0.4-17.7,0-26.5,0.4
			C-236.2-49.7-243.1-49.6-250.1-49.7"/>
	</g>
	<g id="g32" transform="matrix(0,-1,1,0,-6.932615,55.58137)">
		<path id="path34" inkscape:connector-curvature="0" fill="#A7A8A8" d="M-527.1,190C-527.1,190-527.1,190-527.1,190
			c-0.3-1,0-1.7,1.2-2.4c6.5-3.8,13.6-6.2,20.8-8.5c8.9-2.9,17.9-5.4,27-7.1c3.2-0.6,4.3-2.2,5.1-5c2.7-10.7,5.1-21.5,6.8-32.4
			c1.2-7.4,2.2-14.9,2.8-22.4c0.6-6.5,1.2-13,1.6-19.5c0.4-6.4,0.6-12.8,0.6-19.2c0-7.1-0.3-14.2-0.8-21.3
			c-0.6-8.1-1.3-16.2-2.3-24.2c-1.7-13.4-3.8-26.6-7.1-39.7c-0.8-3.3-1.8-6.5-2.4-9.9c0-0.2-0.1-0.4-0.2-0.6l-8.6-3.2
			c-10.1-2.3-20.2-4.9-30-8.3c-4.2-1.5-8.4-3.2-12.2-5.5c-1.2-0.7-2-1.6-2.2-2.7c13,1.7,27,5.4,40.8,10c0.4,0.1,0.7,0.2,1.1,0.4h0
			c2.1,0.7,4.2,1.4,6.3,2.2c0.2,0.1,0.4,0.2,0.6,0.2c0.9,0.3,1.8,0.6,2.7,1c1,0.4,2,0.7,3,1.1c0.8,0.3,1.7,0.6,2.5,0.9
			c0.5,0.2,1.1,0.4,1.6,0.6c0.6,0.2,1.3,0.5,1.9,0.7c5.7,2.2,11.3,4.5,16.6,6.8c0.6,0.2,1.1,0.5,1.7,0.7c0.7,0.3,1.4,0.6,2.2,0.9
			c0.6,0.2,1.1,0.5,1.7,0.7c0.4,0.2,0.8,0.3,1.1,0.5c0.9,0.4,1.7,0.8,2.6,1.2c0.4,0.2,0.7,0.3,1.1,0.5c1.2,0.5,2.3,1.1,3.4,1.6
			c0.3,0.1,0.6,0.3,0.8,0.4c0.6,0.3,1.1,0.5,1.6,0.8c0.3,0.1,0.5,0.3,0.8,0.4c0.6,0.3,1.2,0.5,1.7,0.8c0.8,0.4,1.5,0.7,2.3,1.1
			c0,0,0,0,0.1,0c0.5,0.2,1,0.5,1.5,0.7c0,0,0,0,0,0c1.2,0.6,2.4,1.2,3.6,1.7c0.2,0.1,0.5,0.2,0.7,0.3c0.7,0.3,1.3,0.7,2,1
			c0.4,0.2,0.9,0.4,1.3,0.6c0.5,0.3,1.1,0.5,1.6,0.8c0.1,0.1,0.3,0.1,0.4,0.2c0.3,0.1,0.5,0.3,0.8,0.4c1.4,0.7,2.6,1.3,3.7,1.9
			c0.3,0.2,0.6,0.3,0.9,0.5c0.8,0.4,1.6,0.8,2.2,1.2c0,0,0,0,0,0c0,0,0,0,0,0c1,0.5,1.7,0.9,2.3,1.2h0c0.5,0.3,0.8,0.4,0.9,0.5l0,0
			c-0.5,0.7-0.9,1.4-1.3,2.2c-2-1.1-31.2-16.3-60.3-26.6c0,0,11.9,50.6,11.9,94.9l-0.1-0.2c0,44.4-11.9,97.7-11.9,97.7
			c29.1-10.2,58.3-24.8,60.4-25.9c0.5,0.8,1,1.6,1.5,2.4c-0.3,0.2-0.6,0.3-1,0.5c-10.8,5.6-62,31.3-106.7,40.3
			c-0.7,0.1-1.4,0.3-2.1,0.4c-0.7,0.1-1.5,0.3-2.2,0.4c-0.1,0-0.2,0-0.3,0c-1.1,0.2-2.2,0.4-3.2,0.5c-0.8,0.1-1.6,0.2-2.4,0.4
			C-525.6,189.8-526.3,189.9-527.1,190"/>
	</g>
	<g id="g36" transform="matrix(0,-1,1,0,49.223785,149.17937)">
		<path id="path38" inkscape:connector-curvature="0" fill="#E4E5E4" d="M-363.3,16.8l0.1,0.2c-0.1-44.3-11.9-94.9-11.9-94.9
			c29.2,10.3,58.3,25.5,60.3,26.6c-0.3,0.5-0.5,0.9-0.8,1.4c-8.3,14.1-14.1,29.9-16.8,46.7l1.4,0.6l0.5,0.2c-0.1,0.5-0.1,1-0.2,1.4
			c0,0.3-0.1,0.6-0.1,0.9c0,0.1,0,0.1,0,0.2c-0.1,0.5-0.1,1-0.2,1.5c-0.1,0.7-0.2,1.3-0.2,2c-0.1,0.6-0.1,1.2-0.2,1.8
			c0,0.1,0,0.2,0,0.3c-0.1,0.6-0.1,1.2-0.2,1.8c-0.6-0.4-1.3-0.7-1.9-1.1c-3.7-2-7.5-3.9-11.4-5.7c-2.3-1.1-3-0.7-3.2,1.8
			c-0.3,5.4-0.9,10.8-0.8,16.3c-0.1,5.5,0.5,11,0.8,16.5c0.1,2.4,0.9,2.8,3.1,1.9c4-1.6,7.8-3.5,11.6-5.5c0.6-0.4,1.3-0.7,1.9-1.1
			c0.1,1.1,0.2,2.2,0.3,3.3c0,0.4,0.1,0.8,0.1,1.2c0.1,1,0.3,2,0.4,3c0,0.3,0.1,0.6,0.1,1c0,0.1,0,0.2,0.1,0.4l-0.6,0.3l-1.3,0.6
			c2.7,16.8,8.4,32.5,16.5,46.6c0.4,0.6,0.7,1.3,1.1,1.9c-2.2,1.1-31.4,15.6-60.4,25.9C-375.2,114.5-363.3,61.3-363.3,16.8"/>
	</g>
	<g id="g40" transform="matrix(0,-1,1,0,181.37248,38.86597)">
		<path id="path42" inkscape:connector-curvature="0" fill="#A7A8A8" d="M-308.4,22.6c-12.5,0-24.7-1.7-36.2-4.9c0,0-0.1,0-0.1,0
			c-9.1-2.5-17.9-6-26.1-10.2c-21.6-11.2-39.8-28-52.8-48.5c-9.6-15.2-16.2-32.4-19.1-50.9l1.3-0.6l0.6-0.2c0.3,1.8,0.6,3.6,0.9,5.4
			c0.1,0.5,0.2,1.1,0.3,1.6c0.1,0.7,0.3,1.3,0.4,2c0.1,0.3,0.1,0.6,0.2,0.9c0,0.1,0.1,0.2,0.1,0.3c0.1,0.5,0.3,1.1,0.4,1.6
			c0.1,0.5,0.2,0.9,0.4,1.4c0.1,0.3,0.1,0.5,0.2,0.8c0.1,0.2,0.1,0.5,0.2,0.7c0.2,0.6,0.3,1.2,0.5,1.8c0.1,0.3,0.2,0.7,0.3,1
			c0.1,0.5,0.3,0.9,0.4,1.4c0.1,0.4,0.3,0.8,0.4,1.2c0.2,0.6,0.3,1.1,0.5,1.6c0.1,0.4,0.3,0.8,0.4,1.2c0.3,1,0.7,1.9,1,2.9
			c0.2,0.4,0.3,0.9,0.5,1.3c0,0,0,0,0,0.1c0.2,0.5,0.3,0.9,0.5,1.4c0.2,0.5,0.4,1,0.6,1.4c0.1,0.2,0.1,0.3,0.2,0.5
			c0.1,0.3,0.2,0.5,0.3,0.8c0.2,0.4,0.4,0.9,0.6,1.3c0.2,0.4,0.4,0.8,0.6,1.3c0.4,1,0.9,2,1.4,3c0.3,0.6,0.6,1.2,0.9,1.8
			c0.3,0.6,0.6,1.2,0.9,1.8c0.2,0.4,0.4,0.8,0.6,1.2c0.1,0.2,0.2,0.4,0.3,0.6c0,0,0,0,0,0.1c0.1,0.3,0.3,0.5,0.4,0.8
			c1.4,2.7,3,5.3,4.6,7.8c0.1,0.2,0.3,0.4,0.4,0.7c0.3,0.4,0.6,0.9,0.9,1.3c0.4,0.6,0.8,1.2,1.2,1.8c0,0.1,0.1,0.1,0.1,0.2
			c0.1,0.2,0.3,0.4,0.4,0.6c0.1,0.2,0.3,0.4,0.4,0.6c0.2,0.4,0.5,0.7,0.8,1.1c0.5,0.7,1,1.4,1.5,2.1c0.2,0.3,0.4,0.5,0.6,0.8
			c0,0,0.1,0.1,0.1,0.1c0.1,0.2,0.3,0.3,0.4,0.5c0.2,0.2,0.3,0.4,0.5,0.6c0.5,0.7,1.1,1.4,1.6,2c0,0,0,0,0,0c0.5,0.7,1.1,1.3,1.6,2
			c0.3,0.3,0.6,0.7,0.8,1c0.3,0.3,0.6,0.7,0.9,1c0.3,0.3,0.5,0.6,0.8,0.9c0.5,0.5,0.9,1,1.4,1.5c0.3,0.3,0.6,0.7,0.9,1
			c0.2,0.2,0.4,0.4,0.5,0.6c0.8,0.8,1.6,1.7,2.4,2.5l0.1,0.1c9.6,9.6,20.6,17.8,32.7,24.1c8.5,4.5,17.6,8.1,27,10.6
			c11.2,3,23,4.7,35.2,4.7c1.7,0,3.4,0,5.1-0.1c6.7-0.3,13.2-1,19.6-2.2c19-3.5,36.6-11.1,51.8-21.7c15.2-10.6,28.2-24.3,37.9-40.2
			c1.3-2.1,2.6-4.3,3.8-6.6c0.5-0.9,1-1.8,1.4-2.7c9.3-18.2,14.5-38.8,14.5-60.6c0-21.8-5.2-42.4-14.5-60.6
			c-0.4-0.8-0.8-1.6-1.3-2.4c0-0.1-0.1-0.2-0.1-0.2c0,0,0,0,0,0c-0.3-0.5-0.6-1-0.8-1.5c-0.2-0.3-0.4-0.7-0.6-1
			c-0.2-0.3-0.4-0.7-0.6-1c-0.1-0.2-0.2-0.4-0.3-0.5c-0.2-0.4-0.4-0.8-0.7-1.2c-0.1-0.2-0.3-0.4-0.4-0.7c-0.3-0.6-0.7-1.1-1-1.7
			c-0.4-0.6-0.7-1.1-1.1-1.7c-0.1-0.1-0.1-0.2-0.2-0.3c-0.4-0.5-0.7-1.1-1.1-1.6c-0.4-0.6-0.8-1.2-1.2-1.8c-0.4-0.6-0.8-1.2-1.3-1.8
			c-0.1-0.1-0.1-0.2-0.2-0.3c-0.2-0.3-0.5-0.7-0.7-1c-0.3-0.4-0.6-0.8-0.9-1.2c-0.2-0.3-0.5-0.6-0.7-0.9c-0.3-0.3-0.5-0.7-0.8-1
			c-0.5-0.7-1.1-1.4-1.6-2c-0.3-0.3-0.6-0.7-0.8-1c-0.3-0.3-0.6-0.7-0.8-1c-0.9-1-1.7-2-2.6-3c-0.3-0.3-0.6-0.6-0.8-0.9
			c-1.1-1.2-2.3-2.4-3.4-3.6c-0.4-0.4-0.7-0.7-1.1-1.1c-0.5-0.5-1-1-1.6-1.5c0,0,0,0,0,0c-0.5-0.5-1-1-1.6-1.5
			c-0.5-0.5-1.1-1-1.6-1.5c-0.5-0.5-1.1-1-1.6-1.4c-0.4-0.4-0.9-0.8-1.3-1.1c-0.9-0.8-1.8-1.5-2.7-2.2c-0.4-0.4-0.9-0.7-1.4-1.1
			c-8.4-6.6-17.7-12.2-27.5-16.6c-16.8-7.5-35.4-11.7-54.9-11.7c-8.9,0-17.6,0.9-26.1,2.5c-25.7,5.1-48.7,17.5-66.9,34.9
			c-8.4,8.1-15.7,17.2-21.8,27.2c-1,1.6-1.9,3.3-2.9,5c-0.1,0.3-0.3,0.5-0.4,0.8c-0.1,0.3-0.3,0.5-0.4,0.8c-0.3,0.6-0.6,1.1-0.9,1.7
			c-0.3,0.6-0.6,1.1-0.8,1.7c-0.2,0.5-0.5,1-0.7,1.4c-0.1,0.2-0.2,0.5-0.4,0.7c-0.2,0.3-0.3,0.7-0.5,1c-0.1,0.2-0.1,0.3-0.2,0.5
			c-0.2,0.4-0.3,0.7-0.5,1.1c-0.6,1.3-1.1,2.5-1.6,3.8c-0.1,0.3-0.3,0.7-0.4,1c-0.1,0.4-0.3,0.7-0.4,1.1c-0.3,0.8-0.6,1.5-0.9,2.3
			c-0.1,0.2-0.2,0.4-0.2,0.7c-0.5,1.3-0.9,2.7-1.4,4c-0.2,0.6-0.4,1.2-0.6,1.8c-0.1,0.3-0.2,0.7-0.3,1c-0.1,0.3-0.2,0.6-0.3,0.9
			c-0.2,0.6-0.3,1.1-0.5,1.7c0,0.1-0.1,0.3-0.1,0.4c-0.1,0.3-0.2,0.7-0.3,1c-0.5,1.9-1,3.9-1.4,5.8c-0.1,0.4-0.2,0.7-0.2,1.1
			c0,0.1,0,0.1,0,0.2c0,0.2-0.1,0.4-0.1,0.6c-0.1,0.3-0.1,0.6-0.2,0.9c-0.1,0.4-0.2,0.8-0.2,1.2c0,0.1,0,0.2-0.1,0.3
			c0,0.3-0.1,0.5-0.1,0.8c-0.1,0.4-0.2,0.9-0.2,1.3c-0.1,0.5-0.2,1.1-0.3,1.6l-0.5-0.2v0l-1.4-0.6c2.9-18.2,9.5-35.2,18.9-50.2
			c5.6-8.9,12.2-17.2,19.6-24.5c14.5-14.4,32.3-25.5,52.1-32.2c0.4-0.1,0.7-0.2,1.1-0.4c13.4-4.4,27.7-6.8,42.6-6.8
			c19.9,0,38.7,4.3,55.7,11.9c5.6,2.5,11,5.4,16.1,8.6c1.3,0.8,2.5,1.7,3.8,2.5c0,0,0,0,0.1,0c36.4,24.4,60.3,65.9,60.3,113
			c0,47.1-23.9,88.6-60.3,113l0,0c-15.8,10.6-34,18-53.6,21.2h0c0,0,0,0,0,0h0c-4.6,0.8-9.3,1.3-14,1.6h0c-0.1,0-0.3,0-0.4,0h0
			C-303.3,22.5-305.8,22.6-308.4,22.6"/>
	</g>
	<g id="g44" transform="matrix(0,-1,1,0,182.59238,97.95197)">
		<path id="path46" inkscape:connector-curvature="0" fill="#C1C3C2" d="M-247.8-52.5c-3.2,0-6.3-0.3-9.3-0.9
			c-13.8-2.7-25.6-9.1-34.9-19.7c-9-10.2-14.2-22.1-15.2-35.5c-1-12.3,1.4-24.1,7.5-35c5.9-10.5,14.1-18.6,24.7-24.4
			c9.4-5.1,19.5-7.3,30.1-7.3c25,0,50,0,75.1,0c12,0,28.1,0,40.2,0c9.3,18.2,14.5,38.8,14.5,60.6c0,21.8-5.2,42.4-14.5,60.6
			c-6.1,0.2-16.3,0-22.3,0.3c-8.8,0.4-17.7,0-26.5,0.4c-8.5,0.4-17,0-25.6,0.4c-8.7,0.4-17.4-0.1-26.1,0.4
			C-236.1-52.3-242-52.5-247.8-52.5"/>
	</g>
	<g id="g48" transform="matrix(0,-1,1,0,181.37248,40.48327)">
		<path id="path50" inkscape:connector-curvature="0" fill="#DEDFDE" d="M-306.8,20.6c-37.1,0-70.7-15.1-95-39.4
			c-19.6-19.6-33.1-45.3-37.5-74c-0.5-2.9-0.8-5.8-1.1-8.8c4.8-2.7,9.4-5.8,13.9-9.2c2.5-1.9,2.4-2.3,0-4.3
			c-4.4-3.6-9.1-6.7-13.9-9.5c0.3-3.3,0.7-6.6,1.2-9.9c2.8-17.4,8.9-33.7,17.6-48.2c6.1-10,13.4-19.2,21.8-27.2
			c18.1-17.5,41.2-29.9,66.9-34.9c8.4-1.7,17.1-2.5,26.1-2.5c19.6,0,38.2,4.2,54.9,11.7c9.9,4.4,19.1,10,27.5,16.6
			c14.6,11.4,26.8,25.8,35.6,42.3c0,0,0,0,0,0c-1,0-2.3,0-3,0h-0.1c-36.8,0-73.6,0-110.3,0c-4.3,0-8.6,0.3-12.8,1.1
			c-16.6,3.1-30.2,11.3-40.2,24.9c-11.9,16.1-15.3,34.1-10.8,53.6c3.3,14.1,10.9,25.6,22.2,34.7c11.1,9,23.9,13.7,38.2,14
			c6.9,0.1,13.8,0.1,20.8-0.2c8.8-0.4,17.7,0,26.5-0.4c8.4-0.4,16.8,0,25.2-0.4c9-0.4,17.9,0.1,26.9-0.4c4.7-0.3,9.4-0.1,14.1-0.1
			h3.3c-1.2,2.2-2.5,4.4-3.8,6.6C-216-5.1-258.4,20.6-306.8,20.6"/>
	</g>
	<g id="g52" transform="matrix(0,-1,1,0,61.315885,147.70787)">
		<path id="path54" inkscape:connector-curvature="0" fill="#A7A8A8" d="M-349.6,6.6c0.2,4.7,0.5,9.3,0.7,14
			c0.1,2.9,0.7,3.3,3.4,2.2c9.1-3.6,17.3-8.6,25.1-14.3c1.5-1.1,1.4-1.5,0-2.7c-7.7-6.5-16.6-11.1-25.7-15.3c-2-0.9-2.7-0.7-2.8,1.6
			C-349.2-3.1-349.4,1.7-349.6,6.6 M-350.4,6.6c-0.1-5.4,0.5-10.9,0.8-16.3c0.1-2.5,0.9-2.9,3.2-1.8c9.6,4.5,19,9.4,27.3,16.3
			c2.4,2,2.5,2.4,0,4.3c-8.5,6.4-17.5,11.8-27.4,15.8c-2.2,0.9-2.9,0.5-3.1-1.9C-349.9,17.6-350.6,12.1-350.4,6.6"/>
	</g>
	<g id="g56" transform="matrix(0,-1,1,0,61.316085,147.70657)">
		<path id="path58" inkscape:connector-curvature="0" fill="#C1C3C2" d="M-349.6,6.6c0.3-4.8,0.4-9.7,0.8-14.5
			c0.2-2.3,0.8-2.5,2.8-1.6c9.1,4.2,17.9,8.8,25.6,15.3c1.4,1.2,1.4,1.6,0,2.7c-7.8,5.7-16,10.8-25.1,14.3c-2.7,1.1-3.2,0.7-3.4-2.2
			C-349.1,15.9-349.4,11.2-349.6,6.6"/>
	</g>
	<g id="g60" transform="matrix(0,-1,1,0,231.05178,147.38617)">
		<path id="path62" inkscape:connector-curvature="0" fill="#A7A8A8" d="M-137.8-162.7c0-10.5-0.2-21,0.1-31.6
			c0.1-4.4-3.7-8.1-8-8.1c-18.7,0.2-37.5,0.2-56.2,0c-4.8,0-8,4-8,8.1c0.2,21,0.2,42.1,0,63.1c0,4.4,3.2,8.3,8.3,8.3
			c18.6-0.1,37.2-0.1,55.8,0c4.2,0,8.2-3.5,8.1-8.1C-138-141.6-137.8-152.2-137.8-162.7 M-172.6-116.4c-10.5,0-20.9,0-31.4,0
			c-4.9,0-7.7-2.2-9-7c-1-3.7-3.2-21.4-3.1-39c0.1-18.4,2.7-36.7,3.4-39.4c1.2-4.3,4-6.6,8.4-6.6c21.2,0,45.2,0,66.5,0
			c4.1,0,8.9,18.3,8.9,45.8c0,27.2-5.1,46.2-8.9,46.2C-148.4-116.4-161.9-116.4-172.6-116.4"/>
	</g>
	<g id="g64" transform="matrix(0,-1,1,0,174.88199,147.32687)">
		<path id="path66" inkscape:connector-curvature="0" fill="#C1C3C2" d="M-208.1-106.5c0,10,0,20,0,30c0,4.7,2.8,7.5,7.5,7.5
			c17.8,0,35.5,0,53.3,0c4.8,0,7.5-2.8,7.5-7.6c0-20,0-40,0-60.1c0-4.7-2.8-7.6-7.5-7.6c-17.8,0-35.6,0-53.3,0c-4.6,0-7.5,3-7.5,7.6
			C-208.1-126.5-208.1-116.5-208.1-106.5 M-137.9-106.6c0,10.6-0.2,21.2,0.1,31.8c0.1,4.6-3.9,8.1-8.1,8.1
			c-18.6-0.1-37.2-0.1-55.8,0c-5.1,0-8.3-3.9-8.3-8.3c0.2-21,0.2-42.1,0-63.1c0-4.1,3.2-8.1,8-8.1c18.7,0.2,37.5,0.2,56.2,0
			c4.4,0,8.1,3.6,8,8.1C-138-127.6-137.9-117.1-137.9-106.6"/>
	</g>
	<g id="g68" transform="matrix(0,-1,1,0,174.88199,147.32687)">
		<path id="path70" inkscape:connector-curvature="0" fill="#4A4A4C" d="M-208.1-106.5c0-10,0-20,0-30c0-4.6,2.9-7.6,7.5-7.6
			c17.8,0,35.5,0,53.3,0c4.7,0,7.5,2.9,7.5,7.6c0,20,0,40,0,60.1c0,4.8-2.8,7.6-7.5,7.6c-17.8,0-35.5,0-53.3,0
			c-4.7,0-7.5-2.9-7.5-7.5C-208.1-86.5-208.1-96.5-208.1-106.5"/>
	</g>
	<g id="g72" transform="matrix(0,-1,1,0,192.30929,62.52287)">
		<path id="path74" inkscape:connector-curvature="0" fill="#6D6D6D" d="M-271.1-17.9c8.3,0,15.1,6.7,15.1,15.1
			c0,8.3-6.7,15.1-15.1,15.1s-15.1-6.7-15.1-15.1C-286.2-11.2-279.4-17.9-271.1-17.9"/>
	</g>
	<g id="g76" transform="matrix(0,-1,1,0,192.30929,61.65197)">
		<path id="path78" inkscape:connector-curvature="0" fill="#02AA46" d="M-272-16.8c7.7,0,14,6.3,14,14c0,7.7-6.3,14-14,14
			s-14-6.3-14-14C-285.9-10.6-279.7-16.8-272-16.8"/>
	</g>
	<g id="g80" transform="matrix(0,-1,1,0,143.32979,62.52287)">
		<path id="path82" inkscape:connector-curvature="0" fill="#6D6D6D" d="M-332.3,31.1c8.3,0,15.1,6.7,15.1,15.1
			c0,8.3-6.7,15.1-15.1,15.1s-15.1-6.7-15.1-15.1C-347.4,37.8-340.6,31.1-332.3,31.1"/>
	</g>
	<g id="g84" transform="matrix(0,-1,1,0,143.32979,61.65197)">
		<path id="path86" inkscape:connector-curvature="0" fill="#E23434" d="M-333.2,32.1c7.7,0,14,6.3,14,14c0,7.7-6.3,14-14,14
			s-14-6.3-14-14C-347.2,38.4-340.9,32.1-333.2,32.1"/>
	</g>
	<g id="g88" transform="matrix(0,-1,1,0,167.75548,88.00087)">
		<path id="path90" inkscape:connector-curvature="0" fill="#6D6D6D" d="M-276.3-25.2c8.3,0,15.1,6.7,15.1,15.1
			c0,8.3-6.7,15.1-15.1,15.1c-8.3,0-15.1-6.7-15.1-15.1C-291.4-18.5-284.6-25.2-276.3-25.2"/>
	</g>
	<g id="g92" transform="matrix(0,-1,1,0,167.75548,87.20347)">
		<path id="path94" inkscape:connector-curvature="0" fill="#F2E825" d="M-277.1-24.2c7.8,0,14.1,6.3,14.1,14.1s-6.3,14.1-14.1,14.1
			c-7.8,0-14.1-6.3-14.1-14.1S-284.9-24.2-277.1-24.2"/>
	</g>
	<g id="g96" transform="matrix(0,-1,1,0,167.75548,37.81857)">
		<path id="path98" inkscape:connector-curvature="0" fill="#6D6D6D" d="M-326.5,37.5c8.3,0,15.1,6.7,15.1,15.1
			c0,8.3-6.7,15.1-15.1,15.1s-15.1-6.7-15.1-15.1C-341.5,44.3-334.8,37.5-326.5,37.5"/>
	</g>
	<g id="g100" transform="matrix(0,-1,1,0,167.75548,36.73317)">
		<path id="path102" inkscape:connector-curvature="0" fill="#3F6C9E" d="M-327.6,38.9c7.6,0,13.7,6.1,13.7,13.7
			s-6.1,13.7-13.7,13.7c-7.6,0-13.7-6.1-13.7-13.7S-335.1,38.9-327.6,38.9"/>
	</g>
	<g id="g104" transform="matrix(0,-1,1,0,193.48118,284.84577)">
		<path id="path106" inkscape:connector-curvature="0" fill="#E4E5E4" d="M-47.3-297c22.7,0,41,18.4,41,41s-18.4,41-41,41
			s-41-18.4-41-41S-70-297-47.3-297"/>
	</g>
	<g id="g108" transform="matrix(0,-1,1,0,193.48118,274.76597)">
		<path id="path110" inkscape:connector-curvature="0" fill="#A7A8A8" d="M-57.4-284.4c15.7,0,28.4,12.7,28.4,28.4
			c0,15.7-12.7,28.4-28.4,28.4s-28.4-12.7-28.4-28.4C-85.8-271.7-73.1-284.4-57.4-284.4"/>
	</g>
	<g id="g112" transform="matrix(0,-1,1,0,193.48118,271.43847)">
		<path id="path114" inkscape:connector-curvature="0" fill="#C1C3C2" d="M-60.7-280.2c13.4,0,24.3,10.9,24.3,24.3
			c0,13.4-10.9,24.3-24.3,24.3S-85-242.6-85-256C-85-269.4-74.1-280.2-60.7-280.2"/>
	</g>
	<g id="g116" transform="matrix(0,-1,1,0,257.47098,124.22927)">
		<path id="path118" inkscape:connector-curvature="0" fill="#DEDFDE" d="M-127.9-160.2h-7.8c-1.7,0-3.2-1.4-3.2-3.2v-51.3
			c0-1.7,1.4-3.2,3.2-3.2h7.8c1.7,0,3.2,1.4,3.2,3.2v6.3c0,1.6,1.3,2.8,2.8,2.8h7.4c9.3,0,17.2,7.1,17.7,16.4
			c0.4,9.9-7.4,18-17.2,18h-7.9c-1.6,0-2.8,1.3-2.8,2.8v5C-124.8-161.6-126.2-160.2-127.9-160.2"/>
	</g>
	<g id="g120" transform="matrix(0,-1,1,0,252.27228,150.68167)">
		<path id="path122" inkscape:connector-curvature="0" d="M-108-188.1c0,0-0.1-0.2-0.2-0.2c0-0.2-0.1-0.3-0.1-0.4c0-0.1,0-0.3,0-0.4
			c0-0.2,0.1-0.4,0.2-0.6c0.1-0.2,0-0.2,0.2-0.3c0.1-0.1,0.4-0.3,0.6-0.3c0.1,0,0.3,0,0.4,0c0.1,0,0.2,0.1,0.3,0.1
			c0.1,0.1,0.2,0.2,0.3,0.3c0.1,0.1,0.1,0.3,0.2,0.5c0,0.1,0.1,0.3,0.1,0.5c0,0.1,0,0.4,0.1,0.5c0,0.1,0,0.2,0.1,0.3
			c0,0.1,0.1,0.2,0.1,0.2c0,0,0.1,0.1,0.2,0.2l-1.1,0c0,0-0.5,0-0.7-0.2C-107.8-187.9-108-188.1-108-188.1 M-104.2-190.6
			c0.1,0.3,0.2,0.4,0.3,0.6c0,0.2,0.1,0.3,0.1,0.6c0,0.2,0.1,0.4,0.1,0.6c0,0.2-0.1,0.5-0.1,0.7c0,0.2-0.2,0.3-0.4,0.4
			c-0.1,0.1-0.2,0.1-0.4,0.1h-0.2c-0.1,0-0.1-0.1-0.2-0.1s-0.1-0.1-0.2-0.2c0,0-0.1-0.1-0.1-0.2c0-0.1-0.1-0.2-0.1-0.3
			c0-0.1,0-0.2-0.1-0.4c-0.1-0.5-0.1-0.8-0.2-1.1c-0.1-0.2-0.1-0.4-0.2-0.5c-0.1-0.2-0.1-0.2-0.3-0.4c-0.1-0.1-0.2-0.2-0.3-0.3
			c-0.1-0.1-0.2-0.1-0.4-0.2c-0.1,0-0.3-0.1-0.5-0.1c-0.3,0-0.5,0-0.8,0.2c-0.2,0.1-0.4,0.4-0.6,0.6c-0.1,0.3-0.3,0.6-0.3,1.1v0.4
			c0,0.1,0.1,0.3,0.1,0.5c0.1,0.1,0.2,0.3,0.3,0.5c0.2,0.2,0.3,0.3,0.3,0.3h-0.6v0.5v0.5c0.4-0.1,0.5-0.1,0.8-0.1c0.5,0,1.6,0,2.2,0
			c0.6,0,0.4,0,0.7,0c0.2,0,0.6-0.1,0.7-0.2c0.2-0.1,0.3-0.2,0.5-0.3c0.2-0.1,0.4-0.5,0.5-0.7c0.1-0.3,0.1-0.5,0.1-0.8
			c0-0.3,0-0.7,0-1c0-0.3-0.1-0.5-0.2-0.9C-103.8-190.6-104.1-190.6-104.2-190.6"/>
	</g>
	<g id="g124" transform="matrix(0,-1,1,0,252.32899,135.43377)">
		<path id="path126" inkscape:connector-curvature="0" d="M-123.2-169.1c0-0.1-0.1-0.2-0.2-0.3c0-0.2-0.1-0.3-0.1-0.4
			c0-0.2,0-0.3,0-0.4c0-0.2,0.1-0.4,0.2-0.6c0.1-0.1,0-0.1,0.2-0.3c0.1-0.1,0.4-0.3,0.6-0.3c0.1,0,0.3,0,0.4,0
			c0.1,0,0.2,0.1,0.3,0.2c0.1,0.1,0.2,0.2,0.3,0.3c0.1,0.1,0.1,0.3,0.2,0.5c0,0.1,0.1,0.3,0.1,0.5c0,0.1,0,0.4,0.1,0.5
			c0,0.1,0,0.2,0.1,0.2c0,0.1,0.1,0.2,0.1,0.2c0,0,0.1,0.1,0.2,0.2h-1.1c0,0-0.4,0-0.7-0.2C-123-168.9-123.2-169.1-123.2-169.1
			 M-119.4-171.6c0.1,0.2,0.2,0.4,0.3,0.6c0,0.2,0.1,0.4,0.1,0.6c0,0.2,0.1,0.4,0.1,0.6c0,0.2-0.1,0.5-0.1,0.7
			c0,0.2-0.2,0.3-0.4,0.4c-0.1,0.1-0.2,0.1-0.4,0.1c-0.1,0-0.1,0-0.2,0c-0.1,0,0,0-0.1-0.1c-0.1,0-0.1-0.1-0.2-0.2
			c0,0-0.1-0.1-0.1-0.2c0-0.1-0.1-0.2-0.1-0.3c0-0.1,0-0.2-0.1-0.4c-0.1-0.5-0.1-0.9-0.2-1c-0.1-0.2-0.1-0.4-0.2-0.5
			c-0.1-0.1-0.1-0.2-0.3-0.4c-0.1-0.1-0.2-0.2-0.3-0.3c-0.1-0.1-0.3-0.1-0.4-0.2c-0.1,0-0.3-0.1-0.5-0.1c-0.3,0-0.5,0-0.8,0.2
			c-0.2,0.1-0.4,0.4-0.6,0.6c-0.1,0.3-0.3,0.6-0.3,1.1v0.4c0,0.2,0.1,0.3,0.1,0.5c0.1,0.1,0.2,0.3,0.3,0.5c0.2,0.2,0.3,0.3,0.3,0.3
			h-0.6v0.5v0.5c0.4-0.1,0.5-0.1,0.8-0.1c0.5,0,1.6,0,2.2,0c0.6,0,0.4,0,0.7,0c0.2,0,0.6-0.1,0.7-0.2c0.2-0.1,0.3-0.2,0.5-0.3
			c0.2-0.1,0.4-0.4,0.5-0.7c0.1-0.3,0.1-0.4,0.1-0.7c0-0.3,0-0.7-0.1-1c0-0.3-0.1-0.5-0.2-0.9C-119-171.6-119.3-171.6-119.4-171.6"
			/>
	</g>
	<g id="g128" transform="matrix(0,-1,1,0,251.61908,148.81527)">
		<path id="path130" inkscape:connector-curvature="0" d="M-110.7-185.1l0.4,0.1l1.1,0l3.2-0.1c0.3,0,0.6-0.2,0.7-0.2
			c0,0.2,0,0.5,0.1,0.7c0,0.1,0,0.3,0,0.4h-0.7c0.2,0.1,0.2,0.3,0.3,0.4c0.1,0.1,0.1,0.2,0.2,0.3c0.1,0.1,0.1,0.2,0.1,0.4
			c0,0.2,0,0.4,0,0.6c0,0.1,0,0.3-0.1,0.4c0,0.1-0.1,0.3-0.2,0.4c0,0.1-0.1,0.2-0.2,0.3c-0.1,0.1-0.1,0.2-0.3,0.3
			c0,0,0.3,0.2,0.4,0.5c0.2,0.3,0.3,0.7,0.3,1c0,0.2,0,0.8-0.1,1c-0.1,0.2-0.2,0.6-0.4,0.7c-0.2,0.1-0.2,0.2-0.4,0.3
			c-0.2,0.2-0.6,0.2-0.7,0.2c-0.2,0-0.5,0-0.8,0h-2.6c-0.3,0-0.3,0.1-0.6,0.1v-0.5v-0.6c0.4,0.1,0.3,0.1,0.6,0.1l2.4,0
			c0.3,0,0.5,0,0.8,0c0.2,0,0.5-0.1,0.6-0.1c0.1,0,0.4-0.3,0.4-0.4c0.1-0.1,0.1-0.2,0.2-0.4c0.1-0.1,0.1-0.4,0.1-0.5
			c0-0.1,0-0.3,0-0.4c0-0.1-0.1-0.2-0.1-0.3c-0.1-0.1-0.1-0.2-0.2-0.3c-0.1-0.1-0.2-0.1-0.3-0.2c-0.1,0-0.3,0-0.5-0.1
			c-0.2,0-0.5,0-0.9,0h-2.3l-0.5,0.2v-0.6v-0.5c0.5,0,0,0.1,0.5,0.1h2.1h1.1c0.2,0,0.3,0,0.4-0.1c0.1,0,0.3-0.1,0.4-0.2
			c0.1-0.1,0.3-0.3,0.4-0.4c0.1-0.1,0.1-0.3,0.1-0.5c0-0.2,0-0.3-0.1-0.4c-0.1-0.1-0.1-0.3-0.2-0.4c-0.1-0.1-0.1-0.2-0.3-0.3
			c-0.2-0.1-0.1-0.1-0.4-0.2c-0.3,0-1.4-0.1-2.1-0.1c-0.4,0-0.8,0-1.2,0c-0.2,0-0.3,0.1-0.5,0.1v-0.5
			C-110.7-184.6-110.7-184.9-110.7-185.1"/>
	</g>
	<g id="g132" transform="matrix(0,-1,1,0,252.42238,138.21487)">
		<path id="path134" inkscape:connector-curvature="0" d="M-120.3-172.6c-0.1,0-0.2,0-0.3,0c-0.2,0-0.3-0.1-0.5-0.1
			c-0.1-0.2-0.1-0.5-0.2-0.7c0-0.2,0-0.8,0-1c0-0.3,0.1-0.8,0.2-1.1c0.1-0.3,0.3-0.7,0.6-0.9c0.2-0.2,0.5-0.5,0.9-0.6
			c0.4-0.1,0.7-0.2,1.1-0.2c0.6,0,0.7,0.1,1.2,0.2c0.5,0.2,0.9,0.6,1.1,0.9c0.3,0.4,0.5,1.2,0.5,1.8c0,0.5-0.1,1-0.2,1.5
			c-0.3,0-0.5,0-0.7,0.1c0.1-0.3,0.3-0.6,0.3-0.8c0-0.2,0.1-0.5,0.1-0.6c0-0.3-0.1-0.9-0.3-1.1c-0.1-0.2-0.3-0.4-0.5-0.6
			c-0.2-0.1-0.5-0.3-0.8-0.3c-0.3-0.1-0.3-0.1-0.7-0.1c-0.4,0-0.8,0.1-1.1,0.2c-0.3,0.1-0.6,0.3-0.8,0.7c-0.2,0.3-0.4,0.6-0.4,1
			C-120.7-174.2-120.7-173.4-120.3-172.6"/>
	</g>
	<g id="g136" transform="matrix(0,-1,1,0,251.78799,133.68077)">
		<path id="path138" inkscape:connector-curvature="0" d="M-125.6-166.3l0.4-0.1c0,0,0.3-0.1,0.5-0.1c-0.4,0.6-0.6,1.3-0.6,1.8
			c0,0.2,0.1,0.5,0.1,0.7c0.1,0.2,0.2,0.3,0.3,0.4c0.1,0.1,0.3,0.2,0.4,0.2c0.1,0,0.2,0,0.3,0c0.1,0,0.3,0,0.4-0.1
			c0.1,0,0.2-0.2,0.3-0.3c0.1-0.1,0.2-0.3,0.3-0.7c0.1-0.3,0.3-0.8,0.4-0.9c0.1-0.2,0.3-0.4,0.4-0.6c0.1-0.1,0.3-0.2,0.4-0.3
			c0.1,0,0.4,0,0.5,0c0.2,0,0.5,0.1,0.7,0.3c0.2,0.1,0.4,0.4,0.5,0.7c0.1,0.3,0.2,0.6,0.2,1c0,0.4-0.1,0.8-0.2,1.3
			c-0.3,0-0.5,0-0.7,0c0.2-0.4,0.4-0.8,0.4-1.2c0-0.2,0-0.4-0.1-0.6c-0.1-0.2-0.2-0.4-0.3-0.5c-0.1-0.1-0.2-0.1-0.3-0.1
			c-0.1,0-0.2,0-0.3,0.1c-0.1,0-0.3,0.2-0.4,0.4c-0.1,0.2,0,0.1-0.1,0.2c0,0.2-0.2,0.5-0.4,0.9c-0.2,0.4-0.4,0.7-0.5,0.9
			c-0.1,0.1-0.3,0.3-0.6,0.4c-0.1,0.1-0.3,0.1-0.4,0.1c-0.2,0-0.2,0-0.4,0c-0.3,0-0.4,0-0.6-0.2c-0.2-0.1-0.4-0.4-0.6-0.7
			c-0.1-0.3-0.2-0.6-0.2-1c0-0.2,0-0.5,0-0.7c0-0.2,0.1-0.4,0.1-0.6C-125.7-166-125.7-166.1-125.6-166.3"/>
	</g>
	<g id="g140" transform="matrix(0,-1,1,0,252.16188,128.23097)">
		<path id="path142" inkscape:connector-curvature="0" d="M-130.6-159.9c-0.2,0-0.3-0.1-0.6-0.1c-0.1-0.2-0.1-0.3-0.1-0.5
			c0-0.1,0-0.3,0-0.4c0-0.3,0-0.5,0.1-0.7c0.1-0.2,0.2-0.3,0.4-0.4c0.2-0.1,0.7-0.2,1-0.2h0.2c0.1,0,0.2,0,0.8,0l2.4,0v-0.7h0.5
			l0,0.7c0.1,0,0.6,0,1,0c0.2,0,0.3-0.1,0.4-0.2c0.1,0.3,0.2,0.8,0.3,1c-0.5,0-1.3,0-1.6,0l0,1.4c-0.2,0-0.3,0-0.5,0l0-0.4v-1
			l-3.1,0h-0.3c-0.3,0-0.6,0-0.8,0.1c-0.1,0-0.2,0.1-0.3,0.3c0,0.1-0.1,0.2-0.1,0.4v0.3C-130.7-160.2-130.6-160.2-130.6-159.9"/>
	</g>
	<g id="g144" transform="matrix(0,-1,1,0,252.40158,153.66757)">
		<path id="path146" inkscape:connector-curvature="0" d="M-104.8-191.9c-0.2,0-0.5-0.1-0.8-0.1c-0.1-0.3-0.3-0.8-0.3-1.1
			c0-0.2,0-0.5,0-0.7c0-0.4,0.1-0.8,0.2-1.2c0.1-0.3,0.3-0.7,0.6-0.9c0.3-0.3,0.6-0.5,0.9-0.6c0.4-0.1,0.7-0.1,1.1-0.2
			c0.6,0,0.8,0.1,1.3,0.2c0.5,0.2,0.8,0.5,1.1,0.9c0.3,0.4,0.4,0.8,0.4,1.4c0,0.3,0,0.7-0.1,0.9c-0.1,0.3-0.2,0.5-0.4,0.7
			c-0.2,0.2-0.4,0.4-0.7,0.5c-0.3,0.1-0.3,0.1-0.7,0.2c-0.2,0-0.4,0-0.6,0l0-4h-0.4c-0.4,0-0.8,0.1-1.1,0.2
			c-0.3,0.2-0.6,0.4-0.7,0.7c-0.2,0.3-0.3,0.7-0.3,1.1C-105.3-193.4-105.2-192.6-104.8-191.9 M-102.2-195.6v2.9c0.2,0,0.2,0,0.3,0
			c0.1,0,0.2-0.1,0.4-0.1c0.1-0.1,0.2-0.2,0.3-0.3c0.1-0.1,0.2-0.2,0.3-0.4c0-0.1,0.1-0.4,0.1-0.6s0-0.4-0.1-0.5
			c-0.1-0.2-0.1-0.3-0.3-0.4c-0.1-0.1-0.2-0.2-0.3-0.3s-0.3-0.2-0.4-0.2l0,0C-102.1-195.6-102.1-195.6-102.2-195.6"/>
	</g>
	<g id="g148" transform="matrix(0,-1,1,0,251.50668,160.19917)">
		<path id="path150" inkscape:connector-curvature="0" d="M-99.4-199.2c0.1,0,0.3,0.1,0.4,0.1c1.8,0,3.1,0,4.2,0l0.5,0l0.4-0.2
			c0,0.2,0,0.4,0.1,0.5c0,0.1,0.1,0.4,0.1,0.6h-1c0.2,0.1,0.2,0.1,0.3,0.2c0.1,0.1,0.3,0.2,0.4,0.3c0.1,0.1,0.2,0.2,0.2,0.4
			c0,0.1,0.1,0.3,0.1,0.4c0,0.1,0,0.3,0,0.6c0,0.3-0.1,0.5-0.1,0.6c-0.1,0-0.7-0.2-0.7-0.2s0-0.3,0.1-0.5c0-0.2,0-0.3,0-0.5
			c0-0.2,0-0.4-0.1-0.6c-0.1-0.1-0.2-0.3-0.3-0.4c-0.1-0.1-0.3-0.2-0.5-0.3c-0.2-0.1,0,0-0.3-0.1c-0.3,0-2.8,0-3.4,0l-0.3,0.1v-0.6
			C-99.4-198.8-99.4-199-99.4-199.2"/>
	</g>
	<g id="g152" transform="matrix(0,-1,1,0,251.48968,166.78567)">
		<path id="path154" inkscape:connector-curvature="0" d="M-92.9-207.4l0.5,0.2h6.6c0.2,0,0.4-0.1,0.7-0.2c0,0.5,0,1.2,0,1.6
			c0,0.2,0,0.5,0,0.9c0,0.4,0,0.8,0,1c0,0.6-0.1,0.7-0.2,1.2c-0.1,0.3-0.4,0.9-0.6,1.2c-0.2,0.3-0.4,0.5-0.7,0.7
			c-0.3,0.2-0.4,0.3-0.7,0.5c-0.5,0.2-1,0.3-1.5,0.3c-0.7,0-1.2,0-1.8-0.2c-0.6-0.2-1.1-0.6-1.4-1c-0.4-0.4-0.7-0.8-0.8-1.4
			c-0.1-0.5-0.2-1.1-0.2-1.7v-1.5L-92.9-207.4z M-92.2-206.1c0,0.4,0,0.8,0,1.2c0,0.3,0,0.7,0,1c0,0.3,0.2,0.6,0.3,0.8
			c0.1,0.3,0.2,0.5,0.5,0.7c0.2,0.3,0.5,0.4,0.8,0.6c0.3,0.1,0.6,0.3,1,0.3c0.4,0.1,0.7,0.1,1.1,0.1c0.4,0,0.7-0.1,1.1-0.3
			c0.4-0.1,0.8-0.3,1.1-0.6c0.3-0.3,0.5-0.6,0.6-0.9c0.1-0.3,0.2-0.8,0.2-1.4c0-0.3,0-0.8,0-1c0-0.2,0-0.4,0-0.7L-92.2-206.1z"/>
	</g>
	<g id="g156" transform="matrix(0,-1,1,0,266.90268,146.60437)">
		<path id="path158" inkscape:connector-curvature="0" fill="#CF3311" d="M-93.8-197.6c0.9,0,0.8-0.4,0.9-0.7c0-0.3-0.1-1.1,0-1.8
			c0.2-0.8,1.3-1.3,1.9-1.1c1.6,0.4,1.8,1.5,1.8,2.2c0,0.6-0.1,1.6-1.2,2.9c-0.5,0.6-1.9,0.9-2.6,1c-1,0-2,0-2.6-0.6
			c-1-0.9-1.8-3.3-1.8-4.7c0.6-5.3,5.6-5.1,5.6-5.1s2.1-0.4,4.4,1.4c0.2,0.1,0.6,0.4,0.8,0.6c0.2,0.2,0.3,0.3,0.4,0.6
			c0.2,0.2,0.3,0.4,0.4,0.7c0.3,0.6,0.7,1.2,0.9,1.8c0.3,0.9,0.4,1.8,0.3,2.5c-0.1,2.2-1.3,4.6-3.1,5.8c-0.3,0.2-0.4,0.3-0.7,0.5
			c-0.3,0.2-0.7,0.4-1.2,0.6c-0.8,0.3-0.5,0.2-1.7,0.5c-0.9,0.2-1.4,0.3-2,0.3c-0.3,0-0.5,0-0.8,0.1c-1,0-1.2,0.1-1.9-0.1
			c-1.3-0.3-2.5-1.1-3.1-1.8c-1.1-1.2-1.5-2.2-1.8-2.9c-0.3-0.6-0.4-0.9-0.7-1.7c-0.3-0.8-0.4-1.3-0.4-2.7c0-1.4,0.1-2.6,0.2-2.9
			c0.7-2.5,1.2-3.5,2.1-4.5c2.2-2.8,6.6-3.4,6.6-3.4s2.2-0.3,4.6,0.2c1.2,0.3,3.5,1.5,4.4,2.2c0.8,0.6,1.9,2,2.4,2.8
			c0.5,0.8,1.2,2,1.7,3.4c0.2,0.7,0.3,1.2,0.4,2.7c0.1,1.8-0.4,4.4-0.9,5.9c-0.5,1.6-1.5,3.1-2.4,3.8c-0.8,0.8-3.3,2.5-3.8,2.8
			c-0.5,0.3-3.2,1.1-3.6,1.2c-0.3,0.1-1.6,0.2-1.5,1.4c0.1,1.1,1.4,0.8,1.6,0.8c0.2,0,2.4-0.4,2.9-0.6c0.6-0.2,2.1-1,2.4-1.2
			c0.2-0.1,1.5-0.9,2.5-1.7c0.7-0.6,1.5-1.1,1.9-1.8c0.8-1.2,1.4-2.7,1.4-2.7s0.9-2.6,1-3.9c0.1-1.2,0.4-2.4,0.3-4.5
			c-0.1-2.1-0.7-3.2-1-4c-0.3-0.7-1.1-2.5-2.1-3.8c-1.1-1.3-0.5-0.9-1.3-1.6c-0.8-0.7-1-0.9-1.6-1.4c-0.7-0.5-2.6-1.5-4-1.8
			c-0.5-0.1-1.4-0.4-2.1-0.5c-0.7-0.1-1.3-0.1-1.9,0c-1.1,0.1-1.2,0.1-1.2,0.1s-2.2,0.5-3.1,0.8c-0.9,0.3-2.1,0.7-4.2,2.5
			c-2,1.8-2.5,3.5-2.8,4.1c-0.2,0.6-1,2.8-1,5.6c-0.1,3.2,0.7,4.1,0.9,4.7c0.3,0.6,1.1,2.6,2.6,4.2c1.5,1.6,3.1,2.1,3.2,2.1
			c1.3,0.4,3.3,0.6,5.2,0.2c1.3-0.3,2.5-0.5,3.3-0.7c1.4-0.5,2.2-1,2.8-1.4c0.6-0.4,1.5-1.5,1.9-2.3c0.2-0.4,0.5-0.7,0.7-1.1
			c0.2-0.5,0.3-1.1,0.5-1.8c0.2-0.7,0.3-1.6,0.4-2.3c0-0.7,0-1.2,0-1.4c0-0.3-0.2-1.4-1-2.9c-0.4-0.8-1-1.7-2-2.7
			c-0.3-0.3-0.7-0.6-1.1-0.8c-3-2.2-6.4-1.4-6.4-1.4s-4.6,0.4-5.9,4.4c-0.4,1.4-0.5,2.7-0.3,3.7c0.2,1.8,1,3,1.4,3.9
			c0.5,0.9,1.2,1.5,2,1.9c0.7,0.4,1.5,0.4,2.2,0.4c0.4,0,0.9,0,1.4-0.1c1.3-0.2,2.6-0.7,3.6-1.8l0.2-0.4c0.1-0.2,0.2-0.4,0.3-0.6
			c0.5-1,0.7-1.9,0.8-3.3c0-0.5-0.1-1.2-0.3-1.6c-0.8-1.6-2.2-2.4-4-2.4c-1.7,0.1-2.6,1.7-2.9,2C-94.5-201.3-95.4-197.7-93.8-197.6"
			/>
	</g>
	<g id="g160" transform="matrix(0,-1,1,0,133.60868,213.41457)">
		<path id="path162" inkscape:connector-curvature="0" fill="#A7A8A8" d="M-193.6-147.8h-15.3c-0.9,0-1.7-0.8-1.7-1.7v-18h-18
			c-0.9,0-1.7-0.8-1.7-1.7v-15.3c0-0.9,0.8-1.7,1.7-1.7h18v-18c0-0.9,0.8-1.7,1.7-1.7h15.3c0.9,0,1.7,0.8,1.7,1.7v18h18
			c0.9,0,1.7,0.8,1.7,1.7v15.3c0,0.9-0.8,1.7-1.7,1.7h-18v18C-191.9-148.6-192.6-147.8-193.6-147.8"/>
	</g>
	<g id="g164" transform="matrix(0,-1,1,0,132.94019,214.72847)">
		<path id="path166" inkscape:connector-curvature="0" fill="#C1C3C2" d="M-193.1-148.8h-13.6c-0.8,0-1.5-0.7-1.5-1.5v-17.5h-17.5
			c-0.8,0-1.5-0.7-1.5-1.5V-183c0-0.8,0.7-1.5,1.5-1.5h17.5v-17.5c0-0.8,0.7-1.5,1.5-1.5h13.6c0.8,0,1.5,0.7,1.5,1.5v17.5h17.5
			c0.8,0,1.5,0.7,1.5,1.5v13.6c0,0.8-0.7,1.5-1.5,1.5h-17.5v17.6C-191.6-149.5-192.3-148.8-193.1-148.8"/>
	</g>
	<g id="g168" transform="matrix(0,-1,1,0,56.216285,156.06247)">
		<path id="path170" inkscape:connector-curvature="0" fill="#7F7F7F" d="M-347.7,1.2c-0.2,0.3-0.3,0.8-0.3,1.3
			c0,0.8,0.4,1.2,0.9,1.2c0.5,0,0.8-0.3,1-1.1c0.3-1,0.7-1.5,1.5-1.5c0.8,0,1.4,0.8,1.4,1.9c0,0.6-0.1,1-0.3,1.3l-0.5-0.2
			c0.1-0.2,0.2-0.6,0.2-1.1c0-0.8-0.4-1.1-0.8-1.1c-0.5,0-0.7,0.4-1,1.2c-0.3,1-0.8,1.5-1.5,1.5c-0.8,0-1.5-0.7-1.5-2
			c0-0.6,0.1-1.2,0.3-1.5L-347.7,1.2z"/>
	</g>
	<g id="g172" transform="matrix(0,-1,1,0,59.237285,151.68467)">
		<path id="path174" inkscape:connector-curvature="0" fill="#7F7F7F" d="M-348.3,3.7V1.9h0.6v4.3h-0.6V4.5h-4.6V3.7H-348.3z"/>
	</g>
	<g id="g176" transform="matrix(0,-1,1,0,57.280385,147.36907)">
		<path id="path178" inkscape:connector-curvature="0" fill="#7F7F7F" d="M-355,11.1l1.5-0.6c0.3-0.1,0.6-0.2,0.9-0.3v0
			c-0.3-0.1-0.6-0.2-0.9-0.3l-1.5-0.6V11.1z M-355.6,9.1l-1.6-0.6V7.8l5.2,2v0.9l-5.2,2v-0.8l1.6-0.6V9.1z"/>
	</g>
	<g id="g180" transform="matrix(0,-1,1,0,57.757185,144.81677)">
		<path id="path182" inkscape:connector-curvature="0" fill="#7F7F7F" d="M-357,13.8v0.8c0,0.8,0.4,1.3,1,1.3c0.7,0,1-0.5,1-1.3
			c0-0.4,0-0.6-0.1-0.7H-357z M-354.6,13c0.1,0.4,0.1,0.9,0.1,1.4c0,0.8-0.1,1.3-0.4,1.7c-0.2,0.3-0.6,0.5-1,0.5
			c-0.7,0-1.1-0.5-1.3-1.1h0c-0.1,0.4-0.5,0.7-1,0.9c-0.7,0.2-1.2,0.3-1.4,0.4V16c0.1-0.1,0.6-0.2,1.2-0.4c0.7-0.2,1-0.5,1-1.2v-0.7
			h-2.2V13H-354.6z"/>
	</g>
	<g id="g184" transform="matrix(0,-1,1,0,59.237285,140.74997)">
		<path id="path186" inkscape:connector-curvature="0" fill="#7F7F7F" d="M-359.2,17.4v-1.8h0.6v4.3h-0.6v-1.8h-4.6v-0.8H-359.2z"/>
	</g>
	<g id="g188" transform="matrix(0,-1,1,0,208.87308,259.34177)">
		<path id="path190" inkscape:connector-curvature="0" fill="#B1B2B5" d="M-53.6-280.5c-0.4,0.2-0.5,0.6-0.4,1
			c0.2,0.4,0.6,0.5,1,0.4c0.4-0.2,0.5-0.6,0.4-1C-52.8-280.5-53.2-280.7-53.6-280.5 M-57.6-278.7c-0.4,0.2-0.5,0.6-0.4,1
			c0.2,0.4,0.6,0.5,1,0.4c0.4-0.2,0.5-0.6,0.4-1C-56.8-278.7-57.3-278.9-57.6-278.7 M-62-276.8c-0.4,0.2-0.5,0.6-0.4,1
			c0.2,0.4,0.6,0.5,1,0.4c0.4-0.2,0.5-0.6,0.4-1C-61.2-276.8-61.6-277-62-276.8 M-65.4-274.6c0.2,0.4,0,0.8-0.4,1
			c-0.4,0.2-0.8,0-1-0.4s0-0.8,0.4-1C-66-275.1-65.6-274.9-65.4-274.6 M-92-262.2c0.4-0.2,0.5-0.6,0.4-1s-0.6-0.5-1-0.4
			c-0.4,0.2-0.5,0.6-0.4,1C-92.9-262.2-92.4-262-92-262.2 M-88-264c0.4-0.2,0.5-0.6,0.4-1c-0.2-0.4-0.6-0.5-1-0.4s-0.5,0.6-0.4,1
			C-88.8-264-88.4-263.8-88-264 M-83.6-265.9c0.4-0.2,0.5-0.6,0.4-1c-0.2-0.4-0.6-0.5-1-0.4c-0.4,0.2-0.5,0.6-0.4,1
			C-84.4-265.9-84-265.7-83.6-265.9 M-80.2-268.1c-0.2-0.4,0-0.8,0.4-1c0.4-0.2,0.8,0,1,0.4c0.2,0.4,0,0.8-0.4,1
			S-80-267.8-80.2-268.1 M-63.7-252.1c-0.2-0.4-0.6-0.5-1-0.4c-0.4,0.2-0.5,0.6-0.4,1s0.6,0.5,1,0.4
			C-63.7-251.3-63.5-251.7-63.7-252.1 M-65.4-256.2c-0.2-0.4-0.6-0.5-1-0.4c-0.4,0.2-0.5,0.6-0.4,1c0.2,0.4,0.6,0.5,1,0.4
			C-65.4-255.4-65.3-255.8-65.4-256.2 M-67.3-260.6c-0.2-0.4-0.6-0.5-1-0.4c-0.4,0.2-0.5,0.6-0.4,1c0.2,0.4,0.6,0.5,1,0.4
			C-67.3-259.7-67.2-260.2-67.3-260.6 M-69.6-264c-0.4,0.2-0.8,0-1-0.4c-0.2-0.4,0-0.8,0.4-1s0.8,0,1,0.4
			C-69.1-264.6-69.2-264.1-69.6-264 M-82-290.6c0.2,0.4,0.6,0.5,1,0.4c0.4-0.2,0.5-0.6,0.4-1s-0.6-0.5-1-0.4
			C-82-291.4-82.1-291-82-290.6 M-80.2-286.5c0.2,0.4,0.6,0.5,1,0.4c0.4-0.2,0.5-0.6,0.4-1c-0.2-0.4-0.6-0.5-1-0.4
			C-80.2-287.3-80.4-286.9-80.2-286.5 M-78.3-282.2c0.2,0.4,0.6,0.5,1,0.4c0.4-0.2,0.5-0.6,0.4-1s-0.6-0.5-1-0.4
			C-78.3-283-78.5-282.5-78.3-282.2 M-76-278.7c0.4-0.2,0.8,0,1,0.4c0.2,0.4,0,0.8-0.4,1c-0.4,0.2-0.8,0-1-0.4
			C-76.6-278.1-76.4-278.6-76-278.7 M-58.3-286.9c-0.3,0.3-0.3,0.8,0,1c0.3,0.3,0.8,0.3,1,0c0.3-0.3,0.3-0.8,0-1
			C-57.5-287.2-58-287.2-58.3-286.9 M-61.4-283.8c-0.3,0.3-0.3,0.8,0,1c0.3,0.3,0.8,0.3,1,0c0.3-0.3,0.3-0.8,0-1
			C-60.6-284.1-61.1-284.1-61.4-283.8 M-64.8-280.4c-0.3,0.3-0.3,0.8,0,1c0.3,0.3,0.8,0.3,1,0c0.3-0.3,0.3-0.8,0-1
			C-64-280.7-64.5-280.7-64.8-280.4 M-87.3-255.8c0.3-0.3,0.3-0.8,0-1c-0.3-0.3-0.8-0.3-1,0c-0.3,0.3-0.3,0.8,0,1
			C-88.1-255.5-87.6-255.5-87.3-255.8 M-84.2-258.9c0.3-0.3,0.3-0.8,0-1c-0.3-0.3-0.8-0.3-1,0c-0.3,0.3-0.3,0.8,0,1
			C-85-258.6-84.5-258.6-84.2-258.9 M-80.8-262.3c0.3-0.3,0.3-0.8,0-1c-0.3-0.3-0.8-0.3-1,0c-0.3,0.3-0.3,0.8,0,1
			C-81.6-262-81.1-262-80.8-262.3 M-57.2-256.8c-0.3-0.3-0.8-0.3-1,0c-0.3,0.3-0.3,0.8,0,1c0.3,0.3,0.8,0.3,1,0
			C-56.9-256.1-56.9-256.5-57.2-256.8 M-60.4-259.9c-0.3-0.3-0.8-0.3-1,0c-0.3,0.3-0.3,0.8,0,1c0.3,0.3,0.8,0.3,1,0
			C-60.1-259.2-60.1-259.7-60.4-259.9 M-63.7-263.3c-0.3-0.3-0.8-0.3-1,0c-0.3,0.3-0.3,0.8,0,1c0.3,0.3,0.8,0.3,1,0
			C-63.4-262.6-63.4-263-63.7-263.3 M-88.4-285.9c0.3,0.3,0.8,0.3,1,0c0.3-0.3,0.3-0.8,0-1c-0.3-0.3-0.8-0.3-1,0
			C-88.7-286.6-88.7-286.2-88.4-285.9 M-85.3-282.8c0.3,0.3,0.8,0.3,1,0c0.3-0.3,0.3-0.8,0-1c-0.3-0.3-0.8-0.3-1,0
			C-85.5-283.5-85.5-283-85.3-282.8 M-81.9-279.4c0.3,0.3,0.8,0.3,1,0c0.3-0.3,0.3-0.8,0-1c-0.3-0.3-0.8-0.3-1,0
			C-82.2-280.1-82.2-279.7-81.9-279.4 M-65.2-291.3c-0.2,0.4,0,0.8,0.4,1c0.4,0.2,0.8,0,1-0.4c0.2-0.4,0-0.8-0.4-1
			C-64.6-291.8-65.1-291.6-65.2-291.3 M-67-287.2c-0.2,0.4,0,0.8,0.4,1c0.4,0.2,0.8,0,1-0.4c0.2-0.4,0-0.8-0.4-1
			C-66.4-287.7-66.8-287.6-67-287.2 M-68.8-282.8c-0.2,0.4,0,0.8,0.4,1c0.4,0.2,0.8,0,1-0.4c0.2-0.4,0-0.8-0.4-1
			C-68.2-283.3-68.6-283.2-68.8-282.8 M-69.7-278.8c0.4,0.2,0.6,0.6,0.4,1c-0.2,0.4-0.6,0.6-1,0.4c-0.4-0.2-0.6-0.6-0.4-1
			C-70.5-278.8-70.1-278.9-69.7-278.8 M-80.4-251.4c0.2-0.4,0-0.8-0.4-1c-0.4-0.2-0.8,0-1,0.4c-0.2,0.4,0,0.8,0.4,1
			C-81-250.9-80.5-251.1-80.4-251.4 M-78.7-255.5c0.2-0.4,0-0.8-0.4-1s-0.8,0-1,0.4c-0.2,0.4,0,0.8,0.4,1
			C-79.3-255-78.8-255.1-78.7-255.5 M-76.8-259.9c0.2-0.4,0-0.8-0.4-1c-0.4-0.2-0.8,0-1,0.4c-0.2,0.4,0,0.8,0.4,1
			C-77.4-259.4-77-259.5-76.8-259.9 M-75.9-263.9c-0.4-0.2-0.6-0.6-0.4-1c0.2-0.4,0.6-0.6,1-0.4c0.4,0.2,0.6,0.6,0.4,1
			C-75.1-263.9-75.6-263.8-75.9-263.9 M-52.9-263.8c-0.4-0.2-0.8,0-1,0.4c-0.2,0.4,0,0.8,0.4,1c0.4,0.2,0.8,0,1-0.4
			C-52.3-263.2-52.5-263.6-52.9-263.8 M-57-265.5c-0.4-0.2-0.8,0-1,0.4c-0.2,0.4,0,0.8,0.4,1c0.4,0.2,0.8,0,1-0.4
			C-56.4-264.9-56.6-265.3-57-265.5 M-61.4-267.3c-0.4-0.2-0.8,0-1,0.4c-0.2,0.4,0,0.8,0.4,1c0.4,0.2,0.8,0,1-0.4
			C-60.8-266.8-61-267.2-61.4-267.3 M-65.4-268.2c-0.2,0.4-0.6,0.6-1,0.4s-0.6-0.6-0.4-1c0.2-0.4,0.6-0.6,1-0.4
			C-65.4-269-65.2-268.6-65.4-268.2 M-92.7-278.9c0.4,0.2,0.8,0,1-0.4c0.2-0.4,0-0.8-0.4-1c-0.4-0.2-0.8,0-1,0.4
			C-93.3-279.5-93.1-279.1-92.7-278.9 M-88.6-277.2c0.4,0.2,0.8,0,1-0.4c0.2-0.4,0-0.8-0.4-1s-0.8,0-1,0.4
			C-89.2-277.8-89-277.4-88.6-277.2 M-84.2-275.4c0.4,0.2,0.8,0,1-0.4c0.2-0.4,0-0.8-0.4-1c-0.4-0.2-0.8,0-1,0.4
			C-84.8-276-84.6-275.5-84.2-275.4 M-80.2-274.5c0.2-0.4,0.6-0.6,1-0.4c0.4,0.2,0.6,0.6,0.4,1c-0.2,0.4-0.6,0.6-1,0.4
			C-80.2-273.7-80.4-274.1-80.2-274.5 M-94.1-270.6c0.4,0,0.7-0.3,0.7-0.7s-0.3-0.7-0.7-0.7c-0.4,0-0.7,0.3-0.7,0.7
			S-94.5-270.6-94.1-270.6 M-89.7-270.6c0.4,0,0.7-0.3,0.7-0.7s-0.3-0.7-0.7-0.7c-0.4,0-0.7,0.3-0.7,0.7S-90.1-270.6-89.7-270.6
			 M-84.9-270.6c0.4,0,0.7-0.3,0.7-0.7s-0.3-0.7-0.7-0.7s-0.7,0.3-0.7,0.7S-85.3-270.6-84.9-270.6 M-51.5-272.1
			c-0.4,0-0.7,0.3-0.7,0.7s0.3,0.7,0.7,0.7s0.7-0.3,0.7-0.7S-51.1-272.1-51.5-272.1 M-55.9-272.1c-0.4,0-0.7,0.3-0.7,0.7
			s0.3,0.7,0.7,0.7c0.4,0,0.7-0.3,0.7-0.7S-55.5-272.1-55.9-272.1 M-60.7-272.1c-0.4,0-0.7,0.3-0.7,0.7s0.3,0.7,0.7,0.7
			c0.4,0,0.7-0.3,0.7-0.7S-60.3-272.1-60.7-272.1 M-73.5-292.6c0,0.4,0.3,0.7,0.7,0.7s0.7-0.3,0.7-0.7c0-0.4-0.3-0.7-0.7-0.7
			C-73.2-293.4-73.5-293.1-73.5-292.6 M-73.5-288.2c0,0.4,0.3,0.7,0.7,0.7s0.7-0.3,0.7-0.7s-0.3-0.7-0.7-0.7
			C-73.2-289-73.5-288.6-73.5-288.2 M-73.5-283.5c0,0.4,0.3,0.7,0.7,0.7s0.7-0.3,0.7-0.7s-0.3-0.7-0.7-0.7
			C-73.2-284.2-73.5-283.9-73.5-283.5 M-72.1-250.1c0-0.4-0.3-0.7-0.7-0.7c-0.4,0-0.7,0.3-0.7,0.7s0.3,0.7,0.7,0.7
			S-72.1-249.7-72.1-250.1 M-72.1-254.5c0-0.4-0.3-0.7-0.7-0.7c-0.4,0-0.7,0.3-0.7,0.7s0.3,0.7,0.7,0.7S-72.1-254.1-72.1-254.5
			 M-72.1-259.3c0-0.4-0.3-0.7-0.7-0.7c-0.4,0-0.7,0.3-0.7,0.7c0,0.4,0.3,0.7,0.7,0.7S-72.1-258.8-72.1-259.3"/>
	</g>
	<g id="g192" transform="matrix(0,-1,1,0,162.49488,73.46277)">
		<path id="path194" inkscape:connector-curvature="0" fill="#B5AA1D" d="M-297.4-1.8l2.9-1.7c1.1-0.7,1.8-1.1,2.6-1.5v0
			c-0.8-0.4-1.5-0.7-2.6-1.4l-2.9-1.6v-2l6.7,4l6.5-3.9v2l-3.1,1.7c-0.9,0.5-1.5,0.9-2.2,1.2v0.1c0.8,0.4,1.4,0.7,2.2,1.2l3.1,1.8v2
			l-6.4-4l-6.8,4.1V-1.8z"/>
	</g>
	<g id="g196" transform="matrix(0,-1,1,0,187.13358,51.30487)">
		<path id="path198" inkscape:connector-curvature="0" fill="#036D2E" d="M-288.8,1.3h5.6l7.6-4.2v1.9l-3.6,1.9
			c-1,0.5-1.8,0.9-2.7,1.3v0c0.9,0.4,1.7,0.8,2.7,1.3l3.6,1.9v1.9l-7.6-4.4h-5.6V1.3z"/>
	</g>
	<g id="g200" transform="matrix(0,-1,1,0,142.43988,48.92697)">
		<path id="path202" inkscape:connector-curvature="0" fill="#A02727" d="M-347,48.9l3.8-1.3c0.9-0.3,1.6-0.5,2.4-0.7v0
			c-0.8-0.2-1.6-0.4-2.4-0.7L-347,45V48.9z M-348.3,44.6l-4.1-1.4v-1.8l13.2,4.5v2l-13.2,4.5v-1.8l4.1-1.4V44.6z"/>
	</g>
	<g id="g204" transform="matrix(0,-1,1,0,163.53088,27.72987)">
		<path id="path206" inkscape:connector-curvature="0" fill="#264560" d="M-341.9,54.3c-0.1,0.3-0.1,0.8-0.1,1.4
			c0,1.8,0.6,3.4,2.6,3.4c1.8,0,2.5-1.5,2.5-3.4v-1.4H-341.9z M-335.6,54.3v1.5c0,1.8,0.9,2.8,2.2,2.8c1.5,0,2.1-1.2,2.1-2.9
			c0-0.8-0.1-1.2-0.1-1.5H-335.6z M-330.2,52.7c0.2,0.7,0.3,1.9,0.3,3.1c0,1.7-0.3,2.8-1,3.6c-0.5,0.7-1.3,1.1-2.3,1.1
			c-1.3,0-2.4-0.8-2.9-2.2h0c-0.3,1.2-1.3,2.7-3.3,2.7c-1.1,0-2-0.5-2.6-1.1c-0.8-0.9-1.2-2.4-1.2-4.5c0-1.2,0.1-2.1,0.2-2.6H-330.2
			z"/>
	</g>
	<g id="g208" transform="matrix(0,-1,1,0,127.50659,243.08967)">
		<path id="path210" inkscape:connector-curvature="0" fill="#A7A8A8" d="M-171.5-178.8c4.4,0,8,3.6,8,8c0,4.4-3.6,8-8,8
			c-4.4,0-8-3.6-8-8C-179.6-175.2-176-178.8-171.5-178.8"/>
	</g>
</g>
</svg>
