<?xml version="1.0" encoding="utf-8"?>
<!-- Generator: Adobe Illustrator 19.0.0, SVG Export Plug-In . SVG Version: 6.00 Build 0)  -->
<svg version="1.1" baseProfile="tiny" id="Layer_1" xmlns="http://www.w3.org/2000/svg" xmlns:xlink="http://www.w3.org/1999/xlink"
	 x="0px" y="0px" viewBox="0 0 515.8 249.8" xml:space="preserve">
<g>
	<path fill="#282828" d="M258.2,249.8H12c-6.6,0-12-5.4-12-12l0-198c0-6.6,6.8-12.7,13.4-12.7L258.2,5.8h-0.5l244.8,21.3
		c6.6,0,13.4,6.1,13.4,12.7v198c0,6.6-5.4,12-12,12H257.7"/>
	<path fill="#313130" d="M177.6,74.8c0,40.9,35.8,74,80,74s80-33.1,80-74v-67c0-3.8-3.2-7-7-7H184.6c-3.8,0-7,3.2-7,7V74.8z"/>
	<circle fill="#353535" cx="257.7" cy="74.8" r="60"/>
	<circle fill="#383838" cx="257.7" cy="74.8" r="55"/>
	<circle fill="#373737" cx="257.7" cy="74.8" r="50"/>
	<circle fill="#3B3B3B" cx="257.7" cy="74.8" r="45"/>
	<circle fill="#3E3E3E" cx="257.7" cy="74.8" r="40"/>
	<circle fill="#404040" cx="257.7" cy="74.8" r="35"/>
	<circle fill="#434343" cx="257.7" cy="74.8" r="30"/>
	<circle fill="#484848" cx="257.7" cy="74.8" r="25"/>
	<g>
		<g>
			<path fill="#4E4E4E" d="M198.1,66.5c1.8,0,3.7,0,5.5,0c0,0.6,0,1.2,0,1.8c-0.6,0-1.1,0-1.7,0c0,6.5,0,13,0,19.5
				c-0.6,0-1.3,0-1.9,0c0-6.5,0-13,0-19.5c-0.6,0-1.2,0-1.9,0C198.1,67.7,198.1,67.1,198.1,66.5z"/>
			<g>
				<path fill="#4E4E4E" d="M306.6,69.7c2.5-0.4,5.1,0.2,7.1,1.7c1.5,1.1,2.6,2.6,3.2,4.3c0.7,2,0.8,4.2,0.1,6.2
					c-0.6,1.8-1.7,3.3-3.2,4.5c-1.6,1.2-3.7,1.9-5.7,1.9c-3.1,0-6.1-1.6-7.7-4.1c-1.7-2.6-2.1-6-0.8-8.9
					C300.7,72.4,303.5,70.2,306.6,69.7z M301.8,75c0,0.4,0,0.7,0,1.1c0.3,0,0.7,0,1,0c0,2,0,3.9,0,5.9c-0.3,0-0.7,0-1,0
					c0,0.4,0,0.7,0,1.1c1,0,2.1,0,3.1,0c0-0.4,0-0.7,0-1.1c-0.3,0-0.7,0-1,0c0-2.3,0-4.6,0-7C303.3,75,302.5,75,301.8,75z
					 M305.9,75.7c0,2.2,0,4.4,0,6.6c0.2,0.3,0.5,0.5,0.7,0.7c2.3,0,4.7,0,7,0c0.3-0.3,0.8-0.6,0.7-1c0-0.9,0-1.9,0-2.8
					c-0.1-0.3-0.4-0.4-0.6-0.6c-2.3,0-4.5,0-6.8,0c0-0.8,0-1.6,0-2.5c2.1,0,4.3,0,6.4,0c0,0.3,0,0.7,0,1c0.3,0,0.6,0,1,0
					c0-0.5,0-1,0-1.4c-0.2-0.2-0.4-0.4-0.6-0.6c-2.4,0-4.7,0-7.1,0C306.4,75.2,306.2,75.4,305.9,75.7z"/>
			</g>
			<path fill="#4E4E4E" d="M207.4,70.1c0.6,0,1.2,0,1.8,0c0,5.3,0,10.6,0,15.9c0.7,0,1.4,0,2,0c0-5.3,0-10.6,0-15.9
				c0.6,0,1.2,0,1.8,0c0,5.1,0,10.2,0,15.2c0,0.4,0,0.7-0.1,1.1c-0.2,0.8-0.9,1.4-1.7,1.4c-0.7,0-1.5,0-2.2,0c-1,0-1.8-0.9-1.7-1.9
				C207.4,80.7,207.4,75.4,207.4,70.1z"/>
			<g>
				<path fill="#4E4E4E" d="M217.7,70.1c1.3,0,2.5,0,3.8,0c0.9,0,1.8,0.7,1.9,1.6c0,1.9,0,3.9,0,5.8c0,0.8-0.6,1.7-1.4,1.9
					c0.6,2.8,1.2,5.6,1.8,8.4c-0.6,0-1.1,0-1.7,0c-0.6-2.8-1.3-5.5-1.9-8.3c-0.2,0-0.4,0-0.6,0c0,2.8,0,5.5,0,8.3
					c-0.6,0-1.2,0-1.7,0C217.7,81.9,217.7,76,217.7,70.1z M219.5,71.9c0,1.9,0,3.8,0,5.8c0.7,0,1.3,0,2,0c0-1.9,0-3.8,0-5.8
					C220.9,71.9,220.2,71.9,219.5,71.9z"/>
			</g>
			<g>
				<path fill="#4E4E4E" d="M228.3,70.1c1.3,0,2.6,0,4,0c0.8,0,1.6,0.7,1.7,1.5c0,1.9,0,3.7,0,5.6c0,0.5-0.4,0.9-0.7,1.3
					c0.4,0.3,0.7,0.7,0.7,1.2c0.1,0.8,0,1.5,0,2.3c0,1.2,0,2.3,0,3.5c0,0.5,0.1,1-0.2,1.5c-0.3,0.6-0.9,0.9-1.5,0.9
					c-1.3,0-2.6,0-4,0C228.3,81.9,228.3,76,228.3,70.1z M230.2,71.9c0,1.9,0,3.8,0,5.8c0.7,0,1.3,0,2,0c0-1.9,0-3.8,0-5.8
					C231.5,71.9,230.8,71.9,230.2,71.9z M230.2,79.5c0,2.2,0,4.4,0,6.6c0.7,0,1.3,0,2,0c0-2.2,0-4.4,0-6.6
					C231.5,79.5,230.8,79.5,230.2,79.5z"/>
			</g>
			<g>
				<path fill="#4E4E4E" d="M239.8,70.2c0.5-0.2,1.1-0.1,1.7-0.1c0.6,0,1.3-0.1,1.8,0.2c0.6,0.3,1,0.9,1,1.5c0,4.5,0,9.1,0,13.6
					c0,0.4,0,0.8-0.1,1.2c-0.3,0.6-0.8,1.1-1.5,1.2c-0.6,0-1.2,0-1.8,0c-0.4,0-0.7,0-1-0.1c-0.7-0.3-1.3-1-1.3-1.7
					c0-4.5,0-9.1,0-13.6c0-0.4,0-0.7,0.1-1.1C238.9,70.8,239.3,70.4,239.8,70.2z M240.5,71.9c0,4.7,0,9.4,0,14.1c0.6,0,1.3,0,1.9,0
					c0-4.7,0-9.4,0-14.1C241.8,71.9,241.2,71.9,240.5,71.9z"/>
			</g>
			<path fill="#4E4E4E" d="M307,79.5c2.1,0,4.2,0,6.3,0c0,0.8,0,1.6,0,2.4c-2.1,0-4.2,0-6.3,0C307,81.1,307,80.3,307,79.5z"/>
		</g>
		<g>
			<path fill="#4E4E4E" d="M249.5,68.5c0-0.9,0.7-1.8,1.6-1.9c0.7,0,1.5,0,2.2,0c1-0.1,2,0.9,2,1.9c0,1,0,2.1,0,3.1
				c-0.6,0-1.2,0-1.9,0c0-1.1,0-2.1,0-3.2c-0.7,0-1.4,0-2.1,0c0,5.9,0,11.8,0,17.6c0.7,0,1.4,0,2.2,0c0-2.8,0-5.7,0-8.5
				c-0.3,0-0.6,0-0.9,0c0-0.6,0-1.1,0-1.7c0.9,0,1.8,0,2.8,0c0,4,0,8,0,12c-1.3,0-2.6,0-3.9,0c-0.7,0-1.5-0.5-1.8-1.2
				c-0.1-0.4-0.1-0.8-0.1-1.2C249.5,79.8,249.5,74.1,249.5,68.5z"/>
			<g>
				<path fill="#4E4E4E" d="M260.1,70.1c1.2,0,2.4,0,3.7,0c0.8,0,1.5,0.4,1.8,1.1c0.1,0.3,0.1,0.6,0.1,0.8c0,1.9,0,3.7,0,5.6
					c0,0.8-0.6,1.6-1.4,1.7c0.6,2.8,1.2,5.6,1.8,8.4c-0.6,0-1.1,0-1.7,0c-0.6-2.8-1.3-5.5-1.9-8.3c-0.2,0-0.4,0-0.6,0
					c0,2.8,0,5.5,0,8.3c-0.6,0-1.2,0-1.7,0C260.1,81.9,260.1,76,260.1,70.1z M261.9,71.8c0,1.9,0,3.8,0,5.7c0.7,0,1.4,0,2,0
					c0-1.9,0-3.8,0-5.7C263.2,71.8,262.6,71.8,261.9,71.8z"/>
			</g>
			<g>
				<path fill="#4E4E4E" d="M270.5,71.7c0-0.8,0.7-1.6,1.5-1.6c0.8,0,1.6,0,2.4,0c0.4,0,0.8,0.1,1.2,0.4c0.4,0.3,0.6,0.8,0.6,1.3
					c0,5.3,0,10.7,0,16c-0.6,0-1.1,0-1.7,0c0-2.8,0-5.6,0-8.4c-0.7,0-1.4,0-2.1,0c0,2.8,0,5.6,0,8.4c-0.6,0-1.2,0-1.7,0
					C270.5,82.4,270.5,77.1,270.5,71.7z M272.3,71.9c0,1.9,0,3.8,0,5.7c0.7,0,1.4,0,2,0c0-1.9,0-3.8,0-5.7
					C273.6,71.9,272.9,71.9,272.3,71.9z"/>
			</g>
			<path fill="#4E4E4E" d="M280.5,71.6c0-0.8,0.7-1.5,1.5-1.5c1,0,2,0,3,0c0,0.5,0,1,0,1.6c-0.9,0-1.8,0-2.6,0c0,2,0,3.9,0,5.9
				c0.7,0,1.4,0,2.2,0c0,0.6,0,1.2,0,1.7c-0.7,0-1.4,0-2.2,0c0,2.8,0,5.6,0,8.4c-0.6,0-1.2,0-1.8,0C280.5,82.4,280.5,77,280.5,71.6z
				"/>
			<path fill="#4E4E4E" d="M289.3,70.1c0.6,0,1.2,0,1.8,0c0,1.6,0,3.3,0,4.9c0.3,0.5,0.7,1,1,1.5c0.3-0.5,0.7-1,1-1.5
				c0-1.6,0-3.3,0-4.9c0.6,0,1.2,0,1.9,0c0,1.2,0,2.3,0,3.5c0,0.5,0.1,1.1-0.1,1.6c-0.4,1.1-1,2.1-1.6,3.1c0.7,1.1,1.5,2.3,1.8,3.5
				c0,2,0,3.9,0,5.9c-0.6,0-1.1,0-1.7,0c0-2,0-3.9,0-5.9c-0.3-0.6-0.7-1.1-1.1-1.7c-0.4,0.5-0.7,1.1-1.1,1.6c0,2,0,4,0,6
				c-0.6,0-1.2,0-1.8,0c0-1.8,0-3.7,0-5.5c0-0.5,0.2-1,0.4-1.4c0.4-0.9,0.9-1.7,1.5-2.5c-0.7-1.1-1.5-2.2-1.9-3.5
				C289.3,73.3,289.3,71.7,289.3,70.1z"/>
		</g>
	</g>
	<polygon fill="#1D1D1D" points="337.7,27.1 502.4,27.1 337.7,12.7 	"/>
	<path fill="#202020" d="M509.7,29.4h-172v-2.4h164.7C504.9,27.1,507.5,27.9,509.7,29.4"/>
	<path fill="#282828" d="M511.2,30.6H337.7v-1.2h172v0C510.2,29.8,510.7,30.2,511.2,30.6"/>
	<path fill="#303030" d="M511.2,30.6H337.7v1.2c0,0,174.7,0,174.7,0C512,31.4,511.6,31,511.2,30.6"/>
	<path fill="#323232" d="M513.4,33H337.7v-1.2c0,0,174.7,0,174.7,0C512.8,32.2,513.1,32.5,513.4,33"/>
	<path fill="#373737" d="M514.2,34.1H337.7V33h175.7v0C513.7,33.3,513.9,33.7,514.2,34.1"/>
	<path fill="#393939" d="M514.8,35.3H337.7v-1.2h176.5v0C514.4,34.5,514.6,34.9,514.8,35.3"/>
	<path fill="#343434" d="M515.3,36.5H337.7v-1.2h177.1l0,0C515,35.7,515.1,36.1,515.3,36.5"/>
	<path fill="#2F2F2F" d="M515.3,36.5H337.7v1.2c0,0,177.9,0,177.9,0C515.5,37.3,515.4,36.9,515.3,36.5"/>
	<path fill="#2C2C2C" d="M515.6,37.7H337.7v1.2l178.1,0C515.7,38.5,515.7,38.1,515.6,37.7"/>
	<polygon fill="#1D1D1D" points="178.1,27.1 13.4,27.1 178.1,12.7 	"/>
	<path fill="#202020" d="M6.2,29.4h172v-2.4H13.4C10.9,27.1,8.3,27.9,6.2,29.4"/>
	<path fill="#282828" d="M4.6,30.6h173.5v-1.2H6.2v0C5.6,29.8,5.1,30.2,4.6,30.6"/>
	<path fill="#303030" d="M4.6,30.6h173.5v1.2c0,0-174.7,0-174.7,0C3.8,31.4,4.2,31,4.6,30.6"/>
	<path fill="#323232" d="M2.4,33h175.7v-1.2c0,0-174.7,0-174.7,0C3.1,32.2,2.7,32.5,2.4,33"/>
	<path fill="#373737" d="M1.6,34.1h176.5V33H2.4v0C2.1,33.3,1.9,33.7,1.6,34.1"/>
	<path fill="#393939" d="M1,35.3h177.1v-1.2H1.6v0C1.4,34.5,1.2,34.9,1,35.3"/>
	<path fill="#343434" d="M0.6,36.5h177.6v-1.2H1l0,0C0.8,35.7,0.7,36.1,0.6,36.5"/>
	<path fill="#2F2F2F" d="M0.6,36.5h177.6v1.2c0,0-177.9,0-177.9,0C0.3,37.3,0.4,36.9,0.6,36.5"/>
	<path fill="#2C2C2C" d="M0.2,37.7h177.9v1.2L0,38.9C0.1,38.5,0.1,38.1,0.2,37.7"/>
	<path fill="none" stroke="#F9F32D" stroke-miterlimit="10" d="M42,128.3"/>
	<g>
		<path fill="#1A1A1A" d="M72.4,216.3c-25.4,0-46.1-20.7-46.1-46.2S47,124,72.4,124s46.1,20.7,46.1,46.1S97.9,216.3,72.4,216.3z
			 M72.4,126c-24.3,0-44.1,19.8-44.1,44.1c0,24.3,19.8,44.2,44.1,44.2s44.1-19.8,44.1-44.2C116.6,145.8,96.8,126,72.4,126z"/>
	</g>
	<circle fill="#404040" cx="72.4" cy="170.1" r="45.2"/>
	<g>
		<path fill="#4C4C4C" d="M112.2,155.8H86.8v-25.5c0-1.1-0.9-2-2-2H60c-1.1,0-2,0.9-2,2v25.5H32.6c-1.1,0-2,0.9-2,2v24.7
			c0,1.1,0.9,2,2,2h25.5V210c0,1.1,0.9,2,2,2h24.7c1.1,0,2-0.9,2-2v-25.5h25.5c1.1,0,2-0.9,2-2v-24.7
			C114.2,156.7,113.3,155.8,112.2,155.8"/>
		<circle fill="#595959" cx="72.4" cy="170.2" r="10.5"/>
	</g>
	<g>
		<path fill="#1A1A1A" d="M257.7,150c-44.7,0-81-33.6-81-75V8c0-4.4,3.6-8,8-8h146.1c4.4,0,8,3.6,8,8v67
			C338.7,116.4,302.3,150,257.7,150z M184.6,2c-3.3,0-6,2.7-6,6v67c0,40.3,35.5,73,79,73c43.6,0,79-32.7,79-73V8c0-3.3-2.7-6-6-6
			H184.6z"/>
	</g>
	<path fill="#434342" d="M257.7,168.3c54.2,0,98.2-44,98.2-98.2c0-6.6,4.7-12.1,10.5-12.1h97c5.8,0,10.5,5.4,10.5,12.1v96.4l0,0
		c5.4,6.7,8.7,15.3,8.7,24.7c0,21.4-16.9,38.7-37.8,38.7h-187h0.5H103.1c-0.6-0.3-3.7-0.4-4.4-4.1c-0.9-4.1-4.3-5.4,2.8-12.2l0,0
		c14.1-9.5,23.4-25.7,23.2-44c-0.4-28.6-24.2-51.8-52.8-51.5c-9.8,0.1-19,2.9-26.8,7.8c-1.3,0.8-3-0.2-3-1.7l0-53.9
		C42,63.5,46.7,58,52.5,58h97c5.8,0,10.5,5.4,10.5,12.1c0,54.2,44,98.2,98.2,98.2"/>
	<rect x="443.2" y="136.7" fill="#ECF332" width="2.1" height="19.9"/>
	<rect x="386.2" y="136.7" fill="#ECF332" width="2.1" height="19.9"/>
	<rect x="380.2" y="136.7" fill="#ECF332" width="2.1" height="19.9"/>
	<circle fill="#FD5A17" cx="405.3" cy="83.8" r="3.3"/>
	<circle fill="#FD5A17" cx="414.3" cy="83.8" r="3.3"/>
	<circle fill="#FD5A17" cx="423.3" cy="83.8" r="3.3"/>
	<circle fill="#FD5A17" cx="405.3" cy="96.8" r="2.1"/>
	<circle fill="#FD5A17" cx="414.3" cy="96.8" r="2.1"/>
	<circle fill="#FD5A17" cx="423.3" cy="96.8" r="2.1"/>
	<circle fill="#FD5A17" cx="405.3" cy="107.8" r="1"/>
	<circle fill="#FD5A17" cx="414.3" cy="107.8" r="1"/>
	<circle fill="#FD5A17" cx="423.3" cy="107.8" r="1"/>
	<g>
		<g>
			<path fill="#1A1A1A" d="M384.2,215.4c-13,0-23.6-10.6-23.6-23.7s10.6-23.7,23.6-23.7s23.7,10.6,23.7,23.7
				S397.2,215.4,384.2,215.4z M384.2,170.1c-11.9,0-21.6,9.7-21.6,21.7s9.7,21.7,21.6,21.7c11.9,0,21.7-9.7,21.7-21.7
				S396.1,170.1,384.2,170.1z"/>
		</g>
		<circle fill="#2C2C2E" cx="384.2" cy="191.8" r="22.6"/>
		<g>
			<path fill="#1A1A1A" d="M384.2,212C373,212,364,203,364,191.8s9.1-20.3,20.3-20.3s20.3,9.1,20.3,20.3S395.4,212,384.2,212z
				 M384.2,173.5c-10.1,0-18.3,8.2-18.3,18.3s8.2,18.3,18.3,18.3s18.3-8.2,18.3-18.3S394.3,173.5,384.2,173.5z"/>
		</g>
		<circle fill="#41413B" cx="384.2" cy="191.8" r="19.3"/>
	</g>
	<g>
		<g>
			<path fill="#1A1A1A" d="M444.3,215.4c-13,0-23.6-10.6-23.6-23.7s10.6-23.7,23.6-23.7s23.7,10.6,23.7,23.7
				S457.3,215.4,444.3,215.4z M444.3,170.1c-11.9,0-21.6,9.7-21.6,21.7s9.7,21.7,21.6,21.7c11.9,0,21.7-9.7,21.7-21.7
				S456.2,170.1,444.3,170.1z"/>
		</g>
		<circle fill="#2C2C2E" cx="444.3" cy="191.8" r="22.6"/>
		<g>
			<path fill="#1A1A1A" d="M444.3,212c-11.2,0-20.3-9.1-20.3-20.3s9.1-20.3,20.3-20.3s20.3,9.1,20.3,20.3S455.4,212,444.3,212z
				 M444.3,173.5c-10.1,0-18.3,8.2-18.3,18.3s8.2,18.3,18.3,18.3s18.3-8.2,18.3-18.3S454.3,173.5,444.3,173.5z"/>
		</g>
		<circle fill="#41413B" cx="444.3" cy="191.8" r="19.3"/>
	</g>
	<g>
		<g>
			<path fill="#1A1A1A" d="M299.2,205.9h-24.3c-6.5,0-11.8-5.3-11.8-11.8s5.3-11.8,11.8-11.8h24.3c6.5,0,11.8,5.3,11.8,11.8
				S305.7,205.9,299.2,205.9z M274.9,184.4c-5.4,0-9.8,4.4-9.8,9.8s4.4,9.8,9.8,9.8h24.3c5.4,0,9.8-4.4,9.8-9.8s-4.4-9.8-9.8-9.8
				H274.9z"/>
		</g>
		<path fill="#2C2C2E" d="M299.2,204.9h-24.3c-5.9,0-10.7-4.8-10.7-10.7v0c0-5.9,4.8-10.7,10.7-10.7h24.3c5.9,0,10.7,4.8,10.7,10.7
			v0C310,200.1,305.1,204.9,299.2,204.9z"/>
		<g>
			<path fill="#1A1A1A" d="M299.1,202.8H275c-4.8,0-8.6-3.9-8.6-8.6s3.9-8.6,8.6-8.6h24.1c4.8,0,8.6,3.9,8.6,8.6
				S303.9,202.8,299.1,202.8z M275,187.5c-3.7,0-6.6,3-6.6,6.6s3,6.6,6.6,6.6h24.1c3.7,0,6.6-3,6.6-6.6s-3-6.6-6.6-6.6H275z"/>
		</g>
		<path fill="#33322D" d="M299.1,201.8H275c-4.2,0-7.6-3.4-7.6-7.6v0c0-4.2,3.4-7.6,7.6-7.6h24.1c4.2,0,7.6,3.4,7.6,7.6v0
			C306.7,198.4,303.3,201.8,299.1,201.8z"/>
	</g>
	<g>
		<g>
			<path fill="#1A1A1A" d="M240.4,205.9h-24.3c-6.5,0-11.8-5.3-11.8-11.8s5.3-11.8,11.8-11.8h24.3c6.5,0,11.8,5.3,11.8,11.8
				S246.9,205.9,240.4,205.9z M216.1,184.4c-5.4,0-9.8,4.4-9.8,9.8s4.4,9.8,9.8,9.8h24.3c5.4,0,9.8-4.4,9.8-9.8s-4.4-9.8-9.8-9.8
				H216.1z"/>
		</g>
		<path fill="#2C2C2E" d="M240.4,204.9h-24.3c-5.9,0-10.7-4.8-10.7-10.7v0c0-5.9,4.8-10.7,10.7-10.7h24.3c5.9,0,10.7,4.8,10.7,10.7
			v0C251.2,200.1,246.4,204.9,240.4,204.9z"/>
		<g>
			<path fill="#1A1A1A" d="M240.3,202.8h-24.1c-4.8,0-8.6-3.9-8.6-8.6s3.9-8.6,8.6-8.6h24.1c4.8,0,8.6,3.9,8.6,8.6
				S245.1,202.8,240.3,202.8z M216.2,187.5c-3.7,0-6.6,3-6.6,6.6s3,6.6,6.6,6.6h24.1c3.7,0,6.6-3,6.6-6.6s-3-6.6-6.6-6.6H216.2z"/>
		</g>
		<path fill="#33322D" d="M240.3,201.8h-24.1c-4.2,0-7.6-3.4-7.6-7.6v0c0-4.2,3.4-7.6,7.6-7.6h24.1c4.2,0,7.6,3.4,7.6,7.6v0
			C248,198.4,244.5,201.8,240.3,201.8z"/>
	</g>
	<g>
		<path fill="#ECF332" d="M217.2,213.7V211h-1.6v4.4h0.6h0.5c0.5,0,0.8,0,1,0.1c0.2,0,0.4,0.1,0.5,0.3c0.2,0.1,0.3,0.3,0.3,0.4
			c0,0.1,0.1,0.4,0.1,0.8v0.3v3.6v0.4c0,0.6-0.2,1-0.5,1.2c-0.3,0.2-1,0.4-1.8,0.4c-0.8,0-1.4-0.1-1.8-0.4c-0.4-0.2-0.5-0.6-0.5-1.2
			v-0.4v-2.4h1.6v3.3h1.6v-5.4h-0.7H216c-0.5,0-0.8,0-1-0.1c-0.2,0-0.4-0.1-0.6-0.2c-0.2-0.1-0.3-0.3-0.3-0.4c0-0.2-0.1-0.4-0.1-0.8
			v-0.3v-2.6v-0.4c0-0.6,0.2-1,0.5-1.2c0.3-0.2,1-0.4,1.8-0.4c0.5,0,0.8,0,1.1,0.1c0.3,0.1,0.5,0.2,0.7,0.3c0.2,0.1,0.3,0.3,0.4,0.4
			c0.1,0.1,0.1,0.4,0.1,0.7v0.4v1.7H217.2z"/>
		<path fill="#ECF332" d="M224.4,221v0.4c0,0.5-0.2,0.9-0.5,1.1c-0.3,0.2-0.9,0.3-1.7,0.3c-0.8,0-1.4-0.1-1.7-0.3
			c-0.3-0.2-0.5-0.6-0.5-1.2V221v-5.4v-0.4c0-0.5,0.2-0.9,0.5-1.1s0.9-0.3,1.7-0.3c0.8,0,1.4,0.1,1.7,0.3s0.5,0.6,0.5,1.2v0.3v2.8
			h-2.9v3.3h1.5v-2.1h1.5V221z M221.5,217.5h1.5v-2.7h-1.5V217.5z"/>
		<path fill="#ECF332" d="M227.3,210.1v12.7h-1.5v-12.7H227.3z"/>
		<path fill="#ECF332" d="M233,221v0.4c0,0.5-0.2,0.9-0.5,1.1c-0.3,0.2-0.9,0.3-1.7,0.3c-0.8,0-1.4-0.1-1.7-0.3
			c-0.3-0.2-0.5-0.6-0.5-1.2V221v-5.4v-0.4c0-0.5,0.2-0.9,0.5-1.1s0.9-0.3,1.7-0.3c0.8,0,1.4,0.1,1.7,0.3s0.5,0.6,0.5,1.2v0.3v2.8
			h-2.9v3.3h1.5v-2.1h1.5V221z M230.1,217.5h1.5v-2.7h-1.5V217.5z"/>
		<path fill="#ECF332" d="M237.2,216.4v-1.6h-1.5v7h1.5v-2.1h1.5v1.3v0.4c0,0.5-0.2,0.9-0.5,1.1c-0.3,0.2-0.9,0.3-1.7,0.3
			c-0.8,0-1.4-0.1-1.7-0.3c-0.3-0.2-0.5-0.6-0.5-1.2V221v-5.4v-0.4c0-0.3,0-0.6,0.1-0.7c0.1-0.2,0.2-0.3,0.4-0.4
			c0.4-0.2,1-0.3,1.7-0.3c0.8,0,1.4,0.1,1.7,0.3s0.5,0.6,0.5,1.1v0.4v0.8H237.2z"/>
		<path fill="#ECF332" d="M241.7,214.9v6.8h1.4v1h-0.6h-0.5c-0.7,0-1.2-0.1-1.4-0.4c-0.3-0.2-0.4-0.7-0.4-1.3v-0.3v-5.8H239v-1h1.2
			v-2.4h1.5v2.4h1.4v1H241.7z"/>
	</g>
	<g>
		<path fill="#ECF332" d="M280.8,210.1c0.4,0,0.7,0,0.9,0c0.2,0,0.5,0,0.6,0.1s0.3,0.1,0.4,0.1c0.1,0,0.2,0.1,0.3,0.2
			c0.1,0.1,0.2,0.2,0.3,0.2c0.1,0.1,0.1,0.2,0.2,0.3c0,0.1,0.1,0.3,0.1,0.4c0,0.2,0,0.4,0,0.6v2.5v0.2c0,0.3-0.1,0.6-0.2,0.7
			c-0.1,0.2-0.4,0.3-0.8,0.4c0.4,0.1,0.6,0.3,0.8,0.4c0.1,0.2,0.2,0.4,0.2,0.7v0.2v5.5h-1.6v-6.3h-1.6v6.3h-1.6v-12.7H280.8z
			 M280.6,215.4h1.6V211h-1.6V215.4z"/>
		<path fill="#ECF332" d="M288,222.3c-0.5,0.3-1,0.5-1.6,0.5c-0.9,0-1.3-0.4-1.3-1.1v-0.3V221v-7.1h1.5v7.9h1.5v-7.9h1.5v8.8H288
			V222.3z"/>
		<path fill="#ECF332" d="M292.3,214.3c0.5-0.3,1-0.5,1.6-0.5c0.9,0,1.3,0.4,1.3,1.1v0.3v0.4v7.1h-1.5v-7.9h-1.5v7.9h-1.5v-8.8h1.5
			V214.3z"/>
	</g>
	<g>
		<g>
			<path fill="#1A1A1A" d="M395.7,82.6v24.3c0,6.5-5.3,11.8-11.8,11.8s-11.8-5.3-11.8-11.8V82.6c0-6.5,5.3-11.8,11.8-11.8
				S395.7,76.1,395.7,82.6z M374.2,106.9c0,5.4,4.4,9.8,9.8,9.8s9.8-4.4,9.8-9.8V82.6c0-5.4-4.4-9.8-9.8-9.8s-9.8,4.4-9.8,9.8V106.9
				z"/>
		</g>
		<path fill="#2C2C2E" d="M394.7,82.6v24.3c0,5.9-4.8,10.7-10.8,10.7h0c-5.9,0-10.7-4.8-10.7-10.7V82.6c0-5.9,4.8-10.7,10.7-10.7h0
			C389.9,71.8,394.7,76.6,394.7,82.6z"/>
		<g>
			<path fill="#1A1A1A" d="M392.6,82.7v24.1c0,4.8-3.9,8.6-8.6,8.6c-4.8,0-8.6-3.9-8.6-8.6V82.7c0-4.8,3.9-8.6,8.6-8.6
				C388.7,74,392.6,77.9,392.6,82.7z M377.3,106.8c0,3.7,3,6.6,6.6,6.6c3.7,0,6.6-3,6.6-6.6V82.7c0-3.7-3-6.6-6.6-6.6
				c-3.7,0-6.6,3-6.6,6.6V106.8z"/>
		</g>
		<path fill="#30302B" d="M391.6,82.7v24.1c0,4.2-3.4,7.6-7.6,7.6h0c-4.2,0-7.6-3.4-7.6-7.6V82.7c0-4.2,3.4-7.6,7.6-7.6h0
			C388.2,75,391.6,78.5,391.6,82.7z"/>
		<g>
			<path fill="#242420" d="M384,113.5c-3.7,0-6.8-3-6.8-6.8s3-6.8,6.8-6.8s6.8,3,6.8,6.8S387.7,113.5,384,113.5z M384,102
				c-2.6,0-4.8,2.1-4.8,4.8s2.1,4.8,4.8,4.8s4.8-2.1,4.8-4.8S386.6,102,384,102z"/>
		</g>
		<circle fill="#444440" cx="384" cy="106.7" r="5.8"/>
	</g>
	<g>
		<g>
			<path fill="#1A1A1A" d="M456.2,84.6v24.3c0,6.5-5.3,11.8-11.8,11.8s-11.8-5.3-11.8-11.8V84.6c0-6.5,5.3-11.8,11.8-11.8
				S456.2,78.1,456.2,84.6z M434.7,108.9c0,5.4,4.4,9.8,9.8,9.8s9.8-4.4,9.8-9.8V84.6c0-5.4-4.4-9.8-9.8-9.8s-9.8,4.4-9.8,9.8V108.9
				z"/>
		</g>
		<path fill="#2C2C2E" d="M455.2,84.6v24.3c0,5.9-4.8,10.7-10.7,10.7h0c-5.9,0-10.8-4.8-10.8-10.7V84.6c0-5.9,4.8-10.7,10.8-10.7h0
			C450.3,73.8,455.2,78.6,455.2,84.6z"/>
		<g>
			<path fill="#1A1A1A" d="M453.1,84.7v24.1c0,4.8-3.9,8.6-8.6,8.6c-4.8,0-8.6-3.9-8.6-8.6V84.7c0-4.8,3.9-8.6,8.6-8.6
				C449.2,76,453.1,79.9,453.1,84.7z M437.8,108.8c0,3.7,3,6.6,6.6,6.6c3.7,0,6.6-3,6.6-6.6V84.7c0-3.7-3-6.6-6.6-6.6
				c-3.7,0-6.6,3-6.6,6.6V108.8z"/>
		</g>
		<path fill="#30302B" d="M452.1,84.7v24.1c0,4.2-3.4,7.6-7.6,7.6l0,0c-4.2,0-7.6-3.4-7.6-7.6V84.7c0-4.2,3.4-7.6,7.6-7.6l0,0
			C448.6,77,452.1,80.5,452.1,84.7z"/>
		<g>
			<path fill="#242420" d="M444.4,103.5c-3.7,0-6.8-3-6.8-6.8s3-6.8,6.8-6.8s6.8,3,6.8,6.8S448.1,103.5,444.4,103.5z M444.4,92
				c-2.6,0-4.8,2.1-4.8,4.8s2.1,4.8,4.8,4.8s4.8-2.1,4.8-4.8S447,92,444.4,92z"/>
		</g>
		<circle fill="#444440" cx="444.4" cy="96.7" r="5.8"/>
	</g>
	<g>
		<g>
			<path fill="#FD5A17" d="M53.9,70.6h-2.9v24.5h-2.9V70.6h-2.9v-2.1h8.6V70.6z"/>
		</g>
		<g>
			<path fill="#FD5A17" d="M62.7,92.3v0.6c0,0.9-0.3,1.5-1,1.9c-0.6,0.4-1.8,0.5-3.4,0.5c-1.5,0-2.6-0.2-3.3-0.6c-0.6-0.4-1-1-1-1.8
				v-0.6V75.8h2.9v18h2.9v-18h2.9V92.3z"/>
			<path fill="#FD5A17" d="M68.6,75.8c0.7,0,1.2,0,1.7,0c0.5,0,0.8,0,1.2,0.1c0.3,0,0.6,0.1,0.8,0.2c0.2,0.1,0.4,0.2,0.6,0.3
				c0.2,0.1,0.4,0.2,0.6,0.4c0.2,0.1,0.3,0.3,0.3,0.5c0.1,0.2,0.1,0.4,0.2,0.7c0,0.3,0,0.6,0,1v3.9V83c0,0.5-0.2,0.9-0.4,1.1
				c-0.2,0.2-0.7,0.4-1.4,0.6c0.7,0.2,1.2,0.4,1.4,0.6c0.3,0.2,0.4,0.6,0.4,1.1v0.4v8.4h-2.9v-9.7h-2.9v9.7h-2.9V75.8H68.6z
				 M68.3,83.9h2.9v-6.7h-2.9V83.9z"/>
			<path fill="#FD5A17" d="M80,75.8c0.7,0,1.2,0,1.7,0c0.5,0,0.8,0,1.2,0.1c0.3,0,0.6,0.1,0.8,0.2c0.2,0.1,0.4,0.2,0.6,0.3
				c0.2,0.1,0.4,0.2,0.6,0.4c0.2,0.1,0.3,0.3,0.3,0.5c0.1,0.2,0.1,0.4,0.2,0.7c0,0.3,0,0.6,0,1v3.9V83c0,0.5-0.2,0.9-0.4,1.1
				c-0.2,0.2-0.7,0.4-1.4,0.6c0.7,0.2,1.2,0.4,1.4,0.6c0.3,0.2,0.4,0.6,0.4,1.1v0.4v5.4c0,0.4,0,0.7,0,1c0,0.3-0.1,0.5-0.2,0.7
				c-0.1,0.2-0.2,0.3-0.4,0.5s-0.4,0.2-0.7,0.4c-0.2,0.1-0.4,0.2-0.6,0.2C83.2,95,83,95,82.7,95.1c-0.3,0-0.7,0-1.1,0.1
				c-0.4,0-1,0-1.6,0h-3.2V75.8H80z M79.6,83.9h2.9v-6.7h-2.9V83.9z M79.6,93.6h2.9v-8.2h-2.9V93.6z"/>
			<path fill="#FD5A17" d="M96.6,92.3v0.6c0,0.9-0.3,1.6-0.9,1.9c-0.6,0.3-1.7,0.5-3.4,0.5c-1.5,0-2.6-0.2-3.3-0.6
				c-0.6-0.4-1-1-1-1.8v-0.6V78.6c0-0.7,0-1.1,0.1-1.5c0.1-0.3,0.3-0.6,0.6-0.8c0.4-0.3,0.8-0.5,1.4-0.6s1.3-0.2,2.3-0.2
				c1.5,0,2.6,0.2,3.3,0.6c0.7,0.4,1,1,1,1.8l0,0.6V92.3z M90.9,77.2v16.5h2.9V77.2H90.9z"/>
		</g>
		<g>
			<path fill="#ECF332" d="M102.3,68.5c0.7,0,1.2,0,1.7,0c0.5,0,0.8,0.1,1.2,0.1c0.3,0.1,0.6,0.1,0.8,0.2c0.2,0.1,0.4,0.2,0.6,0.4
				c0.2,0.2,0.4,0.3,0.6,0.5c0.2,0.2,0.3,0.4,0.3,0.6c0.1,0.3,0.1,0.6,0.2,0.9c0,0.3,0,0.8,0,1.3v5.1c0,0.6,0,1,0,1.4
				c0,0.4-0.1,0.7-0.2,0.9c-0.1,0.3-0.2,0.5-0.4,0.6c-0.2,0.2-0.4,0.3-0.7,0.5c-0.2,0.1-0.4,0.2-0.6,0.3c-0.2,0.1-0.5,0.1-0.8,0.2
				c-0.3,0-0.7,0.1-1.1,0.1c-0.4,0-1,0-1.6,0H102v13.3h-2.9V68.5H102.3z M102,79.8h2.9v-9.1H102V79.8z"/>
		</g>
		<g>
			<path fill="#ECF332" d="M115.8,95.1V85h-2.9v10.1H110V77.9v-0.6c0-0.9,0.3-1.6,1-2c0.6-0.4,1.8-0.6,3.5-0.6
				c1.6,0,2.7,0.2,3.3,0.6c0.7,0.4,1,1,1,1.9v0.6v17.2H115.8z M115.8,76.4h-2.9v7h2.9V76.4z"/>
			<path fill="#ECF332" d="M124.8,74.9c0.7,0,1.2,0,1.7,0c0.5,0,0.9,0,1.2,0.1c0.3,0.1,0.6,0.1,0.8,0.2c0.2,0.1,0.4,0.2,0.6,0.3
				c0.2,0.1,0.4,0.2,0.6,0.4c0.2,0.1,0.3,0.3,0.3,0.5c0.1,0.2,0.1,0.4,0.2,0.7c0,0.3,0,0.6,0,1V92c0,0.4,0,0.8,0,1
				c0,0.3-0.1,0.5-0.2,0.7c-0.1,0.2-0.2,0.4-0.4,0.5c-0.2,0.1-0.4,0.3-0.7,0.4c-0.2,0.1-0.4,0.2-0.6,0.3c-0.2,0.1-0.5,0.1-0.8,0.2
				c-0.3,0-0.7,0-1.1,0.1c-0.4,0-1,0-1.6,0h-3.3V74.9H124.8z M124.4,93.5h2.9v-17h-2.9V93.5z"/>
		</g>
	</g>
</g>
</svg>
