<?xml version="1.0" encoding="utf-8"?>
<!-- Generator: Adobe Illustrator 19.0.0, SVG Export Plug-In . SVG Version: 6.00 Build 0)  -->
<svg version="1.1" baseProfile="tiny" id="Layer_1" xmlns="http://www.w3.org/2000/svg" xmlns:xlink="http://www.w3.org/1999/xlink"
	 x="0px" y="0px" viewBox="0 0 367 162.5" xml:space="preserve">
<g id="PAD">
	<g id="XMLID_60_">
		<path id="XMLID_61_" fill="#59001D" d="M347,0c0,0,4.6,0-0.6,0c-5.1,0-36.4,0-48.9,0C288.1,0,69.7,0,69.7,0L20,0C9,0,0,9,0,20
			l0,59.3l0,63.2c0,11,9,20,20,20h327c11,0,20-9,20-20V20C367,9,358,0,347,0z"/>
	</g>
	<g id="XMLID_58_">
		<path id="XMLID_59_" fill="#AA1C41" d="M344.9,8H24.5c-11,0-20,9-20,20v113.5c0,11,9,20,20,20h318c11,0,20-9,20-20V28
			C362.5,17,351.8,8,344.9,8z"/>
	</g>
	<g id="XMLID_56_">
		<path id="XMLID_57_" fill="#C0A987" d="M349.1,76.7c0,0-196,0-198.8,0c-2.9,0-2.5-2.8-2.5-2.8V26.7c0-2.2-1.8-4-4-4H19.1
			c-2.2,0-4,1.8-4,4v120c0,2.2,1.8,4,4,4h121.3h3.3h205.3c2.2,0,4-1.8,4-4v-66C353.1,78.5,351.3,76.7,349.1,76.7z"/>
	</g>
	<g id="XMLID_54_">
		<rect id="XMLID_55_" x="15" y="121.5" fill="#414042" width="337.9" height="3"/>
	</g>
	<g id="XMLID_52_">
		<rect id="XMLID_53_" x="15" y="128.7" fill="#414042" width="337.9" height="3"/>
	</g>
	<g id="XMLID_50_">
		<path id="XMLID_51_" fill="#AA1C41" d="M206.1,138h-66c-10.4,0-19-8.5-19-19v0c0-10.4,8.5-19,19-19h66c10.4,0,19,8.5,19,19v0
			C225.1,129.5,216.5,138,206.1,138z"/>
	</g>
	<g id="XMLID_48_">
		<circle id="XMLID_49_" fill="#AA1C41" cx="261.8" cy="118.8" r="21.2"/>
	</g>
	<g id="XMLID_46_">
		<circle id="XMLID_47_" fill="#AA1C41" cx="310.5" cy="118.8" r="21.5"/>
	</g>
	<g id="XMLID_44_">
		<circle id="XMLID_45_" fill="#414042" cx="261.8" cy="118.8" r="18.5"/>
	</g>
	<g id="XMLID_42_">
		<circle id="XMLID_43_" fill="#414042" cx="310.5" cy="118.8" r="18.5"/>
	</g>
	<g id="XMLID_40_">
		<path id="XMLID_41_" fill="#AA1C41" d="M101.3,87.9H83.2V68.6c0-1.1-0.9-2-2-2H52.5c-1.1,0-2,0.9-2,2v19.3H32.3c-1.1,0-2,0.9-2,2
			v26.8c0,1.1,0.9,2,2,2h18.2V138c0,1.1,0.9,2,2,2h28.7c1.1,0,2-0.9,2-2v-19.3h18.2c1.1,0,2-0.9,2-2V89.9
			C103.3,88.8,102.4,87.9,101.3,87.9z"/>
	</g>
	<g id="XMLID_38_">
		<polygon id="XMLID_39_" fill="#414042" points="98.3,92.9 78.2,92.9 78.2,71.6 55.5,71.6 55.5,92.9 35.3,92.9 35.3,113.7 
			55.5,113.7 55.5,135 78.2,135 78.2,113.7 98.3,113.7 		"/>
	</g>
	<g id="XMLID_36_">
		<path id="XMLID_37_" fill="#414042" d="M158.6,123.3h-19.3c-2.5,0-4.5-2-4.5-4.5v0c0-2.5,2-4.5,4.5-4.5h19.3c2.5,0,4.5,2,4.5,4.5
			v0C163.1,121.3,161.1,123.3,158.6,123.3z"/>
	</g>
	<g id="XMLID_34_">
		<path id="XMLID_35_" fill="#414042" d="M206.6,123.3h-19.3c-2.5,0-4.5-2-4.5-4.5v0c0-2.5,2-4.5,4.5-4.5h19.3c2.5,0,4.5,2,4.5,4.5
			v0C211.1,121.3,209.1,123.3,206.6,123.3z"/>
	</g>
	<g id="XMLID_25_">
		<g id="XMLID_32_">
			<path id="XMLID_33_" fill="#414042" d="M264.3,88.4c-0.3-0.1-0.9-0.1-1.8-0.1h-1.7v2.3h1.9c0.7,0,1.2,0,1.4-0.1
				c0.3,0,0.6-0.2,0.8-0.3s0.3-0.4,0.3-0.7c0-0.3-0.1-0.5-0.2-0.7S264.6,88.5,264.3,88.4z"/>
		</g>
		<g id="XMLID_30_">
			<path id="XMLID_31_" fill="#414042" d="M263.6,86.8c0.4,0,0.6-0.1,0.8-0.3c0.2-0.2,0.3-0.4,0.3-0.7c0-0.3-0.1-0.5-0.3-0.6
				c-0.2-0.2-0.4-0.3-0.8-0.3c-0.2,0-0.8,0-1.8,0h-1.2v2h1.4C262.9,86.8,263.4,86.8,263.6,86.8z"/>
		</g>
		<g id="XMLID_26_">
			<path id="XMLID_27_" fill="#414042" d="M267.5,82.1h-11.1c-3.1,0-5.7,2.6-5.7,5.7s2.6,5.7,5.7,5.7h11.1c3.1,0,5.7-2.6,5.7-5.7
				S270.7,82.1,267.5,82.1z M267,90.6c-0.2,0.4-0.5,0.7-0.9,0.9s-0.8,0.4-1.4,0.4c-0.3,0-1.2,0.1-2.5,0.1h-3.5v-8.6h4.1
				c0.8,0,1.4,0,1.8,0.1s0.8,0.2,1.1,0.4s0.6,0.4,0.8,0.7s0.3,0.6,0.3,1c0,0.4-0.1,0.8-0.4,1.1s-0.6,0.6-1.1,0.8
				c0.6,0.2,1.1,0.4,1.4,0.8s0.5,0.8,0.5,1.3C267.3,89.9,267.2,90.3,267,90.6z"/>
		</g>
	</g>
	<g id="XMLID_18_">
		<g id="XMLID_23_">
			<polygon id="XMLID_24_" fill="#414042" points="309.6,88.6 312.4,88.6 311,85.4 			"/>
		</g>
		<g id="XMLID_19_">
			<path id="XMLID_20_" fill="#414042" d="M316,82.1H305c-3.1,0-5.7,2.6-5.7,5.7s2.6,5.7,5.7,5.7H316c3.1,0,5.7-2.6,5.7-5.7
				S319.2,82.1,316,82.1z M313.9,92l-0.9-2H309l-0.8,2h-2.2l4-8.6h2.2l4.1,8.6H313.9z"/>
		</g>
	</g>
	<g id="XMLID_14_">
		<path id="XMLID_15_" fill="#414042" d="M18.9,26v25.3h25.3V26H18.9z M33.3,46.2c0.3,0.1,0.8,0.3,1.5,0.4c0.2,0,0.3,0.2,0.3,0.5
			c0,0.1,0,0.3-0.1,0.5c-0.6,0-1.2-0.1-1.8-0.1c-0.6,0-1.1,0-1.7,0c-0.5,0-1.1,0-1.7,0s-1.2,0.1-1.7,0.1c0-0.2-0.1-0.3-0.1-0.5
			c0-0.3,0.1-0.4,0.3-0.5c0.7-0.1,1.2-0.3,1.5-0.4c0.3-0.2,0.4-0.4,0.4-0.8V31c0-0.4-0.1-0.6-0.4-0.8c-0.3-0.2-0.8-0.3-1.5-0.4
			c-0.1,0-0.2-0.1-0.2-0.2c0-0.1-0.1-0.2-0.1-0.3s0-0.3,0.1-0.5c0.6,0,1.2,0.1,1.8,0.1s1.2,0,1.7,0c0.5,0,1,0,1.6,0
			c0.6,0,1.2-0.1,1.8-0.1c0,0.2,0.1,0.3,0.1,0.5c0,0.3-0.1,0.4-0.3,0.5c-0.7,0.1-1.2,0.3-1.5,0.4c-0.3,0.2-0.4,0.4-0.4,0.8v14.4
			C32.9,45.8,33,46,33.3,46.2z"/>
	</g>
	<g id="XMLID_12_">
		<circle id="XMLID_13_" fill="#282829" cx="66.8" cy="103.3" r="8.9"/>
	</g>
	<g id="XMLID_10_">
		<polygon id="XMLID_11_" points="66.9,75.6 59.6,81.7 61.1,81.7 61.1,88.9 72.7,88.9 72.7,81.7 74,81.7 		"/>
	</g>
	<g id="XMLID_8_">
		<polygon id="XMLID_9_" fill="#282829" points="66.9,75.6 59.6,81.7 61.1,81.7 61.1,88.9 72.7,88.9 72.7,81.7 74,81.7 		"/>
	</g>
	<g id="XMLID_6_">
		<polygon id="XMLID_7_" fill="#282829" points="39.1,103.2 45.2,110.5 45.2,109 52.5,109 52.5,97.4 45.2,97.4 45.2,96.1 		"/>
	</g>
	<g id="XMLID_4_">
		<polygon id="XMLID_5_" fill="#282829" points="66.7,131 74,124.9 72.5,124.9 72.5,117.7 60.9,117.7 60.9,124.9 59.6,124.9 		"/>
	</g>
	<g id="XMLID_2_">
		<polygon id="XMLID_3_" fill="#282829" points="94.5,103.4 88.4,96.1 88.4,97.6 81.2,97.6 81.2,109.2 88.4,109.2 88.4,110.5 		"/>
	</g>
</g>
</svg>
