<?xml version="1.0" encoding="utf-8"?>
<!-- Generator: Adobe Illustrator 19.0.0, SVG Export Plug-In . SVG Version: 6.00 Build 0)  -->
<svg version="1.1" baseProfile="tiny" id="Calque_1"
	 xmlns="http://www.w3.org/2000/svg" xmlns:xlink="http://www.w3.org/1999/xlink" x="0px" y="0px" viewBox="0 0 257.9 151.7"
	 xml:space="preserve">
<g>
	<path id="XMLID_83_" fill="#1B1D1F" d="M130.9,108.4c-1.1-0.1-2.9-0.1-4,0c0,0-7.8,0.4-12.8,1.3c-7.8,1.3-15.5,3.6-22.7,7
		c-9.3,4.4-15.1,12.1-18.9,21.4c-1.6,3.9-3.5,7.5-7.2,9.9c-7.5,4.7-15.1,5-23,1.2c-6.7-3.2-12.2-8.1-17.2-13.5
		C12.9,122.4,4.8,107.1,1.4,89.4c-2.6-13.7-1.7-27,4.8-39.7c4.4-8.6,11.2-14.8,19.1-20c13.7-9,28.6-15.2,44.1-20.1
		c12.8-4.1,25.8-7,39.2-8.4c6.1-0.7,12.3-0.7,18.5-1.1c0.3,0,0.3,0,0.3,0c0.9,0,2.3,0,3.2,0c0,0,0,0,0.3,0
		c6.2,0.4,12.4,0.4,18.5,1.1c13.3,1.5,26.4,4.4,39.2,8.4c15.5,4.9,30.4,11.2,44.1,20.1c7.9,5.2,14.7,11.5,19.1,20
		c6.5,12.6,7.4,26,4.8,39.7c-3.4,17.7-11.6,33-23.7,46.2c-5,5.4-10.5,10.3-17.2,13.5c-7.9,3.8-15.6,3.6-23-1.2
		c-3.7-2.4-5.6-6-7.2-9.9c-3.8-9.3-9.7-16.9-18.9-21.4c-7.2-3.4-14.9-5.7-22.7-7C138.7,108.8,130.9,108.4,130.9,108.4z"/>
	<path id="XMLID_80_" fill="#1B1D1F" d="M96.4,14.1C96.4,14.1,96.4,14.1,96.4,14.1C96.4,14.1,96.4,14.1,96.4,14.1
		C96.4,14.1,96.4,14.1,96.4,14.1C96.4,14.1,96.4,14.1,96.4,14.1z"/>
	<path id="XMLID_78_" fill="#1B1D1F" d="M105.3,13.7C105.3,13.7,105.3,13.7,105.3,13.7C105.3,13.7,105.3,13.7,105.3,13.7
		C105.3,13.7,105.3,13.7,105.3,13.7z"/>
	<path id="XMLID_73_" fill="#1B1D1F" d="M120.2,14.1C120.2,14.1,120.2,14.1,120.2,14.1C120.2,14.1,120.2,14.1,120.2,14.1
		C120.2,14.1,120.2,14.1,120.2,14.1C120.2,14.1,120.2,14.1,120.2,14.1z"/>
	<path id="XMLID_56_" fill="#151515" d="M228.7,39.5c-4.9-0.8-9.6-0.3-14.4,0.3c-21.6,3-39.5,13.3-55,28.2c-6.2,6-9,13.2-7.7,22.1
		c1.8,11.7,12.8,20,24.4,17.7c3.2-0.6,6.3-2.1,9.3-3.6c4.6-2.2,8.9-5,13.6-7.1c11-4.8,22.1-9.4,33.3-13.9c9.9-4,14.7-10.8,14.9-21.5
		C247.2,50.3,239.8,41.2,228.7,39.5z M234,81.5c-0.5,0.3-1,0.5-1.6,0.7c-6.4,2.5-12.9,4.8-19.2,7.6c-9,4-17.8,8.5-26.7,12.9
		c-4.5,2.3-8.9,4.7-14.2,4.7c-10.7-0.1-19.1-8-20.2-18.6c-1-9.3,2.9-16.2,9.4-22c10.2-9.1,21.2-16.9,34.2-21.5
		c6.5-2.3,18.8-5.4,27.2-5.2c5.9-0.3,11.1,1.6,16.3,5.7c4.3,3.4,6.1,9.9,6.6,14.8c0,0.4,0.1,0.7,0.1,1.1
		C246,67.1,245.3,75.2,234,81.5z"/>
	<path id="XMLID_54_" fill="#181A1C" d="M246.1,61.7c0,5.5-0.8,13.5-12.1,19.8c-0.5,0.3-1,0.5-1.6,0.7c-6.4,2.5-12.9,4.8-19.2,7.6
		c-9,4-17.8,8.5-26.7,12.9c-4.5,2.3-8.9,4.7-14.2,4.7c-10.7-0.1-19.1-8-20.2-18.6c-1-9.3,2.9-16.2,9.4-22
		c10.2-9.1,21.2-16.9,34.2-21.5c6.5-2.3,18.8-5.4,27.2-5.2c5.9-0.3,11.1,1.6,16.3,5.7c4.3,3.4,6.1,9.9,6.6,14.8
		C246,60.9,246.1,61.3,246.1,61.7z"/>
	<path id="XMLID_53_" fill="#191919" d="M194.5,37.6c-5.7,2.7-11.5,5.2-17.3,7.7c-0.8,0.3-1.7,0.4-2,0.4c-3.8,0-6.4-2.2-7.1-5.5
		c-0.7-3.2,0.5-5.8,3.7-7.2c5.4-2.4,10.8-4.9,16.2-7.2c4.9-2.1,9.3,0.1,10,4.8C198.4,33.6,197.1,36.4,194.5,37.6z"/>
	<path id="XMLID_52_" fill="#0069B5" d="M193.7,30.1c0.8,1.5,0.5,3.4-1.9,4.4c-5.1,2.4-10.2,4.8-15.3,7.2c-0.5,0.2-1,0.4-1.5,0.5
		c-1.5,0.3-3.1-0.7-3.5-2c-0.5-1.5,0.1-2.6,1.3-3.5c0.4-0.3,11.2-5.1,16.1-7.2C191.6,28.1,193.2,29.1,193.7,30.1z"/>
	<g id="XMLID_28_">
		<path id="XMLID_50_" fill="#A7A6A6" d="M175.2,29.7c-0.2,0.1-0.3,0.1-0.5,0.1c-0.1,0-0.3,0-0.4-0.1c-0.1,0-0.2-0.1-0.3-0.2
			c-0.1-0.1-0.2-0.2-0.2-0.3l0.4-0.2c0,0.1,0.1,0.1,0.2,0.2c0.1,0,0.1,0.1,0.2,0.1c0.1,0,0.1,0,0.2,0c0.1,0,0.2,0,0.2-0.1
			c0.1,0,0.1-0.1,0.2-0.1c0.1,0,0.1-0.1,0.1-0.1c0,0,0-0.1,0.1-0.1c0,0,0-0.1,0-0.1c0,0-0.1-0.1-0.1-0.1s-0.1,0-0.2,0
			c-0.1,0-0.1,0-0.2,0c-0.1,0-0.2,0-0.3,0.1c-0.2,0-0.3,0-0.4,0c-0.1,0-0.2,0-0.3,0c-0.1,0-0.2-0.1-0.2-0.1
			c-0.1-0.1-0.1-0.1-0.2-0.2c0-0.1-0.1-0.2-0.1-0.3c0-0.1,0-0.2,0.1-0.3c0.1-0.1,0.1-0.2,0.2-0.3c0.1-0.1,0.2-0.1,0.3-0.2
			c0.1-0.1,0.3-0.1,0.4-0.1c0.1,0,0.3,0,0.4,0c0.1,0,0.2,0.1,0.3,0.2c0.1,0.1,0.2,0.2,0.2,0.3l-0.4,0.2c-0.1-0.3-0.4-0.3-0.7-0.2
			c-0.1,0.1-0.2,0.1-0.3,0.2s-0.1,0.2,0,0.3c0,0,0,0.1,0.1,0.1c0,0,0.1,0,0.1,0c0,0,0.1,0,0.2,0c0.1,0,0.1,0,0.2,0
			c0.1,0,0.2,0,0.2,0c0.1,0,0.2,0,0.3,0c0.1,0,0.2,0,0.2,0c0.1,0,0.2,0,0.2,0.1c0.1,0,0.1,0.1,0.2,0.1c0.1,0.1,0.1,0.1,0.1,0.2
			c0,0.1,0.1,0.2,0.1,0.3c0,0.1,0,0.2-0.1,0.3c-0.1,0.1-0.1,0.2-0.2,0.3C175.4,29.6,175.3,29.7,175.2,29.7z"/>
		<path id="XMLID_48_" fill="#A7A6A6" d="M177.5,26.4l-0.7,0.3l0.8,2l-0.5,0.2l-0.8-2l-0.7,0.3l-0.2-0.4l1.9-0.8L177.5,26.4z"/>
		<path id="XMLID_42_" fill="#A7A6A6" d="M180.7,27.3l-0.5,0.2l-0.6-0.6l-0.8,0.4l0,0.8l-0.5,0.2l-0.1-2.8l0.4-0.2L180.7,27.3z
			 M179.4,26.6l-0.6-0.6l0,0.9L179.4,26.6z"/>
		<path id="XMLID_31_" fill="#A7A6A6" d="M183.1,26.3l-0.5,0.2l-0.5-0.6c0,0-0.1-0.1-0.1-0.1c0,0-0.1,0-0.1-0.1c0,0-0.1,0-0.1,0
			c-0.1,0-0.1,0-0.2,0L181,26l0.4,1l-0.4,0.2l-1-2.4l1.1-0.5c0.1,0,0.1-0.1,0.2-0.1c0.1,0,0.1,0,0.2-0.1c0.1,0,0.1,0,0.2,0
			c0.1,0,0.1,0,0.2,0c0.1,0,0.1,0,0.2,0.1c0,0,0.1,0.1,0.1,0.1c0,0,0.1,0.1,0.1,0.1c0,0,0.1,0.1,0.1,0.1c0.1,0.1,0.1,0.3,0.1,0.4
			c0,0.1-0.1,0.3-0.2,0.4c0.1,0,0.3,0.1,0.4,0.3L183.1,26.3z M180.9,25.6l0.6-0.3c0.1,0,0.1-0.1,0.2-0.1c0.1,0,0.1-0.1,0.1-0.1
			c0,0,0-0.1,0-0.1c0,0,0-0.1,0-0.2c0-0.1-0.1-0.2-0.2-0.2c-0.1,0-0.2,0-0.3,0.1l-0.6,0.3L180.9,25.6z"/>
		<path id="XMLID_29_" fill="#A7A6A6" d="M184.4,23.4l-0.7,0.3l0.8,2l-0.5,0.2l-0.8-2l-0.7,0.3l-0.2-0.4l1.9-0.8L184.4,23.4z"/>
	</g>
	<path fill="#191919" d="M97.4,70.2c0,22-17.8,39.8-39.7,39.8S17.9,92.2,17.9,70.2s17.8-39.8,39.7-39.8S97.4,48.2,97.4,70.2z
		 M57.6,37.9c-17.8,0-32.2,14.5-32.2,32.3s14.4,32.3,32.2,32.3S89.9,88,89.9,70.2S75.4,37.9,57.6,37.9z"/>
	<g>
		<polygon fill="#A4A4A4" points="57.6,31 54.8,37.2 60.5,37.2 		"/>
		<circle fill="#A4A4A4" cx="31.5" cy="45.8" r="1.3"/>
		<circle fill="#A4A4A4" cx="83.7" cy="45.8" r="1.3"/>
		<circle fill="#A4A4A4" cx="83.7" cy="94.6" r="1.3"/>
		<circle fill="#A4A4A4" cx="31.5" cy="94.6" r="1.3"/>
		<polygon fill="#A4A4A4" points="18.4,70.2 24.6,73 24.6,67.4 		"/>
		<polygon fill="#A4A4A4" points="57.6,109.4 60.5,103.2 54.8,103.2 		"/>
		<polygon fill="#A4A4A4" points="96.8,70 90.6,67.2 90.6,72.9 		"/>
	</g>
	<path fill="#151617" d="M231.5,77.3c-8,3.2-16.1,6.1-23.9,9.6c-8.3,3.7-16.4,8-24.5,12.2c-6.3,3.2-8.4,3-13.2,2.2
		c-3.5-0.6-9-4-11.2-8.6c-1.2-2.5-1.7-5.4-1.5-8.2c0.6-6.4,3.9-10.1,8.1-12.8c15.3-10,31.9-17.3,49-23.5c2.9-1.1,6-2.3,9-2.7
		c10.1-1.4,18.3,5.7,18.7,15.9C242.2,69.2,238.8,74.4,231.5,77.3z"/>
	<circle fill="#121212" cx="200.3" cy="72.6" r="11.5"/>
	<circle fill="#262626" cx="200.3" cy="72.6" r="9.9"/>
	<path id="XMLID_12_" fill="#EE3724" d="M202.6,71.4c0.2-0.2,0.3-0.6,0.1-1l-0.2-0.4c-0.4-0.8-1-0.9-1.8-0.5l-4,1.9l0.3,0.7l1.4,3
		l0.4,0.7l4-1.9c0.9-0.4,1.1-1,0.8-1.8l-0.2-0.4C203.2,71.5,203,71.4,202.6,71.4z M202.5,73.2l-0.5,0.2l-2.8,1.3l-0.5-1.1l2.8-1.3
		l0.5-0.2c0.3-0.2,0.6,0,0.8,0.3C202.9,72.8,202.9,73.1,202.5,73.2z M201.6,71.3l-3.3,1.5l-0.5-1.1l3.3-1.5c0.3-0.2,0.6,0,0.8,0.3
		C202.1,70.9,202,71.2,201.6,71.3z"/>
	<circle fill="#191919" cx="202.9" cy="77.9" r="1.1"/>
	<circle fill="#121212" cx="174" cy="85.6" r="11.5"/>
	<circle fill="#262626" cx="174" cy="85.6" r="9.9"/>
	<path id="XMLID_9_" fill="#EE3724" d="M178.2,85.1l-0.9,0.4l-1.4-0.9l-3.2,1.5l-0.1,1.6l-0.9,0.4l0.5-5.7l1.3-0.6L178.2,85.1z
		 M175.3,84.1l-1.9-1.3l-0.6,0.3l-0.1,2.2L175.3,84.1z"/>
	<circle fill="#121212" cx="226.4" cy="61.7" r="11.5"/>
	<circle fill="#262626" cx="226.4" cy="61.7" r="9.9"/>
	<path id="XMLID_8_" fill="#EE3724" d="M227.6,59.9l-1.9,0.8c-1.3,0.5-1,1-0.5,2c0.4,1,0.5,1.6,1.8,1.1l3.4-1.4l0.3,0.8l-3.4,1.4
		c-1.8,0.7-2.2,0-2.9-1.5c-0.6-1.5-0.8-2.4,1-3.1l3.4-1.4l0.3,0.8L227.6,59.9z"/>
	<g>
		<path fill="#A7A6A6" d="M183.9,55.1l-0.9,0.4l1.1,2.5l-0.6,0.3l-1.1-2.5l-0.9,0.4l-0.2-0.5l2.4-1.1L183.9,55.1z"/>
		<path fill="#A7A6A6" d="M188.1,56.2l-0.6,0.3l-0.7-0.7c0,0-0.1-0.1-0.2-0.1c-0.1,0-0.1-0.1-0.2-0.1c-0.1,0-0.1,0-0.2,0
			c-0.1,0-0.1,0-0.2,0l-0.6,0.3l0.6,1.2l-0.6,0.3l-1.4-3l1.3-0.6c0.1,0,0.2-0.1,0.2-0.1c0.1,0,0.1-0.1,0.2-0.1c0.1,0,0.1,0,0.2,0
			c0.1,0,0.1,0,0.2,0c0.1,0,0.1,0,0.2,0.1c0.1,0,0.1,0.1,0.2,0.1c0,0,0.1,0.1,0.1,0.2c0,0.1,0.1,0.1,0.1,0.2
			c0.1,0.2,0.1,0.4,0.1,0.5c0,0.2-0.1,0.3-0.2,0.5c0.2,0,0.3,0.1,0.5,0.3L188.1,56.2z M185.2,55.4L186,55c0.1,0,0.2-0.1,0.2-0.1
			c0.1,0,0.1-0.1,0.1-0.1s0-0.1,0-0.2c0-0.1,0-0.1-0.1-0.2c-0.1-0.1-0.1-0.2-0.3-0.2c-0.1,0-0.3,0-0.4,0.1l-0.8,0.4L185.2,55.4z"/>
		<path fill="#A7A6A6" d="M189.2,55.6l-0.6,0.3l-1.4-3l0.6-0.3L189.2,55.6z"/>
		<path fill="#A7A6A6" d="M191.2,54.8c-0.2,0.1-0.4,0.2-0.6,0.2c-0.2,0-0.4,0-0.6-0.1c-0.2-0.1-0.4-0.2-0.5-0.4s-0.3-0.4-0.4-0.6
			c-0.1-0.2-0.2-0.5-0.2-0.7s0-0.4,0.1-0.6c0.1-0.2,0.2-0.4,0.3-0.5c0.1-0.2,0.3-0.3,0.5-0.4c0.2-0.1,0.4-0.1,0.5-0.2
			c0.2,0,0.3,0,0.5,0c0.2,0,0.3,0.1,0.4,0.2c0.1,0.1,0.2,0.2,0.3,0.4l-0.6,0.3c-0.1-0.1-0.1-0.2-0.2-0.2s-0.2-0.1-0.2-0.1
			s-0.2,0-0.3,0c-0.1,0-0.2,0-0.3,0.1c-0.1,0.1-0.2,0.1-0.3,0.2s-0.1,0.2-0.2,0.3c0,0.1,0,0.3,0,0.4c0,0.1,0.1,0.3,0.1,0.5
			c0.1,0.2,0.2,0.3,0.3,0.4c0.1,0.1,0.2,0.2,0.3,0.2s0.2,0.1,0.4,0.1s0.3,0,0.4-0.1c0.2-0.1,0.3-0.2,0.4-0.3
			c0.1-0.1,0.2-0.3,0.2-0.4l-0.1-0.3l-0.7,0.3l-0.2-0.5l1.3-0.6l0.7,1.6l-0.4,0.2l-0.2-0.2c-0.1,0.1-0.2,0.3-0.3,0.4
			C191.5,54.6,191.4,54.7,191.2,54.8z"/>
		<path fill="#A7A6A6" d="M194.6,53.2c-0.2,0.1-0.4,0.2-0.6,0.2s-0.4,0-0.6-0.1c-0.2-0.1-0.4-0.2-0.5-0.4c-0.2-0.2-0.3-0.4-0.4-0.6
			c-0.1-0.2-0.2-0.5-0.2-0.7c0-0.2,0-0.4,0.1-0.6c0.1-0.2,0.2-0.4,0.3-0.5c0.1-0.2,0.3-0.3,0.5-0.4c0.2-0.1,0.4-0.1,0.5-0.2
			c0.2,0,0.3,0,0.5,0c0.2,0,0.3,0.1,0.4,0.2c0.1,0.1,0.2,0.2,0.3,0.4l-0.6,0.3c-0.1-0.1-0.1-0.2-0.2-0.2c-0.1-0.1-0.1-0.1-0.2-0.1
			s-0.2,0-0.3,0c-0.1,0-0.2,0-0.3,0.1c-0.1,0.1-0.2,0.1-0.3,0.2s-0.1,0.2-0.2,0.3s0,0.3,0,0.4c0,0.1,0.1,0.3,0.1,0.5
			c0.1,0.2,0.2,0.3,0.3,0.4c0.1,0.1,0.2,0.2,0.3,0.2c0.1,0.1,0.2,0.1,0.4,0.1s0.3,0,0.4-0.1c0.2-0.1,0.3-0.2,0.4-0.3
			c0.1-0.1,0.2-0.3,0.2-0.4l-0.1-0.3l-0.7,0.3l-0.2-0.5l1.3-0.6l0.7,1.6l-0.4,0.2l-0.2-0.2c-0.1,0.1-0.2,0.3-0.3,0.4
			C194.9,53,194.7,53.1,194.6,53.2z"/>
		<path fill="#A7A6A6" d="M198.9,51.2l-2.3,1.1l-1.4-3l2.2-1l0.2,0.5l-1.7,0.8l0.3,0.7l1.6-0.7l0.2,0.5l-1.6,0.7l0.4,0.8l1.7-0.8
			L198.9,51.2z"/>
		<path fill="#A7A6A6" d="M202,49.7l-0.6,0.3l-0.7-0.7c0,0-0.1-0.1-0.2-0.1c-0.1,0-0.1-0.1-0.2-0.1c-0.1,0-0.1,0-0.2,0
			s-0.1,0-0.2,0.1l-0.6,0.3l0.6,1.2l-0.6,0.3l-1.4-3l1.3-0.6c0.1,0,0.2-0.1,0.2-0.1s0.1-0.1,0.2-0.1c0.1,0,0.1,0,0.2,0
			c0.1,0,0.1,0,0.2,0c0.1,0,0.1,0,0.2,0.1c0.1,0,0.1,0.1,0.2,0.1c0.1,0,0.1,0.1,0.1,0.2c0,0.1,0.1,0.1,0.1,0.2
			c0.1,0.2,0.1,0.4,0.1,0.5c0,0.2-0.1,0.3-0.2,0.5c0.2,0,0.3,0.1,0.5,0.3L202,49.7z M199.2,48.9l0.7-0.3c0.1,0,0.2-0.1,0.2-0.1
			c0.1,0,0.1-0.1,0.1-0.1c0-0.1,0-0.1,0-0.2c0-0.1,0-0.1-0.1-0.2c-0.1-0.1-0.1-0.2-0.3-0.2c-0.1,0-0.3,0-0.4,0.1l-0.8,0.4
			L199.2,48.9z"/>
	</g>
	<ellipse fill="#1B1D1F" cx="57.7" cy="70" rx="32.2" ry="32.3"/>
	<path id="XMLID_45_" fill="#0A0A0A" d="M32.6,70.1c0-14,11.2-25,25.2-25c13.7,0,25,11.3,25,25.1c0,13.9-11.4,25.2-25.2,25.2
		C43.8,95.3,32.6,84,32.6,70.1z M57.7,46.4C44.4,46.4,34,56.7,34,70c-0.1,13.4,10.4,23.9,23.6,23.9c13.3,0,23.8-10.5,23.8-23.8
		C81.4,57,70.9,46.5,57.7,46.4z"/>
	<path id="XMLID_81_" fill="#313336" d="M57.6,46.3c-13.3,0-23.7,10.3-23.8,23.6c-0.1,13.4,10.4,23.9,23.6,23.9
		c13.3,0,23.8-10.5,23.8-23.8C81.4,56.8,70.8,46.3,57.6,46.3z"/>
	<polygon fill="#242629" points="43.1,54.9 44.8,58.6 46.8,56.7 	"/>
	<polygon fill="#242629" points="43.1,84.8 46.8,83 44.8,81.1 	"/>
	<polygon fill="#242629" points="72.9,84.9 71.1,81.2 69.2,83.1 	"/>
	<polygon fill="#242629" points="73.1,55.1 69.5,56.8 71.4,58.8 	"/>
	<path id="XMLID_23_" fill="#181818" d="M79.7,70.2c0,1.1,0,2.1,0,3.2c-0.1,1.6-0.9,2.4-2.5,2.5c-2.1,0.2-4.3,0.4-6.4,0.8
		c-3.6,0.8-5.9,3.2-6.7,6.8c-0.4,2-0.6,4-0.8,6c-0.2,2.2-0.6,2.8-2.8,2.9c-1,0-1.9,0.1-2.9,0.1c-1,0-1.9,0-2.9-0.1
		c-2.1-0.1-2.6-0.7-2.8-2.9c-0.2-2-0.4-4-0.8-6c-0.8-3.6-3.1-5.9-6.7-6.8c-2.1-0.5-4.2-0.7-6.4-0.8c-1.6-0.1-2.5-0.9-2.5-2.5
		c0-1.1,0-2.1,0-3.2c0-1.1,0-2.1,0-3.2c0.1-1.6,0.9-2.4,2.5-2.5c2.1-0.2,4.3-0.4,6.4-0.8c3.6-0.8,5.9-3.2,6.7-6.8c0.4-2,0.6-4,0.8-6
		c0.2-2.2,0.6-2.8,2.8-2.9c1,0,1.9-0.1,2.9-0.1c1,0,1.9,0,2.9,0.1c2.1,0.1,2.6,0.7,2.8,2.9c0.2,2,0.4,4,0.8,6
		c0.8,3.6,3.1,5.9,6.7,6.8c2.1,0.5,4.2,0.7,6.4,0.8c1.6,0.1,2.5,0.9,2.5,2.5C79.7,68.1,79.7,69.1,79.7,70.2z"/>
	<g>
		<rect x="36.6" y="65.5" fill="#212121" width="41.9" height="9.4"/>
		<rect x="52.9" y="49.2" fill="#212121" width="9.4" height="41.9"/>
	</g>
	<circle id="XMLID_22_" fill="#151617" cx="57.6" cy="70.2" r="4.6"/>
	<g id="SEGA_1_">
		<path id="XMLID_724_" fill="#A7A6A6" d="M143.9,68.3c-1.6,0-3.2,0-4.8,0c0-0.4,0-0.7,0-1.1c1,0,2.1,0,3.3,0
			c-0.2-0.7-0.4-1.3-0.6-1.9c-0.5-1.5-0.9-2.9-1.4-4.4c-0.1-0.4-0.5-0.8-0.8-0.9c-0.5-0.1-0.7,0.4-0.8,0.9c-0.7,2.2-1.5,4.5-2.2,6.7
			c-0.2,0.5-0.4,0.7-0.9,0.7c-1.5,0-2.9,0-4.4,0c-1.5,0-2.5-1-2.5-2.5c0-1.4,0-2.8,0-4.2c0-1.6,1-2.5,2.5-2.5c1.3,0,2.6,0,4,0
			c0,0.4,0,0.7,0,1.2c-1.1,0-2.3,0-3.4,0c-1.6,0-2,0.4-2,2.1c0,1,0,2.1,0,3.1c0,1.1,0.5,1.7,1.6,1.7c0.9,0,1.7,0,2.6,0
			c0-1.2,0-2.4,0-3.7c-0.7,0-1.4,0-2.2,0c0-0.4,0-0.8,0-1.1c1.1,0,2.2,0,3.4,0c0,1.6,0,3.2,0,4.8c0.1,0,0.1,0,0.2,0
			c0.7-2.2,1.4-4.4,2.2-6.6c0.4-1.3,1.2-1.8,2.4-1.6c0.7,0.1,1.2,0.5,1.4,1.2c0.9,2.7,1.7,5.3,2.6,8C144,68.2,144,68.2,143.9,68.3z"
			/>
		<path id="XMLID_723_" fill="#A7A6A6" d="M114,68.3c0-0.4,0-0.7,0-1.2c1.3,0,2.5,0,3.8,0c1,0,1.8-0.8,1.9-1.8c0-1-0.7-1.8-1.8-1.9
			c-0.4,0-0.8,0-1.3,0c-0.6-0.1-1.1-0.7-1.1-1.4c0-0.7,0.5-1.3,1.1-1.4c1.4,0,2.7,0,4.1,0c0,0.4,0,0.7,0,1.2c-0.7,0-1.4,0-2.1,0
			c-0.6,0-1.3,0-1.9,0c0,0.1,0,0.3,0,0.4c0.4,0,0.8,0,1.2,0c1.4,0,2.5,0.9,2.9,2.3c0.4,1.7-0.8,3.6-2.5,3.7
			C116.8,68.4,115.4,68.3,114,68.3z"/>
		<path id="XMLID_722_" fill="#A7A6A6" d="M114,66.7c0-0.4,0-0.7,0-1.2c1.4,0,2.7,0,4,0c0-0.1,0-0.2,0-0.3c-0.4,0-0.8,0-1.2,0
			c-1.2,0-2-0.6-2.5-1.6c-0.5-1.1-0.4-2.2,0.2-3.2c0.5-0.7,1.1-1.1,1.9-1.2c1.4,0,2.8,0,4.3,0c0,0.4,0,0.7,0,1.2c-1.3,0-2.5,0-3.8,0
			c-1.3,0-2.1,1.2-1.7,2.4c0.2,0.7,0.9,1.2,1.7,1.2c0.4,0,0.8,0,1.2,0c0.6,0.1,1.1,0.7,1.1,1.4c0,0.7-0.5,1.4-1.1,1.4
			C116.8,66.7,115.4,66.7,114,66.7z"/>
		<path id="XMLID_721_" fill="#A7A6A6" d="M128.1,59.2c0,0.4,0,0.7,0,1.1c-1.3,0-2.5,0-3.8,0c-1.3,0-1.8,0.5-1.8,1.8
			c0,1.1,0,2.2,0,3.3c0,1.3,0.5,1.8,1.7,1.8c1.3,0,2.5,0,3.8,0c0,0.4,0,0.7,0,1.2c-0.9,0-1.9,0-2.8,0c-0.6,0-1.2,0-1.7,0
			c-1.1-0.1-2-1.1-2.1-2.2c0-1.6,0-3.2,0-4.8c0-1,0.9-2.1,1.9-2.1C125,59.1,126.5,59.2,128.1,59.2z"/>
		<path id="XMLID_718_" fill="#A7A6A6" d="M136.7,68.3c0.8-2.5,1.6-5,2.4-7.4c0.1-0.2,0.2-0.4,0.4-0.4c0.1,0,0.3,0.2,0.4,0.3
			c0.7,2,1.3,3.9,2,6c-1,0-1.8,0-2.7,0c0-0.3-0.1-0.5-0.1-0.8c0,0-0.1,0-0.1,0c-0.2,0.5-0.3,0.9-0.5,1.4
			C138.1,68.4,138.1,68.4,136.7,68.3z M139.1,65.4c0.3,0,0.6,0,1,0c-0.1-0.5-0.3-0.9-0.4-1.3c-0.1,0-0.1,0-0.2,0
			C139.4,64.5,139.2,64.9,139.1,65.4z"/>
		<path id="XMLID_717_" fill="#A7A6A6" d="M132.7,65.3c-0.4-0.1-0.6-0.2-0.8-0.2c0-0.3,0-0.6,0-1c0.6,0,1.2,0,1.8,0
			c0,0.9,0,1.8,0,2.7c-0.9,0-1.8,0.1-2.7,0c-0.2,0-0.6-0.5-0.6-0.7c-0.1-1.5,0-2.9,0-4.4c0-0.5,0.3-0.8,0.8-0.8c1.3,0,2.7,0,4.1,0
			c0,0.4,0,0.7,0,1.2c-1,0-2,0-3,0c-0.6,0-0.8,0.2-0.8,0.8c0,0.7,0,1.4,0,2C131.4,65.6,131.8,65.8,132.7,65.3z"/>
		<path id="XMLID_359_" fill="#A7A6A6" d="M124.2,65.5c1.3,0.2,2.6,0,3.9,0.1c0,0.4,0,0.7,0,1.1c-1.5,0-2.9,0-4.4,0
			c-0.2,0-0.6-0.5-0.6-0.8c-0.1-0.6,0-1.2,0-1.9c1.4,0,2.7,0,4.1,0c0,0.3,0,0.7,0,1.1c-1,0-1.9,0-2.9,0
			C124.3,65.2,124.3,65.3,124.2,65.5z"/>
		<path id="XMLID_358_" fill="#A7A6A6" d="M128.1,60.8c0,0.4,0,0.7,0,1.1c-1.3,0.2-2.6-0.1-3.9,0.2c0,0.1,0,0.2,0,0.3
			c1,0,1.9,0,2.9,0c0,0.4,0,0.8,0,1.1c-1.3,0-2.7,0-4.1,0c0-0.7-0.1-1.4,0-2.1c0-0.2,0.4-0.6,0.6-0.6
			C125.2,60.7,126.6,60.8,128.1,60.8z"/>
	</g>
	<g>
		<g>
			<path fill="#A7A6A6" d="M88.4,13.4c0-0.1-0.1-0.2-0.1-0.2c-0.1-0.1-0.1-0.1-0.2-0.1S88,13,87.9,13c-0.1,0-0.2,0-0.3,0
				c-0.1,0-0.2,0.1-0.3,0.1s-0.2,0.2-0.2,0.3C87,13.5,87,13.6,87,13.8s0,0.3,0,0.4c0,0.2,0.1,0.3,0.2,0.4c0.1,0.1,0.1,0.2,0.2,0.3
				c0.1,0.1,0.2,0.1,0.3,0.1c0.1,0,0.2,0,0.4,0c0.1,0,0.2-0.1,0.2-0.1s0.1-0.1,0.2-0.2s0.1-0.1,0.1-0.2s0-0.2,0-0.3
				c0.2-0.1,0.3-0.1,0.6-0.1c0,0.2,0,0.3,0,0.5c0,0.1-0.1,0.3-0.2,0.4c-0.1,0.1-0.2,0.2-0.3,0.3c-0.1,0.1-0.3,0.1-0.4,0.2
				c-0.2,0-0.4,0.1-0.6,0c-0.2,0-0.4-0.1-0.5-0.2c-0.1-0.1-0.3-0.2-0.4-0.4s-0.2-0.4-0.2-0.6c-0.1-0.2-0.1-0.4,0-0.6
				c0-0.2,0.1-0.4,0.2-0.5c0.1-0.2,0.2-0.3,0.4-0.4c0.2-0.1,0.3-0.2,0.6-0.2c0.2,0,0.3,0,0.5,0s0.3,0.1,0.4,0.1
				c0.1,0.1,0.2,0.2,0.3,0.3c0.1,0.1,0.2,0.2,0.2,0.4C88.8,13.3,88.7,13.4,88.4,13.4z"/>
			<path fill="#A7A6A6" d="M90.7,11.8c0.2,0,0.4,0,0.6,0c0.2,0,0.4,0.1,0.5,0.2c0.2,0.1,0.3,0.2,0.4,0.4c0.1,0.2,0.2,0.4,0.2,0.6
				c0,0.2,0.1,0.4,0,0.6c0,0.2-0.1,0.4-0.2,0.5c-0.1,0.2-0.2,0.3-0.4,0.4c-0.2,0.1-0.3,0.2-0.5,0.2c-0.2,0-0.4,0-0.6,0
				s-0.4-0.1-0.5-0.2c-0.2-0.1-0.3-0.2-0.4-0.4c-0.1-0.2-0.2-0.4-0.2-0.6c0-0.2-0.1-0.4,0-0.6c0-0.2,0.1-0.4,0.2-0.5
				c0.1-0.2,0.2-0.3,0.4-0.4C90.3,12,90.5,11.9,90.7,11.8z M91.2,14.3c0.1,0,0.2-0.1,0.3-0.1c0.1-0.1,0.2-0.2,0.2-0.3
				c0.1-0.1,0.1-0.2,0.1-0.4c0-0.1,0-0.3,0-0.4c0-0.2-0.1-0.3-0.2-0.4c-0.1-0.1-0.2-0.2-0.2-0.3s-0.2-0.1-0.3-0.1s-0.2,0-0.4,0
				c-0.1,0-0.2,0.1-0.3,0.1c-0.1,0.1-0.2,0.2-0.2,0.3c-0.1,0.1-0.1,0.2-0.1,0.4s0,0.3,0,0.4c0,0.2,0.1,0.3,0.2,0.4
				c0.1,0.1,0.2,0.2,0.2,0.3s0.2,0.1,0.3,0.1C90.9,14.4,91.1,14.4,91.2,14.3z"/>
			<path fill="#A7A6A6" d="M96.1,13.8c-0.2,0-0.3,0.1-0.5,0.1c-0.1-0.7-0.2-1.1-0.4-1.9c-0.1,0.8-0.2,1.2-0.3,2
				c-0.2,0-0.3,0.1-0.5,0.1c-0.4-0.7-0.6-1-1-1.7c0.1,0.7,0.2,1.1,0.4,1.9c-0.2,0-0.3,0.1-0.5,0.1c-0.2-1.2-0.4-1.7-0.6-2.9
				c0.3-0.1,0.4-0.1,0.7-0.1c0.4,0.8,0.7,1.2,1.1,1.9c0.1-0.9,0.2-1.3,0.3-2.2c0.3-0.1,0.4-0.1,0.7-0.1
				C95.8,12.1,95.9,12.7,96.1,13.8z"/>
			<path fill="#A7A6A6" d="M96.3,10.8c0.5-0.1,0.7-0.1,1.2-0.2c0.1,0,0.2,0,0.3,0c0.1,0,0.2,0,0.3,0s0.2,0,0.3,0.1
				c0.1,0,0.2,0.1,0.2,0.1s0.1,0.1,0.2,0.2s0.1,0.2,0.1,0.3c0.1,0.3,0,0.6-0.2,0.7s-0.4,0.3-0.8,0.4c-0.2,0-0.4,0.1-0.6,0.1
				c0.1,0.4,0.1,0.7,0.2,1.1c-0.2,0-0.3,0.1-0.6,0.1C96.6,12.5,96.5,11.9,96.3,10.8z M97.1,12c0.2,0,0.4-0.1,0.6-0.1
				c0.1,0,0.2,0,0.3-0.1c0.1,0,0.1-0.1,0.2-0.1c0,0,0.1-0.1,0.1-0.1c0-0.1,0-0.1,0-0.2c0-0.1,0-0.1-0.1-0.2c0,0-0.1-0.1-0.1-0.1
				c-0.1,0-0.1,0-0.2,0c-0.1,0-0.1,0-0.2,0c-0.2,0-0.4,0.1-0.6,0.1C97,11.5,97,11.7,97.1,12z"/>
			<path fill="#A7A6A6" d="M100.8,13.1c-0.2,0-0.3,0-0.5,0c-0.1,0-0.3,0-0.4-0.1s-0.2-0.1-0.2-0.2c-0.1-0.1-0.1-0.2-0.2-0.3
				c0-0.1-0.1-0.2-0.1-0.3c0-0.1,0-0.2-0.1-0.3c-0.1-0.7-0.2-1-0.3-1.7c0.2,0,0.3-0.1,0.6-0.1c0.1,0.7,0.2,1,0.3,1.7
				c0,0.2,0.1,0.3,0.1,0.4c0,0.1,0.1,0.2,0.2,0.2c0.1,0,0.1,0.1,0.2,0.1c0.1,0,0.2,0,0.3,0c0.1,0,0.2,0,0.3-0.1s0.1-0.1,0.2-0.2
				c0-0.1,0.1-0.2,0.1-0.3c0-0.1,0-0.2,0-0.4c-0.1-0.7-0.2-1-0.3-1.7c0.2,0,0.3-0.1,0.6-0.1c0.1,0.7,0.2,1,0.3,1.7
				c0,0.2,0,0.4,0,0.6c0,0.2-0.1,0.3-0.1,0.4c-0.1,0.1-0.2,0.2-0.3,0.3C101.3,13,101.1,13,100.8,13.1z"/>
			<path fill="#A7A6A6" d="M104.6,10c-0.4,0.1-0.6,0.1-0.9,0.1c0.1,1,0.2,1.5,0.3,2.4c-0.2,0-0.3,0-0.6,0.1c-0.1-1-0.2-1.5-0.3-2.4
				c-0.4,0.1-0.6,0.1-0.9,0.1c0-0.2,0-0.3-0.1-0.5c1-0.1,1.5-0.2,2.4-0.3C104.5,9.7,104.5,9.8,104.6,10z"/>
			<path fill="#A7A6A6" d="M107.6,12.1c-0.9,0.1-1.4,0.2-2.3,0.3c-0.2-1.2-0.2-1.8-0.4-2.9c0.9-0.1,1.3-0.2,2.2-0.3
				c0,0.2,0,0.3,0.1,0.5c-0.7,0.1-1,0.1-1.7,0.2c0,0.3,0.1,0.4,0.1,0.7c0.6-0.1,0.9-0.1,1.6-0.2c0,0.2,0,0.3,0.1,0.5
				c-0.6,0.1-0.9,0.1-1.6,0.2c0,0.3,0.1,0.5,0.1,0.8c0.7-0.1,1-0.1,1.7-0.2C107.6,11.8,107.6,11.9,107.6,12.1z"/>
			<path fill="#A7A6A6" d="M110.8,11.7c-0.2,0-0.4,0-0.6,0.1c-0.1-0.3-0.2-0.5-0.4-0.8c0-0.1-0.1-0.1-0.1-0.1c0,0-0.1-0.1-0.1-0.1
				s-0.1,0-0.2-0.1c-0.1,0-0.1,0-0.2,0c-0.2,0-0.4,0-0.6,0.1c0.1,0.5,0.1,0.7,0.1,1.2c-0.2,0-0.3,0-0.6,0.1
				c-0.1-1.2-0.2-1.8-0.3-2.9c0.5-0.1,0.8-0.1,1.4-0.2c0.1,0,0.2,0,0.2,0c0.1,0,0.1,0,0.2,0s0.1,0,0.2,0c0.1,0,0.1,0.1,0.2,0.1
				c0.1,0,0.1,0.1,0.1,0.1c0,0,0.1,0.1,0.1,0.2c0,0.1,0.1,0.1,0.1,0.2s0,0.1,0,0.2c0,0.2,0,0.3-0.1,0.5c-0.1,0.1-0.2,0.2-0.3,0.3
				c0.1,0.1,0.3,0.2,0.4,0.4C110.5,11.2,110.6,11.4,110.8,11.7z M108.6,10.2c0.3,0,0.4-0.1,0.7-0.1c0.1,0,0.2,0,0.3,0
				c0.1,0,0.1,0,0.2-0.1c0,0,0.1-0.1,0.1-0.1c0-0.1,0-0.1,0-0.2c0-0.1-0.1-0.2-0.2-0.3s-0.2-0.1-0.4-0.1c-0.3,0-0.5,0.1-0.8,0.1
				C108.5,9.8,108.5,9.9,108.6,10.2z"/>
			<path fill="#A7A6A6" d="M114.7,8.4c-0.4,1.2-0.6,1.8-0.9,3c-0.2,0-0.3,0-0.5,0c-0.6-1.1-0.9-1.7-1.4-2.8c0.2,0,0.4,0,0.6-0.1
				c0.4,0.9,0.6,1.3,1,2.1c0.3-0.9,0.4-1.4,0.6-2.3C114.4,8.4,114.5,8.4,114.7,8.4z"/>
			<path fill="#A7A6A6" d="M115.9,11.3c-0.2,0-0.3,0-0.6,0c-0.1-1.2-0.1-1.8-0.2-3c0.2,0,0.3,0,0.6,0
				C115.8,9.5,115.8,10.1,115.9,11.3z"/>
			<path fill="#A7A6A6" d="M119,9.6c0.1,1-0.4,1.5-1.4,1.6c-0.4,0-0.6,0-1,0.1c-0.1-1.2-0.1-1.8-0.2-3c0.4,0,0.6,0,1-0.1
				C118.4,8.1,118.9,8.6,119,9.6z M118.4,9.6c0-0.1,0-0.3-0.1-0.4c0-0.1-0.1-0.2-0.2-0.3c-0.1-0.1-0.2-0.1-0.3-0.2
				c-0.1,0-0.3,0-0.5,0c-0.2,0-0.3,0-0.4,0c0.1,0.8,0.1,1.2,0.1,1.9c0.2,0,0.3,0,0.4,0c0.2,0,0.3,0,0.5-0.1c0.1-0.1,0.2-0.1,0.3-0.2
				c0.1-0.1,0.1-0.2,0.1-0.3C118.4,9.9,118.4,9.8,118.4,9.6z"/>
			<path fill="#A7A6A6" d="M121.9,10.9c-0.9,0-1.4,0.1-2.3,0.1c-0.1-1.2-0.1-1.8-0.2-3c0.9,0,1.4-0.1,2.3-0.1c0,0.2,0,0.3,0,0.5
				c-0.7,0-1,0-1.7,0.1c0,0.3,0,0.4,0,0.7c0.6,0,0.9,0,1.6-0.1c0,0.2,0,0.3,0,0.5c-0.6,0-0.9,0-1.6,0.1c0,0.3,0,0.5,0,0.8
				c0.7,0,1,0,1.7-0.1C121.9,10.6,121.9,10.7,121.9,10.9z"/>
			<path fill="#A7A6A6" d="M123.8,7.9c0.2,0,0.4,0,0.6,0.1c0.2,0.1,0.3,0.2,0.5,0.3c0.1,0.1,0.2,0.3,0.3,0.5
				c0.1,0.2,0.1,0.4,0.1,0.6c0,0.2,0,0.4-0.1,0.6c-0.1,0.2-0.2,0.4-0.3,0.5c-0.1,0.1-0.3,0.2-0.4,0.3s-0.4,0.1-0.6,0.1
				s-0.4,0-0.6-0.1c-0.2-0.1-0.3-0.2-0.5-0.3c-0.1-0.1-0.2-0.3-0.3-0.5c-0.1-0.2-0.1-0.4-0.1-0.6c0-0.2,0-0.4,0.1-0.6
				s0.2-0.4,0.3-0.5c0.1-0.1,0.3-0.2,0.5-0.3C123.4,7.9,123.6,7.9,123.8,7.9z M123.8,10.4c0.1,0,0.2,0,0.4-0.1
				c0.1-0.1,0.2-0.1,0.3-0.2c0.1-0.1,0.1-0.2,0.2-0.3c0-0.1,0.1-0.3,0.1-0.4c0-0.2,0-0.3-0.1-0.4s-0.1-0.2-0.2-0.3
				c-0.1-0.1-0.2-0.2-0.3-0.2s-0.2-0.1-0.3-0.1c-0.1,0-0.2,0-0.4,0.1s-0.2,0.1-0.3,0.2C123.1,8.7,123,8.9,123,9
				c0,0.1-0.1,0.3-0.1,0.4c0,0.2,0,0.3,0.1,0.4c0,0.1,0.1,0.2,0.2,0.3c0.1,0.1,0.2,0.2,0.3,0.2C123.6,10.4,123.7,10.4,123.8,10.4z"
				/>
			<path fill="#A7A6A6" d="M128.4,10.9c-0.2,0-0.4,0-0.6-0.1c-0.2-0.1-0.3-0.2-0.5-0.3c-0.1-0.1-0.2-0.3-0.3-0.5
				c-0.1-0.2-0.1-0.4-0.1-0.6c0-0.2,0-0.4,0.1-0.6c0.1-0.2,0.2-0.3,0.3-0.5c0.1-0.1,0.3-0.2,0.5-0.3c0.2-0.1,0.4-0.1,0.6-0.1
				c0.2,0,0.4,0,0.5,0.1c0.2,0.1,0.3,0.1,0.4,0.2c0.1,0.1,0.2,0.2,0.3,0.3s0.1,0.3,0.1,0.4c-0.2,0-0.3,0-0.6,0c0-0.1,0-0.2-0.1-0.2
				s-0.1-0.1-0.2-0.2c-0.1,0-0.1-0.1-0.2-0.1c-0.1,0-0.2,0-0.3,0c-0.1,0-0.3,0-0.4,0.1s-0.2,0.1-0.3,0.2c-0.1,0.1-0.1,0.2-0.2,0.3
				c0,0.1-0.1,0.3-0.1,0.4c0,0.2,0,0.3,0.1,0.4c0,0.1,0.1,0.2,0.2,0.3c0.1,0.1,0.2,0.2,0.3,0.2s0.2,0.1,0.4,0.1c0.2,0,0.3,0,0.5-0.1
				s0.2-0.1,0.3-0.3c0-0.1,0-0.2,0-0.3c-0.3,0-0.4,0-0.7,0c0-0.2,0-0.3,0-0.5c0.5,0,0.8,0,1.3,0c0,0.6,0,1,0,1.6c-0.2,0-0.3,0-0.4,0
				c0-0.1,0-0.1-0.1-0.2c-0.1,0.1-0.2,0.2-0.4,0.2C128.7,10.8,128.6,10.9,128.4,10.9z"/>
			<path fill="#A7A6A6" d="M132.9,10.8c-0.2,0-0.4,0-0.6,0c-0.1-0.3-0.2-0.5-0.3-0.9c-0.4,0-0.6,0-1,0c-0.1,0.3-0.2,0.5-0.3,0.8
				c-0.2,0-0.4,0-0.6,0c0.5-1.2,0.7-1.8,1.2-3c0.2,0,0.3,0,0.5,0C132.2,9.1,132.5,9.7,132.9,10.8z M131.8,9.5
				c-0.1-0.4-0.2-0.6-0.4-0.9c-0.1,0.4-0.2,0.6-0.4,0.9C131.4,9.5,131.5,9.5,131.8,9.5z"/>
			<path fill="#A7A6A6" d="M136.1,10.9c-0.2,0-0.3,0-0.5,0c0-0.8,0-1.1,0.1-1.9c-0.3,0.7-0.4,1.1-0.7,1.9c-0.2,0-0.3,0-0.5,0
				c-0.2-0.8-0.3-1.2-0.6-1.9c0,0.8,0,1.1-0.1,1.9c-0.2,0-0.3,0-0.5,0c0-1.2,0-1.8,0.1-3c0.3,0,0.4,0,0.7,0c0.3,0.9,0.4,1.3,0.6,2.1
				c0.3-0.8,0.5-1.3,0.8-2.1c0.3,0,0.4,0,0.7,0C136.2,9.2,136.1,9.8,136.1,10.9z"/>
			<path fill="#A7A6A6" d="M139.1,11.1c-0.9-0.1-1.4-0.1-2.3-0.1c0.1-1.2,0.1-1.8,0.1-3c0.9,0,1.4,0.1,2.3,0.1c0,0.2,0,0.3,0,0.5
				c-0.7,0-1-0.1-1.7-0.1c0,0.3,0,0.4,0,0.7c0.6,0,0.9,0,1.6,0.1c0,0.2,0,0.3,0,0.5c-0.6,0-0.9-0.1-1.6-0.1c0,0.3,0,0.5,0,0.8
				c0.7,0,1,0.1,1.7,0.1C139.1,10.8,139.1,10.9,139.1,11.1z"/>
			<path fill="#A7A6A6" d="M143,9.4c0-0.1,0-0.2,0-0.2c0-0.1-0.1-0.1-0.1-0.2c-0.1-0.1-0.1-0.1-0.2-0.1c-0.1,0-0.2-0.1-0.3-0.1
				c-0.1,0-0.2,0-0.4,0s-0.2,0.1-0.3,0.2c-0.1,0.1-0.1,0.2-0.2,0.3c0,0.1-0.1,0.3-0.1,0.4c0,0.2,0,0.3,0,0.4c0,0.1,0.1,0.2,0.1,0.3
				c0.1,0.1,0.1,0.2,0.2,0.2c0.1,0.1,0.2,0.1,0.3,0.1c0.1,0,0.2,0,0.3,0c0.1,0,0.2-0.1,0.2-0.1c0.1,0,0.1-0.1,0.2-0.2
				c0-0.1,0.1-0.2,0.1-0.3c0.2,0,0.3,0,0.6,0c0,0.2-0.1,0.3-0.2,0.5c-0.1,0.1-0.2,0.2-0.3,0.3c-0.1,0.1-0.2,0.1-0.4,0.2
				c-0.1,0-0.3,0.1-0.5,0c-0.2,0-0.4-0.1-0.6-0.1c-0.2-0.1-0.3-0.2-0.4-0.3c-0.1-0.1-0.2-0.3-0.2-0.5c-0.1-0.2-0.1-0.4-0.1-0.6
				c0-0.2,0.1-0.4,0.1-0.6c0.1-0.2,0.2-0.3,0.3-0.5c0.1-0.1,0.3-0.2,0.5-0.3c0.2-0.1,0.4-0.1,0.6-0.1c0.2,0,0.3,0,0.5,0.1
				c0.1,0.1,0.3,0.1,0.4,0.2c0.1,0.1,0.2,0.2,0.3,0.4c0.1,0.1,0.1,0.3,0.1,0.4C143.3,9.4,143.2,9.4,143,9.4z"/>
			<path fill="#A7A6A6" d="M145.5,8.5c0.2,0,0.4,0.1,0.6,0.2c0.2,0.1,0.3,0.2,0.4,0.4c0.1,0.1,0.2,0.3,0.3,0.5
				c0.1,0.2,0.1,0.4,0,0.6c0,0.2-0.1,0.4-0.2,0.6c-0.1,0.2-0.2,0.3-0.3,0.5c-0.1,0.1-0.3,0.2-0.5,0.3c-0.2,0.1-0.4,0.1-0.6,0.1
				c-0.2,0-0.4-0.1-0.6-0.2c-0.2-0.1-0.3-0.2-0.4-0.4c-0.1-0.1-0.2-0.3-0.3-0.5c-0.1-0.2-0.1-0.4-0.1-0.6c0-0.2,0.1-0.4,0.2-0.6
				c0.1-0.2,0.2-0.3,0.3-0.5c0.1-0.1,0.3-0.2,0.5-0.3C145.1,8.5,145.3,8.5,145.5,8.5z M145.3,11.1c0.1,0,0.2,0,0.4,0
				c0.1,0,0.2-0.1,0.3-0.2c0.1-0.1,0.2-0.2,0.2-0.3c0.1-0.1,0.1-0.3,0.1-0.4c0-0.2,0-0.3,0-0.4c0-0.1-0.1-0.2-0.2-0.3
				c-0.1-0.1-0.2-0.2-0.3-0.2c-0.1-0.1-0.2-0.1-0.3-0.1c-0.1,0-0.2,0-0.4,0c-0.1,0-0.2,0.1-0.3,0.2c-0.1,0.1-0.2,0.2-0.2,0.3
				s-0.1,0.3-0.1,0.4c0,0.2,0,0.3,0,0.4c0,0.1,0.1,0.2,0.2,0.3s0.2,0.2,0.3,0.2C145.1,11.1,145.2,11.1,145.3,11.1z"/>
			<path fill="#A7A6A6" d="M149.7,12c-0.2,0-0.3,0-0.5-0.1c-0.4-0.8-0.7-1.3-1.1-2.1c-0.1,0.8-0.1,1.2-0.2,2c-0.2,0-0.3,0-0.5-0.1
				c0.1-1.2,0.2-1.8,0.3-2.9c0.2,0,0.3,0,0.5,0.1c0.5,0.8,0.7,1.3,1.1,2.1c0.1-0.8,0.1-1.2,0.2-2c0.2,0,0.3,0,0.5,0.1
				C149.9,10.2,149.8,10.8,149.7,12z"/>
			<path fill="#A7A6A6" d="M152.9,9.9c-0.4,0-0.6-0.1-0.9-0.1c-0.1,1-0.2,1.5-0.3,2.4c-0.2,0-0.3,0-0.6-0.1c0.1-1,0.2-1.5,0.3-2.4
				c-0.4,0-0.6-0.1-0.9-0.1c0-0.2,0-0.3,0.1-0.5c1,0.1,1.5,0.2,2.4,0.3C152.9,9.6,152.9,9.7,152.9,9.9z"/>
			<path fill="#A7A6A6" d="M155.5,12.8c-0.2,0-0.4-0.1-0.6-0.1c-0.1-0.3-0.1-0.5-0.2-0.8c0-0.1,0-0.1-0.1-0.2c0-0.1-0.1-0.1-0.1-0.1
				c0,0-0.1-0.1-0.1-0.1s-0.1,0-0.2-0.1c-0.2,0-0.4-0.1-0.6-0.1c-0.1,0.5-0.1,0.7-0.2,1.2c-0.2,0-0.3,0-0.6-0.1
				c0.2-1.2,0.2-1.8,0.4-2.9c0.5,0.1,0.8,0.1,1.4,0.2c0.1,0,0.2,0,0.2,0c0.1,0,0.1,0,0.2,0.1c0.1,0,0.1,0.1,0.2,0.1s0.1,0.1,0.2,0.1
				c0,0,0.1,0.1,0.1,0.2s0.1,0.1,0.1,0.2c0,0.1,0,0.1,0,0.2c0,0.1,0,0.1,0,0.2c0,0.2-0.1,0.3-0.2,0.4c-0.1,0.1-0.2,0.2-0.4,0.2
				c0.1,0.1,0.2,0.3,0.2,0.5C155.4,12.2,155.5,12.4,155.5,12.8z M153.8,10.8c0.3,0,0.4,0.1,0.7,0.1c0.1,0,0.2,0,0.3,0s0.1,0,0.2,0
				s0.1-0.1,0.1-0.1c0,0,0-0.1,0.1-0.2c0-0.1,0-0.2-0.1-0.3c-0.1-0.1-0.2-0.1-0.4-0.1c-0.3,0-0.5-0.1-0.8-0.1
				C153.8,10.3,153.8,10.5,153.8,10.8z"/>
			<path fill="#A7A6A6" d="M157.8,10.1c0.2,0,0.4,0.1,0.6,0.2c0.2,0.1,0.3,0.2,0.4,0.4c0.1,0.2,0.2,0.3,0.2,0.5s0,0.4,0,0.6
				c0,0.2-0.1,0.4-0.2,0.6c-0.1,0.2-0.2,0.3-0.4,0.4c-0.1,0.1-0.3,0.2-0.5,0.2c-0.2,0-0.4,0.1-0.6,0s-0.4-0.1-0.6-0.2
				c-0.2-0.1-0.3-0.2-0.4-0.4c-0.1-0.2-0.2-0.3-0.2-0.5c0-0.2,0-0.4,0-0.6c0-0.2,0.1-0.4,0.2-0.6s0.2-0.3,0.4-0.4s0.3-0.2,0.5-0.2
				C157.4,10.1,157.6,10.1,157.8,10.1z M157.4,12.6c0.1,0,0.2,0,0.4,0c0.1,0,0.2-0.1,0.3-0.2c0.1-0.1,0.2-0.2,0.2-0.3
				s0.1-0.3,0.1-0.4c0-0.2,0-0.3,0-0.4c0-0.1-0.1-0.3-0.1-0.3c-0.1-0.1-0.1-0.2-0.2-0.2c-0.1-0.1-0.2-0.1-0.3-0.1
				c-0.1,0-0.2,0-0.4,0c-0.1,0-0.2,0.1-0.3,0.2c-0.1,0.1-0.2,0.2-0.2,0.3c-0.1,0.1-0.1,0.3-0.1,0.4c0,0.2,0,0.3,0,0.4
				s0.1,0.3,0.1,0.4s0.1,0.2,0.2,0.2C157.2,12.6,157.3,12.6,157.4,12.6z"/>
			<path fill="#A7A6A6" d="M161.3,13.7c-0.8-0.1-1.1-0.2-1.9-0.3c0.2-1.2,0.3-1.8,0.5-2.9c0.2,0,0.3,0.1,0.6,0.1
				c-0.2,1-0.3,1.5-0.4,2.4c0.5,0.1,0.8,0.1,1.4,0.2C161.3,13.4,161.3,13.5,161.3,13.7z"/>
			<path fill="#A7A6A6" d="M163.5,11.1c0.5,0.1,0.7,0.1,1.1,0.2c0.1,0,0.2,0,0.3,0.1c0.1,0,0.2,0.1,0.3,0.1s0.2,0.1,0.2,0.2
				c0.1,0.1,0.1,0.1,0.2,0.2s0.1,0.2,0.1,0.3c0,0.1,0,0.2,0,0.3c-0.1,0.3-0.2,0.5-0.4,0.6c-0.2,0.1-0.5,0.1-0.9,0.1
				c-0.2,0-0.4-0.1-0.6-0.1c-0.1,0.4-0.1,0.7-0.2,1.1c-0.2,0-0.3-0.1-0.5-0.1C163.1,12.9,163.2,12.3,163.5,11.1z M163.8,12.5
				c0.2,0,0.4,0.1,0.6,0.1c0.1,0,0.2,0,0.3,0c0.1,0,0.1,0,0.2,0c0.1,0,0.1-0.1,0.1-0.1c0,0,0.1-0.1,0.1-0.2c0-0.1,0-0.2,0-0.2
				S165,12,164.9,12c0,0-0.1-0.1-0.2-0.1s-0.1,0-0.2-0.1c-0.2,0-0.4-0.1-0.6-0.1C163.9,12.1,163.8,12.2,163.8,12.5z"/>
			<path fill="#A7A6A6" d="M168.2,15.1c-0.2-0.1-0.4-0.1-0.6-0.1c-0.1-0.4-0.1-0.5-0.1-0.9c-0.4-0.1-0.6-0.1-1-0.2
				c-0.2,0.3-0.3,0.5-0.5,0.8c-0.2,0-0.3-0.1-0.6-0.1c0.7-1.1,1-1.6,1.7-2.7c0.2,0,0.3,0.1,0.5,0.1C167.9,13.2,168,13.9,168.2,15.1z
				 M167.4,13.6c-0.1-0.4-0.1-0.6-0.2-1c-0.2,0.3-0.3,0.5-0.5,0.8C167,13.5,167.1,13.5,167.4,13.6z"/>
			<path fill="#A7A6A6" d="M171.4,14.3c-0.2,1-0.8,1.3-1.8,1.1c-0.4-0.1-0.6-0.1-1-0.2c0.3-1.2,0.4-1.7,0.7-2.9
				c0.4,0.1,0.6,0.1,1,0.2C171.2,12.8,171.6,13.4,171.4,14.3z M170.8,14.2c0-0.1,0.1-0.3,0-0.4c0-0.1,0-0.2-0.1-0.3
				s-0.1-0.2-0.2-0.3c-0.1-0.1-0.3-0.1-0.4-0.2c-0.2,0-0.3-0.1-0.4-0.1c-0.2,0.8-0.3,1.1-0.4,1.9c0.2,0,0.2,0.1,0.4,0.1
				c0.2,0,0.3,0.1,0.5,0s0.2-0.1,0.3-0.1c0.1-0.1,0.2-0.2,0.2-0.3S170.8,14.3,170.8,14.2z"/>
		</g>
	</g>
</g>
</svg>
