<?xml version="1.0" encoding="utf-8"?>
<!-- Generator: Adobe Illustrator 19.0.0, SVG Export Plug-In . SVG Version: 6.00 Build 0)  -->
<svg version="1.1" baseProfile="tiny" id="Calque_1"
	 xmlns="http://www.w3.org/2000/svg" xmlns:xlink="http://www.w3.org/1999/xlink" x="0px" y="0px" viewBox="0 0 257.9 151.7"
	 xml:space="preserve">
<g>
	<path id="XMLID_74_" fill="#1B1D1F" d="M130.9,108.4c-1.1-0.1-2.9-0.1-4,0c0,0-7.8,0.4-12.8,1.3c-7.8,1.3-15.5,3.6-22.7,7
		c-9.3,4.4-15.1,12.1-18.9,21.4c-1.6,3.9-3.5,7.5-7.2,9.9c-7.5,4.7-15.1,5-23,1.2c-6.7-3.2-12.2-8.1-17.2-13.5
		C12.9,122.4,4.8,107.1,1.4,89.4c-2.6-13.7-1.7-27,4.8-39.7c4.4-8.6,11.2-14.8,19.1-20c13.7-9,28.6-15.2,44.1-20.1
		c12.8-4.1,25.8-7,39.2-8.4c6.1-0.7,12.3-0.7,18.5-1.1c0.3,0,0.3,0,0.3,0c0.9,0,2.3,0,3.2,0c0,0,0,0,0.3,0
		c6.2,0.4,12.4,0.4,18.5,1.1c13.3,1.5,26.4,4.4,39.2,8.4c15.5,4.9,30.4,11.2,44.1,20.1c7.9,5.2,14.7,11.5,19.1,20
		c6.5,12.6,7.4,26,4.8,39.7c-3.4,17.7-11.6,33-23.7,46.2c-5,5.4-10.5,10.3-17.2,13.5c-7.9,3.8-15.6,3.6-23-1.2
		c-3.7-2.4-5.6-6-7.2-9.9c-3.8-9.3-9.7-16.9-18.9-21.4c-7.2-3.4-14.9-5.7-22.7-7C138.7,108.8,130.9,108.4,130.9,108.4z"/>
	<path id="XMLID_161_" fill="#1B1D1F" d="M96.4,14.1C96.4,14.1,96.4,14.1,96.4,14.1C96.4,14.1,96.4,14.1,96.4,14.1
		C96.4,14.1,96.4,14.1,96.4,14.1C96.4,14.1,96.4,14.1,96.4,14.1z"/>
	<path id="XMLID_160_" fill="#1B1D1F" d="M105.3,13.7C105.3,13.7,105.3,13.7,105.3,13.7C105.3,13.7,105.3,13.7,105.3,13.7
		C105.3,13.7,105.3,13.7,105.3,13.7z"/>
	<path id="XMLID_159_" fill="#1B1D1F" d="M120.2,14.1C120.2,14.1,120.2,14.1,120.2,14.1C120.2,14.1,120.2,14.1,120.2,14.1
		C120.2,14.1,120.2,14.1,120.2,14.1C120.2,14.1,120.2,14.1,120.2,14.1z"/>
	<path id="XMLID_146_" fill="#151515" d="M228.7,39.5c-4.9-0.8-9.6-0.3-14.4,0.3c-21.6,3-39.5,13.3-55,28.2c-6.2,6-9,13.2-7.7,22.1
		c1.8,11.7,12.8,20,24.4,17.7c3.2-0.6,6.3-2.1,9.3-3.6c4.6-2.2,8.9-5,13.6-7.1c11-4.8,22.1-9.4,33.3-13.9c9.9-4,14.7-10.8,14.9-21.5
		C247.2,50.3,239.8,41.2,228.7,39.5z M234,81.5c-0.5,0.3-1,0.5-1.6,0.7c-6.4,2.5-12.9,4.8-19.2,7.6c-9,4-17.8,8.5-26.7,12.9
		c-4.5,2.3-8.9,4.7-14.2,4.7c-10.7-0.1-19.1-8-20.2-18.6c-1-9.3,2.9-16.2,9.4-22c10.2-9.1,21.2-16.9,34.2-21.5
		c6.5-2.3,18.8-5.4,27.2-5.2c5.9-0.3,11.1,1.6,16.3,5.7c4.3,3.4,6.1,9.9,6.6,14.8c0,0.4,0.1,0.7,0.1,1.1
		C246,67.1,245.3,75.2,234,81.5z"/>
	<path id="XMLID_145_" fill="#181A1C" d="M246.1,61.7c0,5.5-0.8,13.5-12.1,19.8c-0.5,0.3-1,0.5-1.6,0.7c-6.4,2.5-12.9,4.8-19.2,7.6
		c-9,4-17.8,8.5-26.7,12.9c-4.5,2.3-8.9,4.7-14.2,4.7c-10.7-0.1-19.1-8-20.2-18.6c-1-9.3,2.9-16.2,9.4-22
		c10.2-9.1,21.2-16.9,34.2-21.5c6.5-2.3,18.8-5.4,27.2-5.2c5.9-0.3,11.1,1.6,16.3,5.7c4.3,3.4,6.1,9.9,6.6,14.8
		C246,60.9,246.1,61.3,246.1,61.7z"/>
	<path id="XMLID_144_" fill="#191919" d="M194.5,37.6c-5.7,2.7-11.5,5.2-17.3,7.7c-0.8,0.3-1.7,0.4-2,0.4c-3.8,0-6.4-2.2-7.1-5.5
		c-0.7-3.2,0.5-5.8,3.7-7.2c5.4-2.4,10.8-4.9,16.2-7.2c4.9-2.1,9.3,0.1,10,4.8C198.4,33.6,197.1,36.4,194.5,37.6z"/>
	<path id="XMLID_122_" fill="#FFFFFA" d="M193.7,30.1c0.8,1.5,0.5,3.4-1.9,4.4c-5.1,2.4-10.2,4.8-15.3,7.2c-0.5,0.2-1,0.4-1.5,0.5
		c-1.5,0.3-3.1-0.7-3.5-2c-0.5-1.5,0.1-2.6,1.3-3.5c0.4-0.3,11.2-5.1,16.1-7.2C191.6,28.1,193.2,29.1,193.7,30.1z"/>
	<g id="XMLID_59_">
		<path id="XMLID_70_" fill="#A7A6A6" d="M175.2,29.7c-0.2,0.1-0.3,0.1-0.5,0.1c-0.1,0-0.3,0-0.4-0.1c-0.1,0-0.2-0.1-0.3-0.2
			c-0.1-0.1-0.2-0.2-0.2-0.3l0.4-0.2c0,0.1,0.1,0.1,0.2,0.2c0.1,0,0.1,0.1,0.2,0.1c0.1,0,0.1,0,0.2,0c0.1,0,0.2,0,0.2-0.1
			c0.1,0,0.1-0.1,0.2-0.1c0.1,0,0.1-0.1,0.1-0.1c0,0,0-0.1,0.1-0.1c0,0,0-0.1,0-0.1c0,0-0.1-0.1-0.1-0.1s-0.1,0-0.2,0
			c-0.1,0-0.1,0-0.2,0c-0.1,0-0.2,0-0.3,0.1c-0.2,0-0.3,0-0.4,0c-0.1,0-0.2,0-0.3,0c-0.1,0-0.2-0.1-0.2-0.1
			c-0.1-0.1-0.1-0.1-0.2-0.2c0-0.1-0.1-0.2-0.1-0.3c0-0.1,0-0.2,0.1-0.3c0.1-0.1,0.1-0.2,0.2-0.3c0.1-0.1,0.2-0.1,0.3-0.2
			c0.1-0.1,0.3-0.1,0.4-0.1c0.1,0,0.3,0,0.4,0c0.1,0,0.2,0.1,0.3,0.2c0.1,0.1,0.2,0.2,0.2,0.3l-0.4,0.2c-0.1-0.3-0.4-0.3-0.7-0.2
			c-0.1,0.1-0.2,0.1-0.3,0.2s-0.1,0.2,0,0.3c0,0,0,0.1,0.1,0.1c0,0,0.1,0,0.1,0c0,0,0.1,0,0.2,0c0.1,0,0.1,0,0.2,0
			c0.1,0,0.2,0,0.2,0c0.1,0,0.2,0,0.3,0c0.1,0,0.2,0,0.2,0c0.1,0,0.2,0,0.2,0.1c0.1,0,0.1,0.1,0.2,0.1c0.1,0.1,0.1,0.1,0.1,0.2
			c0,0.1,0.1,0.2,0.1,0.3c0,0.1,0,0.2-0.1,0.3c-0.1,0.1-0.1,0.2-0.2,0.3C175.4,29.6,175.3,29.7,175.2,29.7z"/>
		<path id="XMLID_68_" fill="#A7A6A6" d="M177.5,26.4l-0.7,0.3l0.8,2l-0.5,0.2l-0.8-2l-0.7,0.3l-0.2-0.4l1.9-0.8L177.5,26.4z"/>
		<path id="XMLID_65_" fill="#A7A6A6" d="M180.7,27.3l-0.5,0.2l-0.6-0.6l-0.8,0.4l0,0.8l-0.5,0.2l-0.1-2.8l0.4-0.2L180.7,27.3z
			 M179.4,26.6l-0.6-0.6l0,0.9L179.4,26.6z"/>
		<path id="XMLID_62_" fill="#A7A6A6" d="M183.1,26.3l-0.5,0.2l-0.5-0.6c0,0-0.1-0.1-0.1-0.1c0,0-0.1,0-0.1-0.1c0,0-0.1,0-0.1,0
			c-0.1,0-0.1,0-0.2,0L181,26l0.4,1l-0.4,0.2l-1-2.4l1.1-0.5c0.1,0,0.1-0.1,0.2-0.1c0.1,0,0.1,0,0.2-0.1c0.1,0,0.1,0,0.2,0
			c0.1,0,0.1,0,0.2,0c0.1,0,0.1,0,0.2,0.1c0,0,0.1,0.1,0.1,0.1c0,0,0.1,0.1,0.1,0.1c0,0,0.1,0.1,0.1,0.1c0.1,0.1,0.1,0.3,0.1,0.4
			c0,0.1-0.1,0.3-0.2,0.4c0.1,0,0.3,0.1,0.4,0.3L183.1,26.3z M180.9,25.6l0.6-0.3c0.1,0,0.1-0.1,0.2-0.1c0.1,0,0.1-0.1,0.1-0.1
			c0,0,0-0.1,0-0.1c0,0,0-0.1,0-0.2c0-0.1-0.1-0.2-0.2-0.2c-0.1,0-0.2,0-0.3,0.1l-0.6,0.3L180.9,25.6z"/>
		<path id="XMLID_60_" fill="#A7A6A6" d="M184.4,23.4l-0.7,0.3l0.8,2l-0.5,0.2l-0.8-2l-0.7,0.3l-0.2-0.4l1.9-0.8L184.4,23.4z"/>
	</g>
	<path fill="#191919" d="M97.4,70.2c0,22-17.8,39.8-39.7,39.8S17.9,92.2,17.9,70.2s17.8-39.8,39.7-39.8S97.4,48.2,97.4,70.2z
		 M57.6,37.9c-17.8,0-32.2,14.5-32.2,32.3s14.4,32.3,32.2,32.3S89.9,88,89.9,70.2S75.4,37.9,57.6,37.9z"/>
	<g>
		<polygon fill="#F0756E" points="57.6,31 54.8,37.2 60.5,37.2 		"/>
		<circle fill="#FFFFFA" cx="31.5" cy="45.8" r="1.3"/>
		<circle fill="#FFFFFA" cx="83.7" cy="45.8" r="1.3"/>
		<circle fill="#FFFFFA" cx="83.7" cy="94.6" r="1.3"/>
		<circle fill="#FFFFFA" cx="31.5" cy="94.6" r="1.3"/>
		<polygon fill="#F0756E" points="18.4,70.2 24.6,73 24.6,67.4 		"/>
		<polygon fill="#F0756E" points="57.6,109.4 60.5,103.2 54.8,103.2 		"/>
		<polygon fill="#F0756E" points="96.8,70 90.6,67.2 90.6,72.9 		"/>
	</g>
	<g>
		<polygon id="polygon9" fill="#FFFFFA" points="95.3,46.3 99.4,48.9 158.5,48.9 162.6,46.3 162.6,40.4 158.7,37.9 139.2,37.9 
			135.7,32.4 121.8,32.4 121.8,32.4 118.3,37.9 99.2,37.9 95.3,40.4 		"/>
		<g>
			<path id="path11" fill="#1B1D1F" d="M126.2,36.6c0,0.3,0.2,0.5,0.5,0.5h1.9v-0.6h-1.8v-0.2h1.4v-0.6h-2L126.2,36.6L126.2,36.6
				L126.2,36.6z"/>
			<path id="path13" fill="#1B1D1F" d="M126.2,34.5c0-0.3,0.2-0.5,0.5-0.5h1.9v0.6h-1.8v0.2h1.4v0.6h-2L126.2,34.5L126.2,34.5
				L126.2,34.5z"/>
			<polygon id="polygon15" fill="#1B1D1F" points="138.9,42.7 144.9,42.7 144.9,45.3 142.8,46.9 136.1,46.9 138.3,45.3 142.2,45.3 
				142.2,44.3 136.2,44.3 136.2,41.7 138.4,40 138.4,40 145.1,40 142.9,41.7 138.9,41.7 			"/>
			<polygon id="polygon17" fill="#1B1D1F" points="145.8,40 145.8,40 148.5,40 148.5,46.9 145.8,46.9 			"/>
			<polygon id="polygon19" fill="#1B1D1F" points="152.2,42.7 158.2,42.7 158.2,45.3 156.1,46.9 149.4,46.9 151.6,45.3 155.5,45.3 
				155.5,44.3 149.5,44.3 149.5,41.7 151.7,40 151.7,40 158.4,40 156.2,41.7 152.2,41.7 			"/>
			<polygon id="polygon21" fill="#1B1D1F" points="130.3,45.3 130.3,44.3 132.9,44.3 135.1,42.7 130.3,42.7 130.3,41.7 134.2,41.7 
				136.4,40 130,40 127.6,41.6 127.6,41.6 127.6,46.9 134.2,46.9 136.4,45.3 			"/>
			<polygon id="polygon23" fill="#1B1D1F" points="111.4,45.3 111.4,44.3 114,44.3 116.2,42.7 111.4,42.7 111.4,41.7 115.3,41.7 
				117.5,40 111,40 108.7,41.6 108.7,41.6 108.7,46.9 115.2,46.9 117.5,45.3 			"/>
			<polygon id="polygon25" fill="#1B1D1F" points="124.2,44.7 120.8,42.3 120.8,46.9 118.1,46.9 118.1,40 120.8,40 124.2,42.1 
				124.2,40 124.2,40 126.9,40 126.9,46.9 124.2,46.9 			"/>
			<polygon id="polygon27" fill="#1B1D1F" points="101.9,41.7 101.9,45.3 105.3,45.3 105.3,44.3 102.5,44.3 104.7,42.7 108,42.7 
				108,45.4 105.9,46.9 99.2,46.9 99.2,41.7 99.2,41.7 101.5,40 108.8,40 106.6,41.7 			"/>
			<path id="path29" fill="#1B1D1F" d="M126.6,33.1c-0.6,0-1.2,0.6-1.2,1.3v2.3c0,0.7,0.5,1.3,1.2,1.3h2v-0.6h-1.9
				c-0.3,0-0.6-0.4-0.6-0.7v-2.1c0-0.4,0.3-0.7,0.6-0.7h1.9v-0.6L126.6,33.1L126.6,33.1L126.6,33.1z"/>
			<path id="path31" fill="#1B1D1F" d="M130.3,36.5v-1.9h1.9V34h-2c-0.3,0-0.5,0.2-0.5,0.5l0,2.1c0,0.3,0.2,0.5,0.5,0.5h1.2l0-1.5
				h-0.9v0.6h0.3v0.2L130.3,36.5L130.3,36.5L130.3,36.5z"/>
			<path id="path33" fill="#1B1D1F" d="M124.9,33.1H123c-0.8,0-1.4,0.7-1.4,1.6c0,0.9,0.6,1.6,1.4,1.6h0.6v0.2h-2v0.6h1.9
				c0.4,0,0.7-0.3,0.7-0.7c0-0.4-0.3-0.7-0.7-0.7l-0.5,0c-0.5,0-0.9-0.4-0.9-0.9c0-0.5,0.4-0.9,0.9-0.9h1.9L124.9,33.1L124.9,33.1z"
				/>
			<path id="path35" fill="#1B1D1F" d="M124.9,34.6h-2v0.2l0.6,0c0.8,0,1.4,0.7,1.4,1.6c0,0.9-0.6,1.6-1.4,1.6l-1.9,0v-0.6h1.9
				c0.5,0,0.9-0.4,0.9-0.9c0-0.5-0.4-0.9-0.9-0.9l-0.5,0c-0.4,0-0.7-0.3-0.7-0.7c0-0.4,0.3-0.7,0.7-0.7h1.9L124.9,34.6L124.9,34.6
				L124.9,34.6z"/>
			<path id="path37" fill="#1B1D1F" d="M134.4,33.9C134.4,33.8,134.4,33.8,134.4,33.9c-0.2-0.1-0.2,0-0.2,0L133,38l0.6,0l0.7-2.3
				l0.2,0.8h-0.4v0.6h1.3L134.4,33.9L134.4,33.9z"/>
			<path id="path39" fill="#1B1D1F" d="M130.1,38c-0.6,0-1.2-0.6-1.2-1.3v-2.3c0-0.7,0.5-1.3,1.2-1.3h2.1v0.6h-2
				c-0.3,0-0.6,0.3-0.6,0.7v2.1c0,0.4,0.3,0.7,0.6,0.7h1.4v-1.9h-1.1v-0.6h1.7v3l1.2-4.1c0.1-0.4,0.5-0.7,0.9-0.7
				c0.4,0,0.8,0.3,0.9,0.7l1.2,4.2h-2.4v-0.6h1.5l-1-3.5c-0.1-0.2-0.2-0.2-0.3-0.2c-0.1,0-0.2,0.1-0.3,0.2l-1.2,4.2L130.1,38
				L130.1,38L130.1,38z"/>
		</g>
	</g>
	<path fill="#151617" d="M231.5,77.3c-8,3.2-16.1,6.1-23.9,9.6c-8.3,3.7-16.4,8-24.5,12.2c-6.3,3.2-8.4,3-13.2,2.2
		c-3.5-0.6-9-4-11.2-8.6c-1.2-2.5-1.7-5.4-1.5-8.2c0.6-6.4,3.9-10.1,8.1-12.8c15.3-10,31.9-17.3,49-23.5c2.9-1.1,6-2.3,9-2.7
		c10.1-1.4,18.3,5.7,18.7,15.9C242.2,69.2,238.8,74.4,231.5,77.3z"/>
	<circle fill="#121212" cx="200.3" cy="72.6" r="11.5"/>
	<circle fill="#262626" cx="200.3" cy="72.6" r="9.9"/>
	<path id="XMLID_92_" fill="#F0756E" d="M202.6,71.4c0.2-0.2,0.3-0.6,0.1-1l-0.2-0.4c-0.4-0.8-1-0.9-1.8-0.5l-4,1.9l0.3,0.7l1.4,3
		l0.4,0.7l4-1.9c0.9-0.4,1.1-1,0.8-1.8l-0.2-0.4C203.2,71.5,203,71.4,202.6,71.4z M202.5,73.2l-0.5,0.2l-2.8,1.3l-0.5-1.1l2.8-1.3
		l0.5-0.2c0.3-0.2,0.6,0,0.8,0.3C202.9,72.8,202.9,73.1,202.5,73.2z M201.6,71.3l-3.3,1.5l-0.5-1.1l3.3-1.5c0.3-0.2,0.6,0,0.8,0.3
		C202.1,70.9,202,71.2,201.6,71.3z"/>
	<circle fill="#191919" cx="202.9" cy="77.9" r="1.1"/>
	<circle fill="#121212" cx="174" cy="85.6" r="11.5"/>
	<circle fill="#262626" cx="174" cy="85.6" r="9.9"/>
	<path id="XMLID_97_" fill="#F0756E" d="M178.2,85.1l-0.9,0.4l-1.4-0.9l-3.2,1.5l-0.1,1.6l-0.9,0.4l0.5-5.7l1.3-0.6L178.2,85.1z
		 M175.3,84.1l-1.9-1.3l-0.6,0.3l-0.1,2.2L175.3,84.1z"/>
	<circle fill="#262626" cx="226.4" cy="61.7" r="11.5"/>
	<circle fill="#212121" cx="226.4" cy="61.7" r="9.9"/>
	<path id="XMLID_90_" fill="#F0756E" d="M227.6,59.9l-1.9,0.8c-1.3,0.5-1,1-0.5,2s0.5,1.6,1.8,1.1l3.4-1.4l0.3,0.8l-3.4,1.4
		c-1.8,0.7-2.2,0-2.9-1.5c-0.6-1.5-0.8-2.4,1-3.1l3.4-1.4l0.3,0.8L227.6,59.9z"/>
	<g>
		<path fill="#FFFFFA" d="M182.6,56l-0.9,0.4l1.1,2.5l-0.6,0.3l-1.1-2.5l-0.9,0.4l-0.2-0.5l2.4-1.1L182.6,56z"/>
		<path fill="#FFFFFA" d="M186.8,57.1l-0.6,0.3l-0.7-0.7c0,0-0.1-0.1-0.2-0.1c-0.1,0-0.1-0.1-0.2-0.1c-0.1,0-0.1,0-0.2,0
			c-0.1,0-0.1,0-0.2,0l-0.6,0.3l0.6,1.2l-0.6,0.3l-1.4-3l1.3-0.6c0.1,0,0.2-0.1,0.2-0.1c0.1,0,0.1-0.1,0.2-0.1c0.1,0,0.1,0,0.2,0
			c0.1,0,0.1,0,0.2,0c0.1,0,0.1,0,0.2,0.1c0.1,0,0.1,0.1,0.2,0.1c0,0,0.1,0.1,0.1,0.2c0,0.1,0.1,0.1,0.1,0.2
			c0.1,0.2,0.1,0.4,0.1,0.5c0,0.2-0.1,0.3-0.2,0.5c0.2,0,0.3,0.1,0.5,0.3L186.8,57.1z M183.9,56.3l0.7-0.3c0.1,0,0.2-0.1,0.2-0.1
			c0.1,0,0.1-0.1,0.1-0.1s0-0.1,0-0.2c0-0.1,0-0.1-0.1-0.2c-0.1-0.1-0.1-0.2-0.3-0.2c-0.1,0-0.3,0-0.4,0.1l-0.8,0.4L183.9,56.3z"/>
		<path fill="#FFFFFA" d="M187.9,56.6l-0.6,0.3l-1.4-3l0.6-0.3L187.9,56.6z"/>
		<path fill="#FFFFFA" d="M189.9,55.7c-0.2,0.1-0.4,0.2-0.6,0.2c-0.2,0-0.4,0-0.6-0.1c-0.2-0.1-0.4-0.2-0.5-0.4s-0.3-0.4-0.4-0.6
			c-0.1-0.2-0.2-0.5-0.2-0.7s0-0.4,0.1-0.6c0.1-0.2,0.2-0.4,0.3-0.5c0.1-0.2,0.3-0.3,0.5-0.4c0.2-0.1,0.4-0.1,0.5-0.2
			c0.2,0,0.3,0,0.5,0c0.2,0,0.3,0.1,0.4,0.2c0.1,0.1,0.2,0.2,0.3,0.4l-0.6,0.3c-0.1-0.1-0.1-0.2-0.2-0.2s-0.2-0.1-0.2-0.1
			s-0.2,0-0.3,0c-0.1,0-0.2,0-0.3,0.1c-0.1,0.1-0.2,0.1-0.3,0.2s-0.1,0.2-0.2,0.3c0,0.1,0,0.3,0,0.4c0,0.1,0.1,0.3,0.1,0.5
			c0.1,0.2,0.2,0.3,0.3,0.4c0.1,0.1,0.2,0.2,0.3,0.2s0.2,0.1,0.4,0.1s0.3,0,0.4-0.1c0.2-0.1,0.3-0.2,0.4-0.3
			c0.1-0.1,0.2-0.3,0.2-0.4l-0.1-0.3l-0.7,0.3l-0.2-0.5l1.3-0.6l0.7,1.6l-0.4,0.2l-0.2-0.2c-0.1,0.1-0.2,0.3-0.3,0.4
			C190.2,55.5,190.1,55.6,189.9,55.7z"/>
		<path fill="#FFFFFA" d="M193.3,54.2c-0.2,0.1-0.4,0.2-0.6,0.2s-0.4,0-0.6-0.1c-0.2-0.1-0.4-0.2-0.5-0.4c-0.2-0.2-0.3-0.4-0.4-0.6
			c-0.1-0.2-0.2-0.5-0.2-0.7c0-0.2,0-0.4,0.1-0.6c0.1-0.2,0.2-0.4,0.3-0.5c0.1-0.2,0.3-0.3,0.5-0.4c0.2-0.1,0.4-0.1,0.5-0.2
			c0.2,0,0.3,0,0.5,0c0.2,0,0.3,0.1,0.4,0.2c0.1,0.1,0.2,0.2,0.3,0.4l-0.6,0.3c-0.1-0.1-0.1-0.2-0.2-0.2c-0.1-0.1-0.1-0.1-0.2-0.1
			s-0.2,0-0.3,0c-0.1,0-0.2,0-0.3,0.1c-0.1,0.1-0.2,0.1-0.3,0.2s-0.1,0.2-0.2,0.3s0,0.3,0,0.4c0,0.1,0.1,0.3,0.1,0.5
			c0.1,0.2,0.2,0.3,0.3,0.4c0.1,0.1,0.2,0.2,0.3,0.2c0.1,0.1,0.2,0.1,0.4,0.1s0.3,0,0.4-0.1c0.2-0.1,0.3-0.2,0.4-0.3
			c0.1-0.1,0.2-0.3,0.2-0.4l-0.1-0.3l-0.7,0.3l-0.2-0.5l1.3-0.6l0.7,1.6l-0.4,0.2l-0.2-0.2c-0.1,0.1-0.2,0.3-0.3,0.4
			C193.6,54,193.4,54.1,193.3,54.2z"/>
		<path fill="#FFFFFA" d="M197.5,52.1l-2.3,1.1l-1.4-3l2.2-1l0.2,0.5l-1.7,0.8l0.3,0.7l1.6-0.7l0.2,0.5l-1.6,0.7l0.4,0.8l1.7-0.8
			L197.5,52.1z"/>
		<path fill="#FFFFFA" d="M200.7,50.7l-0.6,0.3l-0.7-0.7c0,0-0.1-0.1-0.2-0.1c-0.1,0-0.1-0.1-0.2-0.1c-0.1,0-0.1,0-0.2,0
			s-0.1,0-0.2,0.1l-0.6,0.3l0.6,1.2l-0.6,0.3l-1.4-3l1.3-0.6c0.1,0,0.2-0.1,0.2-0.1s0.1-0.1,0.2-0.1c0.1,0,0.1,0,0.2,0
			c0.1,0,0.1,0,0.2,0c0.1,0,0.1,0,0.2,0.1c0.1,0,0.1,0.1,0.2,0.1c0.1,0,0.1,0.1,0.1,0.2c0,0.1,0.1,0.1,0.1,0.2
			c0.1,0.2,0.1,0.4,0.1,0.5c0,0.2-0.1,0.3-0.2,0.5c0.2,0,0.3,0.1,0.5,0.3L200.7,50.7z M197.9,49.9l0.7-0.3c0.1,0,0.2-0.1,0.2-0.1
			c0.1,0,0.1-0.1,0.1-0.1c0-0.1,0-0.1,0-0.2c0-0.1,0-0.1-0.1-0.2c-0.1-0.1-0.1-0.2-0.3-0.2c-0.1,0-0.3,0-0.4,0.1l-0.8,0.4
			L197.9,49.9z"/>
	</g>
	<ellipse fill="#1B1D1F" cx="57.6" cy="70.2" rx="32.2" ry="32.3"/>
	<path id="XMLID_1_" fill="#313336" d="M57.7,46.3C44.4,46.3,34,56.6,34,69.8c-0.1,13.4,10.4,23.9,23.6,23.9
		c13.3,0,23.8-10.5,23.8-23.8C81.4,56.8,70.9,46.3,57.7,46.3z"/>
	<path id="XMLID_119_" fill="#0A0A0A" d="M32.6,70.1c0-14,11.2-25,25.2-25c13.7,0,25,11.3,25,25.1c0,13.9-11.4,25.2-25.2,25.2
		C43.8,95.3,32.6,84,32.6,70.1z M57.7,46.4C44.4,46.4,34,56.7,34,70c-0.1,13.4,10.4,23.9,23.6,23.9c13.3,0,23.8-10.5,23.8-23.8
		C81.4,57,70.9,46.5,57.7,46.4z"/>
	<polygon fill="#242629" points="43.1,54.9 44.8,58.6 46.8,56.7 	"/>
	<polygon fill="#242629" points="43.1,84.8 46.8,83 44.8,81.1 	"/>
	<polygon fill="#242629" points="72.9,84.9 71.1,81.2 69.2,83.1 	"/>
	<polygon fill="#242629" points="73.1,55.1 69.5,56.8 71.4,58.8 	"/>
	<path id="XMLID_75_" fill="#151515" d="M79.7,70.2c0,1.1,0,2.1,0,3.2c-0.1,1.6-0.9,2.4-2.5,2.5c-2.1,0.2-4.3,0.4-6.4,0.8
		c-3.6,0.8-5.9,3.2-6.7,6.8c-0.4,2-0.6,4-0.8,6c-0.2,2.2-0.6,2.8-2.8,2.9c-1,0-1.9,0.1-2.9,0.1c-1,0-1.9,0-2.9-0.1
		c-2.1-0.1-2.6-0.7-2.8-2.9c-0.2-2-0.4-4-0.8-6c-0.8-3.6-3.1-5.9-6.7-6.8c-2.1-0.5-4.2-0.7-6.4-0.8c-1.6-0.1-2.5-0.9-2.5-2.5
		c0-1.1,0-2.1,0-3.2c0-1.1,0-2.1,0-3.2c0.1-1.6,0.9-2.4,2.5-2.5c2.1-0.2,4.3-0.4,6.4-0.8c3.6-0.8,5.9-3.2,6.7-6.8c0.4-2,0.6-4,0.8-6
		c0.2-2.2,0.6-2.8,2.8-2.9c1,0,1.9-0.1,2.9-0.1c1,0,1.9,0,2.9,0.1c2.1,0.1,2.6,0.7,2.8,2.9c0.2,2,0.4,4,0.8,6
		c0.8,3.6,3.1,5.9,6.7,6.8c2.1,0.5,4.2,0.7,6.4,0.8c1.6,0.1,2.5,0.9,2.5,2.5C79.7,68.1,79.7,69.1,79.7,70.2z"/>
	<g>
		<rect x="36.6" y="65.5" fill="#212121" width="41.9" height="9.4"/>
		<rect x="52.9" y="49.2" fill="#212121" width="9.4" height="41.9"/>
	</g>
	<circle id="XMLID_77_" fill="#151617" cx="57.6" cy="70.2" r="4.6"/>
</g>
</svg>
