<?xml version="1.0" encoding="utf-8"?>
<!-- Generator: Adobe Illustrator 19.0.0, SVG Export Plug-In . SVG Version: 6.00 Build 0)  -->
<svg version="1.1" baseProfile="tiny" id="Calque_1"
	 xmlns="http://www.w3.org/2000/svg" xmlns:xlink="http://www.w3.org/1999/xlink" x="0px" y="0px" viewBox="0 0 151.7 257.9"
	 xml:space="preserve">
<g>
	<path id="XMLID_74_" fill="#1B1D1F" d="M43.4,130.9c0.1-1.1,0.1-2.9,0-4c0,0-0.4-7.8-1.3-12.8c-1.3-7.8-3.6-15.5-7-22.7
		C30.7,82.2,23,76.4,13.7,72.6C9.8,71,6.2,69,3.8,65.3c-4.7-7.5-5-15.1-1.2-23c3.2-6.7,8.1-12.2,13.5-17.2
		C29.3,12.9,44.7,4.8,62.3,1.4C76-1.3,89.4-0.3,102,6.2c8.6,4.4,14.8,11.2,20,19.1c9,13.7,15.2,28.6,20.1,44.1
		c4.1,12.8,7,25.8,8.4,39.2c0.7,6.1,0.7,12.3,1.1,18.5c0,0.3,0,0.3,0,0.3c0,0.9,0,2.3,0,3.2c0,0,0,0,0,0.3
		c-0.4,6.2-0.4,12.4-1.1,18.5c-1.5,13.3-4.4,26.4-8.4,39.2c-4.9,15.5-11.2,30.4-20.1,44.1c-5.2,7.9-11.5,14.7-20,19.1
		c-12.6,6.5-26,7.4-39.7,4.8c-17.7-3.4-33-11.6-46.2-23.7c-5.4-5-10.3-10.5-13.5-17.2c-3.8-7.9-3.6-15.6,1.2-23
		c2.4-3.7,6-5.6,9.9-7.2c9.3-3.8,16.9-9.7,21.4-18.9c3.4-7.2,5.7-14.9,7-22.7C42.9,138.7,43.4,130.9,43.4,130.9z"/>
	<path id="XMLID_161_" fill="#1B1D1F" d="M137.6,96.4C137.6,96.4,137.6,96.4,137.6,96.4C137.6,96.4,137.6,96.4,137.6,96.4
		C137.6,96.4,137.6,96.4,137.6,96.4C137.6,96.4,137.6,96.4,137.6,96.4z"/>
	<path id="XMLID_160_" fill="#1B1D1F" d="M138,105.3C138,105.3,138,105.3,138,105.3C138,105.3,138.1,105.3,138,105.3
		C138,105.3,138,105.3,138,105.3z"/>
	<path id="XMLID_159_" fill="#1B1D1F" d="M137.6,120.2C137.6,120.2,137.6,120.2,137.6,120.2C137.6,120.2,137.6,120.2,137.6,120.2
		C137.6,120.2,137.6,120.2,137.6,120.2C137.6,120.2,137.6,120.2,137.6,120.2z"/>
	<path id="XMLID_146_" fill="#151515" d="M112.3,228.7c0.8-4.9,0.3-9.6-0.3-14.4c-3-21.6-13.3-39.5-28.2-55c-6-6.2-13.2-9-22.1-7.7
		c-11.7,1.8-20,12.8-17.7,24.4c0.6,3.2,2.1,6.3,3.6,9.3c2.2,4.6,5,8.9,7.1,13.6c4.8,11,9.4,22.1,13.9,33.3
		c4,9.9,10.8,14.7,21.5,14.9C101.5,247.2,110.5,239.8,112.3,228.7z M70.3,234c-0.3-0.5-0.5-1-0.7-1.6c-2.5-6.4-4.8-12.9-7.6-19.2
		c-4-9-8.5-17.8-12.9-26.7c-2.3-4.5-4.7-8.9-4.7-14.2c0.1-10.7,8-19.1,18.6-20.2c9.3-1,16.2,2.9,22,9.4
		c9.1,10.2,16.9,21.2,21.5,34.2c2.3,6.5,5.4,18.8,5.2,27.2c0.3,5.9-1.6,11.1-5.7,16.3c-3.4,4.3-9.9,6.1-14.8,6.6
		c-0.4,0-0.7,0.1-1.1,0.1C84.6,246,76.6,245.3,70.3,234z"/>
	<path id="XMLID_145_" fill="#181A1C" d="M90.1,246.1c-5.5,0-13.5-0.8-19.8-12.1c-0.3-0.5-0.5-1-0.7-1.6c-2.5-6.4-4.8-12.9-7.6-19.2
		c-4-9-8.5-17.8-12.9-26.7c-2.3-4.5-4.7-8.9-4.7-14.2c0.1-10.7,8-19.1,18.6-20.2c9.3-1,16.2,2.9,22,9.4
		c9.1,10.2,16.9,21.2,21.5,34.2c2.3,6.5,5.4,18.8,5.2,27.2c0.3,5.9-1.6,11.1-5.7,16.3c-3.4,4.3-9.9,6.1-14.8,6.6
		C90.8,246,90.4,246.1,90.1,246.1z"/>
	<path id="XMLID_144_" fill="#191919" d="M114.1,194.5c-2.7-5.7-5.2-11.5-7.7-17.3c-0.3-0.8-0.4-1.7-0.4-2c0-3.8,2.2-6.4,5.5-7.1
		c3.2-0.7,5.8,0.5,7.2,3.7c2.4,5.4,4.9,10.8,7.2,16.2c2.1,4.9-0.1,9.3-4.8,10C118.1,198.4,115.4,197.1,114.1,194.5z"/>
	<path id="XMLID_122_" fill="#FFFFFA" d="M121.6,193.7c-1.5,0.8-3.4,0.5-4.4-1.9c-2.4-5.1-4.8-10.2-7.2-15.3c-0.2-0.5-0.4-1-0.5-1.5
		c-0.2-1.5,0.7-3.1,2-3.5c1.5-0.5,2.6,0.1,3.5,1.3c0.3,0.4,5.1,11.2,7.2,16.1C123.6,191.6,122.6,193.2,121.6,193.7z"/>
	<g id="XMLID_59_">
		<path id="XMLID_70_" fill="#A7A6A6" d="M122,175.2c-0.1-0.2-0.1-0.3-0.1-0.5c0-0.1,0-0.3,0.1-0.4c0-0.1,0.1-0.2,0.2-0.3
			c0.1-0.1,0.2-0.2,0.3-0.2l0.2,0.4c-0.1,0-0.1,0.1-0.2,0.2c0,0.1-0.1,0.1-0.1,0.2c0,0.1,0,0.1,0,0.2c0,0.1,0,0.2,0.1,0.2
			c0,0.1,0.1,0.1,0.1,0.2c0,0.1,0.1,0.1,0.1,0.1c0,0,0.1,0,0.1,0.1c0,0,0.1,0,0.1,0c0,0,0.1-0.1,0.1-0.1s0-0.1,0-0.2
			c0-0.1,0-0.1,0-0.2c0-0.1,0-0.2-0.1-0.3c0-0.2,0-0.3,0-0.4c0-0.1,0-0.2,0-0.3c0-0.1,0.1-0.2,0.1-0.2c0.1-0.1,0.1-0.1,0.2-0.2
			c0.1,0,0.2-0.1,0.3-0.1c0.1,0,0.2,0,0.3,0.1c0.1,0.1,0.2,0.1,0.3,0.2c0.1,0.1,0.1,0.2,0.2,0.3c0.1,0.1,0.1,0.3,0.1,0.4
			c0,0.1,0,0.3,0,0.4c0,0.1-0.1,0.2-0.2,0.3c-0.1,0.1-0.2,0.2-0.3,0.2l-0.2-0.4c0.3-0.1,0.3-0.4,0.2-0.7c-0.1-0.1-0.1-0.2-0.2-0.3
			s-0.2-0.1-0.3,0c0,0-0.1,0-0.1,0.1c0,0,0,0.1,0,0.1c0,0,0,0.1,0,0.2c0,0.1,0,0.1,0,0.2c0,0.1,0,0.2,0,0.2c0,0.1,0,0.2,0,0.3
			c0,0.1,0,0.2,0,0.2c0,0.1,0,0.2-0.1,0.2c0,0.1-0.1,0.1-0.1,0.2c-0.1,0.1-0.1,0.1-0.2,0.1c-0.1,0-0.2,0.1-0.3,0.1
			c-0.1,0-0.2,0-0.3-0.1c-0.1-0.1-0.2-0.1-0.3-0.2C122.1,175.4,122.1,175.3,122,175.2z"/>
		<path id="XMLID_68_" fill="#A7A6A6" d="M125.4,177.5l-0.3-0.7l-2,0.8l-0.2-0.5l2-0.8l-0.3-0.7l0.4-0.2l0.8,1.9L125.4,177.5z"/>
		<path id="XMLID_65_" fill="#A7A6A6" d="M124.4,180.7l-0.2-0.5l0.6-0.6l-0.4-0.8l-0.8,0l-0.2-0.5l2.8-0.1l0.2,0.4L124.4,180.7z
			 M125.1,179.4l0.6-0.6l-0.9,0L125.1,179.4z"/>
		<path id="XMLID_62_" fill="#A7A6A6" d="M125.4,183.1l-0.2-0.5l0.6-0.5c0,0,0.1-0.1,0.1-0.1c0,0,0-0.1,0.1-0.1c0,0,0-0.1,0-0.1
			c0-0.1,0-0.1,0-0.2l-0.2-0.5l-1,0.4l-0.2-0.4l2.4-1l0.5,1.1c0,0.1,0.1,0.1,0.1,0.2c0,0.1,0,0.1,0.1,0.2c0,0.1,0,0.1,0,0.2
			c0,0.1,0,0.1,0,0.2c0,0.1,0,0.1-0.1,0.2c0,0-0.1,0.1-0.1,0.1c0,0-0.1,0.1-0.1,0.1c0,0-0.1,0.1-0.1,0.1c-0.1,0.1-0.3,0.1-0.4,0.1
			c-0.1,0-0.3-0.1-0.4-0.2c0,0.1-0.1,0.3-0.3,0.4L125.4,183.1z M126.1,180.9l0.3,0.6c0,0.1,0.1,0.1,0.1,0.2c0,0.1,0.1,0.1,0.1,0.1
			c0,0,0.1,0,0.1,0c0,0,0.1,0,0.2,0c0.1,0,0.2-0.1,0.2-0.2c0-0.1,0-0.2-0.1-0.3l-0.3-0.6L126.1,180.9z"/>
		<path id="XMLID_60_" fill="#A7A6A6" d="M128.3,184.4l-0.3-0.7l-2,0.8l-0.2-0.5l2-0.8l-0.3-0.7l0.4-0.2l0.8,1.9L128.3,184.4z"/>
	</g>
	<path fill="#191919" d="M81.6,97.4c-22,0-39.8-17.8-39.8-39.7s17.8-39.7,39.8-39.7s39.8,17.8,39.8,39.7S103.5,97.4,81.6,97.4z
		 M113.8,57.6c0-17.8-14.5-32.2-32.3-32.2S49.3,39.9,49.3,57.6s14.5,32.2,32.3,32.2S113.8,75.4,113.8,57.6z"/>
	<g>
		<polygon fill="#F0756E" points="120.7,57.6 114.5,54.8 114.5,60.5 		"/>
		<circle fill="#FFFFFA" cx="106" cy="31.5" r="1.3"/>
		<circle fill="#FFFFFA" cx="106" cy="83.7" r="1.3"/>
		<circle fill="#FFFFFA" cx="57.1" cy="83.7" r="1.3"/>
		<circle fill="#FFFFFA" cx="57.1" cy="31.5" r="1.3"/>
		<polygon fill="#F0756E" points="81.5,18.4 78.7,24.6 84.4,24.6 		"/>
		<polygon fill="#F0756E" points="42.3,57.6 48.5,60.5 48.5,54.8 		"/>
		<polygon fill="#F0756E" points="81.7,96.8 84.6,90.6 78.9,90.6 		"/>
	</g>
	<g>
		<polygon id="polygon9" fill="#FFFFFA" points="105.5,95.3 102.8,99.4 102.8,158.5 105.5,162.6 111.3,162.6 113.8,158.7 
			113.8,139.2 119.3,135.7 119.3,121.8 119.3,121.8 113.8,118.3 113.8,99.2 111.3,95.3 		"/>
		<g>
			<path id="path11" fill="#1B1D1F" d="M115.1,126.2c-0.3,0-0.5,0.2-0.5,0.5v1.9h0.6v-1.8h0.2v1.4h0.6v-2L115.1,126.2L115.1,126.2
				L115.1,126.2z"/>
			<path id="path13" fill="#1B1D1F" d="M117.3,126.2c0.3,0,0.5,0.2,0.5,0.5v1.9h-0.6v-1.8h-0.2v1.4h-0.6v-2L117.3,126.2L117.3,126.2
				L117.3,126.2z"/>
			<polygon id="polygon15" fill="#1B1D1F" points="109.1,138.9 109.1,144.9 106.4,144.9 104.8,142.8 104.8,136.1 106.4,138.3 
				106.4,142.2 107.4,142.2 107.4,136.2 110,136.2 111.7,138.4 111.7,138.4 111.7,145.1 110.1,142.9 110.1,138.9 			"/>
			<polygon id="polygon17" fill="#1B1D1F" points="111.7,145.8 111.7,145.8 111.7,148.5 104.8,148.5 104.8,145.8 			"/>
			<polygon id="polygon19" fill="#1B1D1F" points="109.1,152.2 109.1,158.2 106.4,158.2 104.8,156.1 104.8,149.4 106.4,151.6 
				106.4,155.5 107.4,155.5 107.4,149.5 110,149.5 111.7,151.7 111.7,151.7 111.7,158.4 110.1,156.2 110.1,152.2 			"/>
			<polygon id="polygon21" fill="#1B1D1F" points="106.4,130.3 107.4,130.3 107.4,132.9 109.1,135.1 109.1,130.3 110.1,130.3 
				110.1,134.2 111.7,136.4 111.7,130 110.1,127.6 110.1,127.6 104.8,127.6 104.8,134.2 106.4,136.4 			"/>
			<polygon id="polygon23" fill="#1B1D1F" points="106.4,111.4 107.4,111.4 107.4,114 109.1,116.2 109.1,111.4 110.1,111.4 
				110.1,115.3 111.7,117.5 111.7,111 110.1,108.7 110.1,108.7 104.8,108.7 104.8,115.2 106.4,117.5 			"/>
			<polygon id="polygon25" fill="#1B1D1F" points="107.1,124.2 109.4,120.8 104.8,120.8 104.8,118.1 111.7,118.1 111.7,120.8 
				109.7,124.2 111.7,124.2 111.7,124.2 111.7,126.9 104.8,126.9 104.8,124.2 			"/>
			<polygon id="polygon27" fill="#1B1D1F" points="110.1,101.9 106.4,101.9 106.4,105.3 107.4,105.3 107.4,102.5 109.1,104.7 
				109.1,108 106.3,108 104.8,105.9 104.8,99.2 110,99.2 110,99.2 111.7,101.5 111.7,108.8 110.1,106.6 			"/>
			<path id="path29" fill="#1B1D1F" d="M118.6,126.6c0-0.6-0.6-1.2-1.3-1.2h-2.3c-0.7,0-1.3,0.5-1.3,1.2v2h0.6v-1.9
				c0-0.3,0.4-0.6,0.7-0.6h2.1c0.4,0,0.7,0.3,0.7,0.6v1.9h0.6L118.6,126.6L118.6,126.6L118.6,126.6z"/>
			<path id="path31" fill="#1B1D1F" d="M115.3,130.3h1.9v1.9h0.6v-2c0-0.3-0.2-0.5-0.5-0.5l-2.1,0c-0.3,0-0.5,0.2-0.5,0.5v1.2l1.5,0
				v-0.9h-0.6v0.3h-0.2L115.3,130.3L115.3,130.3L115.3,130.3z"/>
			<path id="path33" fill="#1B1D1F" d="M118.6,124.9V123c0-0.8-0.7-1.4-1.6-1.4c-0.9,0-1.6,0.6-1.6,1.4v0.6h-0.2v-2h-0.6v1.9
				c0,0.4,0.3,0.7,0.7,0.7c0.4,0,0.7-0.3,0.7-0.7l0-0.5c0-0.5,0.4-0.9,0.9-0.9c0.5,0,0.9,0.4,0.9,0.9v1.9L118.6,124.9L118.6,124.9z"
				/>
			<path id="path35" fill="#1B1D1F" d="M117.1,124.9v-2h-0.2l0,0.6c0,0.8-0.7,1.4-1.6,1.4c-0.9,0-1.6-0.6-1.6-1.4l0-1.9h0.6v1.9
				c0,0.5,0.4,0.9,0.9,0.9c0.5,0,0.9-0.4,0.9-0.9l0-0.5c0-0.4,0.3-0.7,0.7-0.7c0.4,0,0.7,0.3,0.7,0.7v1.9L117.1,124.9L117.1,124.9
				L117.1,124.9z"/>
			<path id="path37" fill="#1B1D1F" d="M117.9,134.4C117.9,134.4,118,134.4,117.9,134.4c0.1-0.2,0-0.2,0-0.2l-4.1-1.2l0,0.6l2.3,0.7
				l-0.8,0.2v-0.4h-0.6v1.3L117.9,134.4L117.9,134.4z"/>
			<path id="path39" fill="#1B1D1F" d="M113.8,130.1c0-0.6,0.6-1.2,1.3-1.2h2.3c0.7,0,1.3,0.5,1.3,1.2v2.1H118v-2
				c0-0.3-0.3-0.6-0.7-0.6h-2.1c-0.4,0-0.7,0.3-0.7,0.6v1.4h1.9v-1.1h0.6v1.7h-3l4.1,1.2c0.4,0.1,0.7,0.5,0.7,0.9
				c0,0.4-0.3,0.8-0.7,0.9l-4.2,1.2v-2.4h0.6v1.5l3.5-1c0.2-0.1,0.2-0.2,0.2-0.3c0-0.1-0.1-0.2-0.2-0.3l-4.2-1.2L113.8,130.1
				L113.8,130.1L113.8,130.1z"/>
		</g>
	</g>
	<path fill="#151617" d="M74.4,231.5c-3.2-8-6.1-16.1-9.6-23.9c-3.7-8.3-8-16.4-12.2-24.5c-3.2-6.3-3-8.4-2.2-13.2
		c0.6-3.5,4-9,8.6-11.2c2.5-1.2,5.4-1.7,8.2-1.5c6.4,0.6,10.1,3.9,12.8,8.1c10,15.3,17.3,31.9,23.5,49c1.1,2.9,2.3,6,2.7,9
		c1.4,10.1-5.7,18.3-15.9,18.7C82.5,242.2,77.4,238.8,74.4,231.5z"/>
	<circle fill="#121212" cx="79.2" cy="200.3" r="11.5"/>
	<circle fill="#262626" cx="79.2" cy="200.3" r="9.9"/>
	<path id="XMLID_92_" fill="#F0756E" d="M80.3,202.6c0.2,0.2,0.6,0.3,1,0.1l0.4-0.2c0.8-0.4,0.9-1,0.5-1.8l-1.9-4l-0.7,0.3l-3,1.4
		l-0.7,0.4l1.9,4c0.4,0.9,1,1.1,1.8,0.8l0.4-0.2C80.2,203.2,80.4,203,80.3,202.6z M78.5,202.5l-0.2-0.5l-1.3-2.8l1.1-0.5l1.3,2.8
		l0.2,0.5c0.2,0.3,0,0.6-0.3,0.8C78.9,202.9,78.7,202.9,78.5,202.5z M80.4,201.6l-1.5-3.3l1.1-0.5l1.5,3.3c0.2,0.3,0,0.6-0.3,0.8
		C80.8,202.1,80.6,202,80.4,201.6z"/>
	<circle fill="#191919" cx="73.9" cy="202.9" r="1.1"/>
	<circle fill="#121212" cx="66.1" cy="174" r="11.5"/>
	<circle fill="#262626" cx="66.1" cy="174" r="9.9"/>
	<path id="XMLID_97_" fill="#F0756E" d="M66.6,178.2l-0.4-0.9l0.9-1.4l-1.5-3.2l-1.6-0.1l-0.4-0.9l5.7,0.5l0.6,1.3L66.6,178.2z
		 M67.6,175.3l1.3-1.9l-0.3-0.6l-2.2-0.1L67.6,175.3z"/>
	<circle fill="#262626" cx="90" cy="226.4" r="11.5"/>
	<circle fill="#212121" cx="90" cy="226.4" r="9.9"/>
	<path id="XMLID_90_" fill="#F0756E" d="M91.8,227.6l-0.8-1.9c-0.5-1.3-1-1-2-0.5s-1.6,0.5-1.1,1.8l1.4,3.4l-0.8,0.3l-1.4-3.4
		c-0.7-1.8,0-2.2,1.5-2.9c1.5-0.6,2.4-0.8,3.1,1l1.4,3.4l-0.8,0.3L91.8,227.6z"/>
	<g>
		<path fill="#FFFFFA" d="M95.7,182.6l-0.4-0.9l-2.5,1.1l-0.3-0.6l2.5-1.1l-0.4-0.9l0.5-0.2l1.1,2.4L95.7,182.6z"/>
		<path fill="#FFFFFA" d="M94.6,186.8l-0.3-0.6l0.7-0.7c0,0,0.1-0.1,0.1-0.2c0-0.1,0.1-0.1,0.1-0.2c0-0.1,0-0.1,0-0.2
			c0-0.1,0-0.1,0-0.2l-0.3-0.6l-1.2,0.6l-0.3-0.6l3-1.4l0.6,1.3c0,0.1,0.1,0.2,0.1,0.2c0,0.1,0.1,0.1,0.1,0.2c0,0.1,0,0.1,0,0.2
			c0,0.1,0,0.1,0,0.2c0,0.1,0,0.1-0.1,0.2c0,0.1-0.1,0.1-0.1,0.2c0,0-0.1,0.1-0.2,0.1c-0.1,0-0.1,0.1-0.2,0.1
			c-0.2,0.1-0.4,0.1-0.5,0.1c-0.2,0-0.3-0.1-0.5-0.2c0,0.2-0.1,0.3-0.3,0.5L94.6,186.8z M95.4,183.9l0.3,0.7c0,0.1,0.1,0.2,0.1,0.2
			c0,0.1,0.1,0.1,0.1,0.1s0.1,0,0.2,0c0.1,0,0.1,0,0.2-0.1c0.1-0.1,0.2-0.1,0.2-0.3c0-0.1,0-0.3-0.1-0.4l-0.4-0.8L95.4,183.9z"/>
		<path fill="#FFFFFA" d="M95.2,187.9l-0.3-0.6l3-1.4l0.3,0.6L95.2,187.9z"/>
		<path fill="#FFFFFA" d="M96,189.9c-0.1-0.2-0.2-0.4-0.2-0.6c0-0.2,0-0.4,0.1-0.6c0.1-0.2,0.2-0.4,0.4-0.5s0.4-0.3,0.6-0.4
			c0.2-0.1,0.5-0.2,0.7-0.2s0.4,0,0.6,0.1c0.2,0.1,0.4,0.2,0.5,0.3c0.2,0.1,0.3,0.3,0.4,0.5c0.1,0.2,0.1,0.4,0.2,0.5
			c0,0.2,0,0.3,0,0.5c0,0.2-0.1,0.3-0.2,0.4c-0.1,0.1-0.2,0.2-0.4,0.3l-0.3-0.6c0.1-0.1,0.2-0.1,0.2-0.2s0.1-0.2,0.1-0.2
			s0-0.2,0-0.3c0-0.1,0-0.2-0.1-0.3c-0.1-0.1-0.1-0.2-0.2-0.3s-0.2-0.1-0.3-0.2c-0.1,0-0.3,0-0.4,0c-0.1,0-0.3,0.1-0.5,0.1
			c-0.2,0.1-0.3,0.2-0.4,0.3c-0.1,0.1-0.2,0.2-0.2,0.3s-0.1,0.2-0.1,0.4s0,0.3,0.1,0.4c0.1,0.2,0.2,0.3,0.3,0.4
			c0.1,0.1,0.3,0.2,0.4,0.2l0.3-0.1l-0.3-0.7l0.5-0.2l0.6,1.3l-1.6,0.7l-0.2-0.4l0.2-0.2c-0.1-0.1-0.3-0.2-0.4-0.3
			C96.2,190.2,96.1,190.1,96,189.9z"/>
		<path fill="#FFFFFA" d="M97.6,193.3c-0.1-0.2-0.2-0.4-0.2-0.6s0-0.4,0.1-0.6c0.1-0.2,0.2-0.4,0.4-0.5c0.2-0.2,0.4-0.3,0.6-0.4
			c0.2-0.1,0.5-0.2,0.7-0.2c0.2,0,0.4,0,0.6,0.1c0.2,0.1,0.4,0.2,0.5,0.3c0.2,0.1,0.3,0.3,0.4,0.5c0.1,0.2,0.1,0.4,0.2,0.5
			c0,0.2,0,0.3,0,0.5c0,0.2-0.1,0.3-0.2,0.4c-0.1,0.1-0.2,0.2-0.4,0.3l-0.3-0.6c0.1-0.1,0.2-0.1,0.2-0.2c0.1-0.1,0.1-0.1,0.1-0.2
			s0-0.2,0-0.3c0-0.1,0-0.2-0.1-0.3c-0.1-0.1-0.1-0.2-0.2-0.3s-0.2-0.1-0.3-0.2s-0.3,0-0.4,0c-0.1,0-0.3,0.1-0.5,0.1
			c-0.2,0.1-0.3,0.2-0.4,0.3c-0.1,0.1-0.2,0.2-0.2,0.3c-0.1,0.1-0.1,0.2-0.1,0.4s0,0.3,0.1,0.4c0.1,0.2,0.2,0.3,0.3,0.4
			c0.1,0.1,0.3,0.2,0.4,0.2l0.3-0.1l-0.3-0.7l0.5-0.2l0.6,1.3l-1.6,0.7l-0.2-0.4l0.2-0.2c-0.1-0.1-0.3-0.2-0.4-0.3
			C97.8,193.6,97.7,193.4,97.6,193.3z"/>
		<path fill="#FFFFFA" d="M99.6,197.5l-1.1-2.3l3-1.4l1,2.2l-0.5,0.2l-0.8-1.7l-0.7,0.3l0.7,1.6l-0.5,0.2l-0.7-1.6l-0.8,0.4l0.8,1.7
			L99.6,197.5z"/>
		<path fill="#FFFFFA" d="M101.1,200.7l-0.3-0.6l0.7-0.7c0,0,0.1-0.1,0.1-0.2c0-0.1,0.1-0.1,0.1-0.2c0-0.1,0-0.1,0-0.2
			s0-0.1-0.1-0.2l-0.3-0.6l-1.2,0.6l-0.3-0.6l3-1.4l0.6,1.3c0,0.1,0.1,0.2,0.1,0.2s0.1,0.1,0.1,0.2c0,0.1,0,0.1,0,0.2
			c0,0.1,0,0.1,0,0.2c0,0.1,0,0.1-0.1,0.2c0,0.1-0.1,0.1-0.1,0.2c0,0.1-0.1,0.1-0.2,0.1c-0.1,0-0.1,0.1-0.2,0.1
			c-0.2,0.1-0.4,0.1-0.5,0.1c-0.2,0-0.3-0.1-0.5-0.2c0,0.2-0.1,0.3-0.3,0.5L101.1,200.7z M101.9,197.9l0.3,0.7
			c0,0.1,0.1,0.2,0.1,0.2c0,0.1,0.1,0.1,0.1,0.1c0.1,0,0.1,0,0.2,0c0.1,0,0.1,0,0.2-0.1c0.1-0.1,0.2-0.1,0.2-0.3
			c0-0.1,0-0.3-0.1-0.4l-0.4-0.8L101.9,197.9z"/>
	</g>
	<ellipse fill="#1B1D1F" cx="81.5" cy="57.6" rx="32.3" ry="32.2"/>
	<path id="XMLID_1_" fill="#313336" d="M105.5,57.7c0-13.3-10.3-23.7-23.6-23.8C68.5,33.9,58,44.3,58,57.6
		c0,13.3,10.5,23.8,23.8,23.8C94.9,81.4,105.4,70.9,105.5,57.7z"/>
	<path id="XMLID_119_" fill="#0A0A0A" d="M81.6,32.6c14,0,25,11.2,25,25.2c0,13.7-11.3,25-25.1,25c-13.9,0-25.2-11.4-25.2-25.2
		C56.4,43.8,67.7,32.6,81.6,32.6z M105.3,57.7C105.3,44.4,95,34,81.7,34c-13.4-0.1-23.9,10.4-23.9,23.6c0,13.3,10.5,23.8,23.8,23.8
		C94.8,81.4,105.3,70.9,105.3,57.7z"/>
	<polygon fill="#242629" points="96.8,43.1 93.2,44.8 95.1,46.8 	"/>
	<polygon fill="#242629" points="67,43.1 68.7,46.8 70.6,44.8 	"/>
	<polygon fill="#242629" points="66.8,72.9 70.5,71.1 68.6,69.2 	"/>
	<polygon fill="#242629" points="96.7,73.1 94.9,69.5 93,71.4 	"/>
	<path id="XMLID_75_" fill="#151515" d="M81.5,79.7c-1.1,0-2.1,0-3.2,0c-1.6-0.1-2.4-0.9-2.5-2.5c-0.2-2.1-0.4-4.3-0.8-6.4
		c-0.8-3.6-3.2-5.9-6.8-6.7c-2-0.4-4-0.6-6-0.8c-2.2-0.2-2.8-0.6-2.9-2.8c0-1-0.1-1.9-0.1-2.9c0-1,0-1.9,0.1-2.9
		c0.1-2.1,0.7-2.6,2.9-2.8c2-0.2,4-0.4,6-0.8c3.6-0.8,5.9-3.1,6.8-6.7c0.5-2.1,0.7-4.2,0.8-6.4c0.1-1.6,0.9-2.5,2.5-2.5
		c1.1,0,2.1,0,3.2,0c1.1,0,2.1,0,3.2,0c1.6,0.1,2.4,0.9,2.5,2.5c0.2,2.1,0.4,4.3,0.8,6.4c0.8,3.6,3.2,5.9,6.8,6.7c2,0.4,4,0.6,6,0.8
		c2.2,0.2,2.8,0.6,2.9,2.8c0,1,0.1,1.9,0.1,2.9c0,1,0,1.9-0.1,2.9c-0.1,2.1-0.7,2.6-2.9,2.8c-2,0.2-4,0.4-6,0.8
		c-3.6,0.8-5.9,3.1-6.8,6.7c-0.5,2.1-0.7,4.2-0.8,6.4c-0.1,1.6-0.9,2.5-2.5,2.5C83.7,79.7,82.6,79.7,81.5,79.7z"/>
	<g>
		<rect x="76.8" y="36.6" fill="#212121" width="9.4" height="41.9"/>
		<rect x="60.6" y="52.9" fill="#212121" width="41.9" height="9.4"/>
	</g>
	<circle id="XMLID_77_" fill="#151617" cx="81.5" cy="57.6" r="4.6"/>
</g>
</svg>
