<?xml version="1.0" encoding="utf-8"?>
<!-- Generator: Adobe Illustrator 19.0.0, SVG Export Plug-In . SVG Version: 6.00 Build 0)  -->
<svg version="1.1" baseProfile="tiny" id="Layer_1" xmlns="http://www.w3.org/2000/svg" xmlns:xlink="http://www.w3.org/1999/xlink"
	 x="0px" y="0px" viewBox="0 0 470.3 247.7" xml:space="preserve">
<g>
	<path fill="#1B1D1F" d="M235.1,197c45.7-0.5,75.8,4.4,99.1,21.2c18.9,13.6,39.4,30.2,67.8,29.5c5.1-0.1,17.5-0.7,30.7-8
		c6.9-3.8,13.8-9.7,20.2-18.8c44.2-62.7-8.8-123.6-13-129.5C375.6,1.5,281.2,0,235.1,0C189.1,0,94.7,1.5,30.5,91.3
		c-4.2,5.8-57.2,66.8-13,129.5c6.4,9.1,13.3,14.9,20.2,18.8c13.2,7.4,25.6,7.9,30.7,8c28.4,0.7,48.8-15.9,67.8-29.5
		C159.3,201.4,189.4,196.5,235.1,197z"/>
	<path fill="#111111" d="M317.8,8.4C285.3,0.3,255.5,0,235.1,0c-20.4,0-50.2,0.3-82.6,8.4l0,0c4.1,9.6,6.2,14,10.3,18.4
		c0.9,1,3.5,0.9,6.5,0.2c20.6-6.9,51-7,65.8-7c14.8,0,45.2,0.1,65.8,7c3,0.7,5.6,0.8,6.5-0.2C311.6,22.4,313.7,18,317.8,8.4"/>
	
		<ellipse transform="matrix(0.5623 -0.8269 0.8269 0.5623 49.4077 341.1413)" fill="#111111" cx="347" cy="123.9" rx="73.3" ry="94.7"/>
	
		<ellipse transform="matrix(0.5623 -0.8269 0.8269 0.5623 48.5621 335.9628)" fill="#090909" cx="341.6" cy="122.1" rx="59.9" ry="74.9"/>
	<circle fill="#6A6A6D" cx="294.1" cy="108.3" r="14.5"/>
	<circle fill="#6A6A6D" cx="332.3" cy="91.9" r="14.5"/>
	<circle fill="#6A6A6D" cx="371.9" cy="79.3" r="14.5"/>
	<circle fill="#262626" cx="309.2" cy="153.9" r="19"/>
	<circle fill="#262626" cx="355.1" cy="134.6" r="19"/>
	<circle fill="#262626" cx="401" cy="118.2" r="19"/>
	
		<ellipse transform="matrix(-0.5623 -0.8269 0.8269 -0.5623 84.8368 280.2622)" fill="#191818" cx="116.6" cy="117.7" rx="69.3" ry="85"/>
	
		<ellipse transform="matrix(-0.5623 -0.8269 0.8269 -0.5623 91.3363 275.0665)" fill="#0F0F0F" cx="118.5" cy="113.4" rx="54.8" ry="63.7"/>
	<circle cx="119.2" cy="111.1" r="47.5"/>
	<circle fill="#373737" cx="119.2" cy="111.1" r="41.8"/>
	<polygon fill="#1F1F1F" points="95.8,86.3 99.1,93.3 102.7,89.7 	"/>
	<polygon fill="#1F1F1F" points="95.8,134.6 102.7,131.3 99.1,127.7 	"/>
	<polygon fill="#1F1F1F" points="144,134.9 140.7,127.9 137.1,131.5 	"/>
	<polygon fill="#1F1F1F" points="144.5,86.7 137.6,90 141.2,93.6 	"/>
	<path id="XMLID_23_" fill="#181818" d="M161,111.1c0,2,0,4-0.1,6.1c-0.1,3.1-1.7,4.4-4.8,4.7c-4,0.3-8.1,0.7-12,1.6
		c-6.8,1.5-11.1,6-12.6,12.7c-0.8,3.7-1.2,7.5-1.5,11.2c-0.4,4.1-1.2,5.3-5.2,5.4c-1.8,0.1-3.7,0.1-5.5,0.1c-1.8,0-3.7,0-5.5-0.1
		c-4-0.1-4.9-1.3-5.2-5.4c-0.3-3.8-0.7-7.6-1.5-11.2c-1.5-6.8-5.8-11.2-12.6-12.7c-3.9-0.9-8-1.3-12-1.6c-3.1-0.2-4.7-1.6-4.8-4.7
		c-0.1-2-0.1-4-0.1-6.1c0-2,0-4,0.1-6.1c0.1-3.1,1.7-4.4,4.8-4.7c4-0.3,8.1-0.7,12-1.6c6.8-1.5,11.1-6,12.6-12.7
		c0.8-3.7,1.2-7.5,1.5-11.2c0.4-4.1,1.2-5.3,5.2-5.4c1.8-0.1,3.7-0.1,5.5-0.1c1.8,0,3.7,0,5.5,0.1c4,0.1,4.9,1.3,5.2,5.4
		c0.3,3.8,0.7,7.6,1.5,11.2c1.5,6.8,5.8,11.2,12.6,12.7c3.9,0.9,8,1.3,12,1.6c3.1,0.2,4.7,1.6,4.8,4.7
		C161,107.1,161,109.1,161,111.1z"/>
	<polygon fill="#2C2C2C" points="104,119.7 79.6,119.7 79.6,101.9 104,101.9 110.3,96 110.3,71.6 128.1,71.6 128.1,96 134.6,102.3 
		158.9,102.3 158.9,120.2 134.6,120.2 128.3,126.1 128.3,150.4 110.4,150.4 110.4,126.1 	"/>
	<path id="XMLID_22_" fill="#242424" d="M128,111.1c0,4.8-3.9,8.8-8.8,8.8c-4.8,0-8.8-3.9-8.8-8.8c0-4.8,3.9-8.7,8.8-8.7
		C124.1,102.4,128,106.3,128,111.1z"/>
	<path id="XMLID_1_" fill="#404040" d="M119.2,119.9c-3.3,0-6.2-1.9-7.7-4.6v0c1.5-2.7,4.4-4.5,7.7-4.5h0c3.3,0,6.2,1.8,7.7,4.5v0
		C125.4,118,122.5,119.9,119.2,119.9"/>
	<path id="XMLID_12_" fill="#141415" d="M362.1,131.8c0.9-0.4,1.2-0.9,1.2-1.5l-0.1-0.5c-0.3-0.9-1.9-0.9-4.7,0.1l-12.5,4.6l0.3,0.9
		l1.4,3.7l0.4,0.9l12.5-4.6c2.8-1,4-2,3.6-2.9l-0.2-0.5C363.6,131.7,363,131.6,362.1,131.8z M360.3,134.4l-1.6,0.6l-8.7,3.2
		l-0.5-1.4l8.8-3.2l1.5-0.5c1-0.4,1.7-0.3,1.8,0.1C361.8,133.6,361.4,134.1,360.3,134.4z M359.5,132.1l-10.3,3.8l-0.5-1.4l10.3-3.8
		c1-0.4,1.7-0.3,1.8,0.1C361,131.3,360.5,131.8,359.5,132.1z"/>
	<circle fill="#191818" cx="358.9" cy="144.1" r="1.1"/>
	<path id="XMLID_9_" fill="#141415" d="M317.5,152.4l-2.2,0.8l-2.6-0.8l-8.3,3.1l-1.3,2.3l-2.3,0.8l4.5-8l3.2-1.2L317.5,152.4z
		 M311.5,151.8l-3.5-1.2l-1.4,0.5l-1.6,3.1L311.5,151.8z"/>
	<path id="XMLID_8_" fill="#141415" d="M403.8,115.5l-6,2.1c-4,1.4-3.5,1.9-3,3.1c0.4,1.2,0.3,2,4.3,0.5l10.6-3.7l0.3,0.9l-10.6,3.7
		c-5.6,2-6.4,1.2-7-0.6c-0.6-1.8-0.5-2.9,5-4.9L408,113l0.3,0.9L403.8,115.5z"/>
	<path fill="#484849" d="M300.3,109.9l-3.3-0.5c-1.3-0.2-2.1-0.3-2.9-0.4l-0.1,0c-0.5,0.6-0.9,1.2-1.8,2.2l-2,2.4l-3.2,1.1l5.2-5.8
		l-7.5-1.1l3.2-1.2l3.4,0.6c0.9,0.2,1.7,0.3,2.4,0.4l0.1,0c0.5-0.6,0.9-1.1,1.5-1.8l2.3-2.6l3.2-1.1l-5.3,5.6l7.9,1.1L300.3,109.9z"
		/>
	<path fill="#484849" d="M331.9,95.9l-1-2.9l-8.1-1.5l3.1-1.1l3.7,0.8c1,0.2,1.8,0.4,2.6,0.6l0.1,0c0.4-0.7,1-1.4,1.6-2.2l2.4-3
		l3.1-1.1l-5.7,6.5l1,2.9L331.9,95.9z"/>
	<path fill="#484849" d="M365.2,85l9.8-9.8l0,0l-10.8,3.9l-0.3-0.7l14.3-5.2l0.2,0.5l-9.7,9.7l0,0l11.9-4.3l0.3,0.7l-15.5,5.6
		L365.2,85z"/>
	<g id="XMLID_66_">
		<path id="XMLID_105_" fill="#D5D5D5" d="M215.6,125.1c-0.4,0-0.8-0.1-1.1-0.2c-0.3-0.1-0.6-0.3-0.8-0.6c-0.2-0.3-0.4-0.6-0.5-0.9
			c-0.1-0.4-0.2-0.7-0.2-1.2h1.1c0,0.3,0.1,0.5,0.2,0.7c0.1,0.2,0.2,0.4,0.3,0.5c0.1,0.1,0.3,0.2,0.4,0.3c0.2,0.1,0.4,0.1,0.5,0.1
			c0.2,0,0.3,0,0.5-0.1c0.1,0,0.3-0.1,0.4-0.2c0.1-0.1,0.2-0.2,0.2-0.3c0.1-0.1,0.1-0.3,0.1-0.4c0-0.2,0-0.3-0.1-0.4
			c-0.1-0.1-0.1-0.2-0.3-0.3c-0.1-0.1-0.3-0.2-0.5-0.2c-0.2-0.1-0.5-0.1-0.8-0.2c-0.3-0.1-0.6-0.2-0.9-0.3c-0.2-0.1-0.4-0.3-0.6-0.5
			c-0.2-0.2-0.3-0.4-0.4-0.6c-0.1-0.2-0.1-0.5-0.1-0.8c0-0.3,0.1-0.6,0.2-0.9c0.1-0.3,0.3-0.5,0.4-0.7c0.2-0.2,0.4-0.4,0.7-0.5
			c0.3-0.1,0.6-0.2,0.9-0.2c0.3,0,0.7,0.1,0.9,0.2c0.3,0.1,0.5,0.3,0.7,0.5c0.2,0.2,0.4,0.5,0.5,0.8c0.1,0.3,0.2,0.7,0.2,1.1h-1.1
			c-0.1-0.9-0.5-1.3-1.2-1.3c-0.4,0-0.6,0.1-0.8,0.2c-0.2,0.2-0.3,0.4-0.3,0.6c0,0.1,0,0.2,0.1,0.3c0,0.1,0.1,0.2,0.2,0.2
			s0.2,0.1,0.4,0.2c0.1,0.1,0.3,0.1,0.5,0.2c0.2,0,0.4,0.1,0.5,0.1s0.4,0.1,0.6,0.2c0.2,0.1,0.3,0.2,0.5,0.3
			c0.2,0.1,0.3,0.3,0.4,0.4c0.1,0.2,0.2,0.4,0.3,0.6c0.1,0.2,0.1,0.5,0.1,0.8c0,0.4-0.1,0.7-0.2,1c-0.1,0.3-0.3,0.5-0.5,0.8
			c-0.2,0.2-0.4,0.4-0.7,0.5C216.2,125,215.9,125.1,215.6,125.1z"/>
		<path id="XMLID_102_" fill="#D5D5D5" d="M223.4,118.6h-1.9l0,6.4h-1.1l0-6.4h-1.8l0-1.3h4.8V118.6z"/>
		<path id="XMLID_90_" fill="#D5D5D5" d="M229.4,125h-1.2l-0.7-2.2h-2.1l-0.6,2.2l-1.2,0l2.3-7.7h1.1L229.4,125z M227.1,121.6
			l-0.7-2.4l-0.7,2.4L227.1,121.6z"/>
		<path id="XMLID_70_" fill="#D5D5D5" d="M235.2,125H234l-0.6-2.1c0-0.1-0.1-0.3-0.2-0.4c-0.1-0.1-0.1-0.2-0.2-0.3
			c-0.1-0.1-0.2-0.2-0.3-0.2c-0.1,0-0.2-0.1-0.4-0.1h-1.2l0,3.1h-1.1l0-7.7h2.7c0.2,0,0.3,0,0.5,0c0.1,0,0.3,0,0.4,0.1
			c0.1,0,0.3,0.1,0.4,0.2c0.1,0.1,0.2,0.2,0.3,0.3c0.1,0.1,0.2,0.2,0.3,0.4c0.1,0.1,0.1,0.3,0.2,0.4c0,0.1,0.1,0.3,0.1,0.5
			c0,0.2,0,0.3,0,0.5c0,0.5-0.1,0.9-0.3,1.2c-0.2,0.3-0.4,0.6-0.7,0.8c0.3,0.3,0.5,0.6,0.6,1.2L235.2,125z M231.2,120.6h1.5
			c0.2,0,0.4,0,0.5-0.1c0.1,0,0.3-0.1,0.4-0.2c0.1-0.1,0.2-0.2,0.2-0.3s0.1-0.3,0.1-0.5c0-0.3-0.1-0.6-0.2-0.8
			c-0.2-0.2-0.4-0.2-0.8-0.2h-1.6V120.6z"/>
		<path id="XMLID_68_" fill="#D5D5D5" d="M240.6,118.6h-1.9l0,6.4h-1.1l0-6.4h-1.8l0-1.3h4.8V118.6z"/>
	</g>
	<circle fill="#484849" cx="329.7" cy="101.3" r="1.1"/>
	<circle fill="#484849" cx="339.7" cy="98" r="1.1"/>
	<g id="SEGA_1_">
		<path id="XMLID_131_" fill="#D5D5D5" d="M252.9,65.9c-2.5,0-5.1,0-7.7,0c0-0.6,0-1.2,0-2c1.7,0,3.4,0,5.3,0
			c-0.4-1.3-0.7-2.3-1-3.4c-0.8-2.6-1.5-5.3-2.3-7.8c-0.2-0.6-0.8-1.4-1.3-1.5c-0.8-0.2-1.1,0.8-1.4,1.6c-1.2,4-2.4,8-3.5,12
			c-0.3,0.9-0.7,1.3-1.5,1.2c-2.4-0.1-4.7,0-7.1,0c-2.4,0-4-1.8-4-4.5c0-2.5-0.1-4.9,0-7.4c0.1-2.8,1.6-4.5,4-4.5c2.1,0,4.3,0,6.5,0
			c0,0.7,0,1.3,0,2.1c-1.8,0-3.7,0-5.5,0c-2.6,0-3.2,0.7-3.2,3.7c0,1.9,0,3.7,0,5.6c0,2,0.8,3,2.5,3c1.4,0,2.8,0,4.2,0
			c0-2.2,0-4.3,0-6.5c-1.2,0-2.3,0-3.5,0c0-0.8,0-1.3,0-2c1.8,0,3.5,0,5.5,0c0,2.9,0,5.7,0,8.6c0.1,0,0.2,0,0.3,0
			c1.2-3.9,2.3-7.9,3.5-11.8c0.7-2.3,1.9-3.2,3.8-2.8c1.1,0.2,1.9,0.9,2.3,2.1c1.4,4.7,2.8,9.5,4.2,14.2
			C253,65.7,252.9,65.8,252.9,65.9z"/>
		<path id="XMLID_130_" fill="#D5D5D5" d="M204.6,66c0-0.7,0-1.3,0-2.1c2.1,0,4.1,0,6.1,0c1.7,0,2.9-1.4,3-3.2
			c0.1-1.7-1.2-3.2-2.8-3.3c-0.7-0.1-1.4,0-2-0.1c-1-0.1-1.8-1.2-1.8-2.4c0-1.3,0.7-2.4,1.8-2.4c2.2-0.1,4.4,0,6.7,0
			c0,0.7,0,1.3,0,2.1c-1.1,0-2.2,0-3.4,0c-1,0-2.1,0-3.1,0c0,0.2,0,0.5,0,0.7c0.6,0,1.2,0.1,1.9,0.1c2.3,0.1,4,1.6,4.6,4.1
			c0.7,3.1-1.3,6.4-4.1,6.6C209.2,66.1,206.9,66,204.6,66z"/>
		<path id="XMLID_129_" fill="#D5D5D5" d="M204.6,63.1c0-0.7,0-1.3,0-2.1c2.2,0,4.3,0,6.5,0c0-0.2,0-0.4,0-0.6c-0.7,0-1.3-0.1-2-0.1
			c-1.9,0-3.2-1-4.1-2.9c-0.8-1.9-0.7-3.9,0.4-5.6c0.8-1.2,1.8-2,3.1-2.1c2.3-0.1,4.6,0,7,0c0,0.7,0,1.3,0,2.1c-2.1,0-4.1,0-6.2,0
			c-2,0-3.4,2.2-2.7,4.3c0.4,1.3,1.4,2.1,2.8,2.2c0.6,0,1.3,0,1.9,0.1c1,0.1,1.8,1.2,1.8,2.4c0,1.2-0.8,2.4-1.8,2.4
			C209.1,63.1,206.9,63.1,204.6,63.1z"/>
		<path id="XMLID_127_" fill="#D5D5D5" d="M227.4,49.6c0,0.7,0,1.3,0,2c-2,0-4,0-6.1,0c-2.1,0-2.9,0.8-2.9,3.3c0,2,0,3.9,0,5.9
			c0,2.3,0.8,3.2,2.7,3.2c2,0,4,0,6.1,0c0,0.7,0,1.3,0,2.1c-1.5,0-3,0-4.5,0c-0.9,0-1.9,0-2.8,0c-1.7-0.1-3.3-1.9-3.3-3.9
			c-0.1-2.9-0.1-5.7,0-8.6c0-1.8,1.4-3.7,3-3.8C222.3,49.5,224.9,49.6,227.4,49.6z"/>
		<path id="XMLID_123_" fill="#D5D5D5" d="M241.3,65.9c1.3-4.5,2.6-8.8,3.9-13.2c0.1-0.3,0.4-0.6,0.6-0.7c0.1-0.1,0.5,0.3,0.6,0.5
			c1.1,3.5,2.1,7,3.2,10.6c-1.5,0-3,0-4.4,0c0-0.5-0.1-1-0.1-1.4c-0.1,0-0.1-0.1-0.2-0.1c-0.3,0.8-0.5,1.6-0.8,2.4
			C243.5,66.2,243.5,66.2,241.3,65.9z M245.1,60.7c0.6,0,1,0,1.5,0c-0.2-0.8-0.4-1.5-0.7-2.2c-0.1,0-0.2,0-0.3,0
			C245.5,59.2,245.3,59.9,245.1,60.7z"/>
		<path id="XMLID_122_" fill="#D5D5D5" d="M234.8,60.5c-0.6-0.2-0.9-0.3-1.3-0.4c0-0.6,0-1.2,0-1.8c0.9,0,1.9,0,2.9,0
			c0,1.6,0,3.1,0,4.8c-1.5,0-2.9,0.1-4.4-0.1c-0.4,0-1-0.8-1-1.3c-0.1-2.6-0.1-5.2,0-7.8c0-0.9,0.5-1.4,1.3-1.5c2.2,0,4.4,0,6.6,0
			c0,0.7,0,1.3,0,2.1c-1.6,0-3.2,0.1-4.8,0c-1,0-1.4,0.4-1.3,1.5c0.1,1.2,0,2.4,0,3.6C232.7,61.1,233.3,61.4,234.8,60.5z"/>
		<path id="XMLID_121_" fill="#D5D5D5" d="M221.2,60.9c2,0.4,4.1,0,6.2,0.2c0,0.7,0,1.2,0,2c-2.4,0-4.7,0.1-7.1-0.1
			c-0.4,0-0.9-0.9-1-1.4c-0.2-1,0-2.1,0-3.3c2.2,0,4.4,0,6.7,0c0,0.6,0,1.2,0,1.9c-1.6,0-3.1,0-4.7,0
			C221.2,60.4,221.2,60.7,221.2,60.9z"/>
		<path id="XMLID_116_" fill="#D5D5D5" d="M227.4,52.5c0,0.7,0,1.3,0,2c-2.1,0.3-4.2-0.2-6.3,0.3c0,0.2,0,0.4,0,0.5
			c1.5,0,3.1,0,4.7,0c0,0.8,0,1.4,0,2c-2.2,0-4.3,0-6.7,0c0-1.2-0.1-2.4,0-3.7c0.1-0.4,0.7-1.1,1-1.1
			C222.7,52.4,225,52.5,227.4,52.5z"/>
	</g>
	<g>
		<path fill="#191818" d="M243.7,115.1h-35.3c-3.7,0-6.8-3-6.8-6.8v-4.8c0-3.7,3-6.8,6.8-6.8h35.3c3.7,0,6.8,3,6.8,6.8v4.8
			C250.4,112,247.4,115.1,243.7,115.1z"/>
		<path fill="#B7B7B7" d="M241.3,110.2h-31.5c-1.7,0-3.1-1.4-3.1-3.1v-2.2c0-1.7,1.4-3.1,3.1-3.1h31.5c1.7,0,3.1,1.4,3.1,3.1v2.2
			C244.4,108.8,243,110.2,241.3,110.2z"/>
	</g>
</g>
</svg>
