<?xml version="1.0" encoding="utf-8"?>
<!-- Generator: Adobe Illustrator 19.0.0, SVG Export Plug-In . SVG Version: 6.00 Build 0)  -->
<svg version="1.1" baseProfile="tiny" id="Layer_1" xmlns="http://www.w3.org/2000/svg" xmlns:xlink="http://www.w3.org/1999/xlink"
	 x="0px" y="0px" viewBox="0 0 307.9 133.9" xml:space="preserve">
<g>
	<path fill="#BDBDBD" d="M209.6,0.9c-0.8,0-1.7,0.1-2.5,0.4c-0.8,0.3-1.4,1.1-1.4,2.1h0.5c0,0.2,0,0.5,0.3,0.5L242,3.8
		c12.7,0.4,23.8,4.1,33.4,10c0.4,0.2,0.6-0.2,0.6-0.4c0-0.7-0.1-1.2-0.1-1.7h0.1c0-0.7,0.1-1.2,0-1.7c-0.1-0.5-0.3-1-0.9-1.3
		c0,0,0,0,0,0c0,0,0,0,0,0c-9.6-5.4-20.6-7.9-32.3-7.9H209.6z M209.6,0.9"/>
	<path fill="#BDBDBD" d="M98.5,0.9c0.8,0,1.7,0.1,2.5,0.4c0.8,0.3,1.4,1.1,1.4,2.1h-0.5c0,0.2,0,0.5-0.3,0.5L66.1,3.8
		c-12.7,0.4-23.8,4.1-33.4,10c-0.4,0.2-0.6-0.2-0.6-0.4c0-0.7,0.1-1.2,0.1-1.7h-0.1c0-0.7-0.1-1.2,0-1.7c0.1-0.5,0.3-1,0.9-1.3
		c0,0,0,0,0,0c0,0,0,0,0,0c9.6-5.4,20.6-7.9,32.3-7.9H98.5z M98.5,0.9"/>
	<path fill="#CCCCCC" d="M64.8,3.3h84.4v1.2h9.6V3.3h84.3c35.8,0,64.8,29,64.8,64.8c0,35.8-29,64.8-64.8,64.8
		c-14.1,0-27.2-4.5-37.8-12.2h0l-1.3-1c-2.4-1.9-5.3-3-8.6-3h-82.8c-3.2,0-6.2,1.1-8.6,3l-1.3,1h0C92,128.4,78.9,133,64.8,133
		C29,133,0,103.9,0,68.1C0,32.3,29,3.3,64.8,3.3L64.8,3.3z M64.8,3.3"/>
	<rect fill="none" width="307.9" height="133.9"/>
	<path fill="#4C4C4C" d="M116.4,98.4c0-0.3-0.1-0.5-0.3-0.6l-0.4-0.3c-0.6-0.4-0.9-0.9-0.9-1.5c0-0.3,0.1-0.6,0.2-0.8
		c0.1-0.2,0.3-0.4,0.6-0.5c0.2-0.1,0.5-0.2,0.8-0.2c0.4,0,0.7,0.2,1,0.5c0.2,0.3,0.4,0.7,0.4,1.2h-0.9c0-0.2,0-0.4-0.1-0.5
		c-0.1-0.1-0.2-0.2-0.3-0.2c-0.2,0-0.3,0.1-0.4,0.2c-0.1,0.1-0.2,0.2-0.2,0.4c0,0.2,0.1,0.4,0.4,0.6c0.3,0.2,0.5,0.3,0.7,0.4
		c0.4,0.3,0.6,0.8,0.6,1.4c0,0.3-0.1,0.6-0.2,0.8c-0.1,0.2-0.3,0.4-0.5,0.5c-0.2,0.1-0.5,0.2-0.8,0.2c-0.2,0-0.4-0.1-0.6-0.1
		c-0.2-0.1-0.3-0.2-0.5-0.4c-0.3-0.3-0.4-0.8-0.4-1.3l0.9,0c0,0.3,0,0.5,0.1,0.6c0.1,0.1,0.2,0.2,0.4,0.2c0.2,0,0.3,0,0.4-0.1
		C116.3,98.7,116.3,98.6,116.4,98.4L116.4,98.4z M116.4,98.4"/>
	<path fill="#4C4C4C" d="M135.9,95.5h-1.2l-0.6,4.3h-0.9l0.6-4.3h-1.1l0.1-1h3.2L135.9,95.5z M135.9,95.5"/>
	<path fill="#4C4C4C" d="M131.6,98c0,0.4-0.1,0.7-0.3,1c-0.2,0.3-0.4,0.5-0.6,0.7c-0.3,0.2-0.5,0.2-0.8,0.2c-0.4,0-0.7-0.2-1-0.5
		c-0.2-0.3-0.4-0.8-0.4-1.4c0-0.4,0-0.8,0.1-1.3c0.1-0.5,0.2-0.9,0.4-1.2c0.2-0.3,0.4-0.6,0.6-0.8c0.3-0.2,0.5-0.2,0.8-0.2
		c0.4,0,0.8,0.2,1,0.5c0.3,0.3,0.4,0.8,0.4,1.4H131c0-0.3,0-0.6-0.1-0.7c-0.1-0.1-0.2-0.2-0.4-0.2c-0.5,0-0.8,0.5-0.9,1.5
		c0,0.5-0.1,0.8-0.1,1c0,0.6,0.2,0.9,0.5,0.9c0.2,0,0.4-0.1,0.5-0.2c0.1-0.2,0.2-0.4,0.3-0.6L131.6,98z M131.6,98"/>
	<path fill="#4C4C4C" d="M127.5,97.6h-1.5l-0.2,1.3h1.7l-0.1,1h-2.7l0.7-5.3h2.7l-0.1,1h-1.7l-0.1,1.1h1.5L127.5,97.6z M127.5,97.6"
		/>
	<path fill="#4C4C4C" d="M122.5,98.9h1.6l-0.1,1h-2.6l0.7-5.3h0.9L122.5,98.9z M122.5,98.9"/>
	<path fill="#4C4C4C" d="M120.7,97.6h-1.5l-0.2,1.3h1.7l-0.1,1H118l0.7-5.3h2.7l-0.1,1h-1.7l-0.1,1.1h1.5L120.7,97.6z M120.7,97.6"
		/>
	<path fill="#4C4C4C" d="M151.3,98.4c0-0.3-0.1-0.5-0.3-0.6l-0.5-0.3c-0.6-0.4-0.9-0.9-0.9-1.5c0-0.3,0.1-0.6,0.2-0.8
		c0.1-0.2,0.3-0.4,0.6-0.5c0.2-0.1,0.5-0.2,0.8-0.2c0.4,0,0.7,0.2,1,0.5c0.2,0.3,0.4,0.7,0.4,1.2h-0.9c0-0.2,0-0.4-0.1-0.5
		c-0.1-0.1-0.2-0.2-0.3-0.2c-0.2,0-0.3,0.1-0.4,0.2c-0.1,0.1-0.2,0.2-0.2,0.4c0,0.2,0.1,0.4,0.4,0.6c0.3,0.2,0.5,0.3,0.7,0.4
		c0.4,0.3,0.6,0.8,0.6,1.4c0,0.3-0.1,0.6-0.2,0.8c-0.1,0.2-0.3,0.4-0.6,0.5c-0.2,0.1-0.5,0.2-0.8,0.2c-0.2,0-0.4-0.1-0.6-0.1
		c-0.2-0.1-0.3-0.2-0.5-0.4c-0.3-0.3-0.4-0.8-0.4-1.3l0.9,0c0,0.3,0,0.5,0.1,0.6c0.1,0.1,0.2,0.2,0.4,0.2c0.2,0,0.3,0,0.4-0.1
		C151.2,98.7,151.2,98.6,151.3,98.4L151.3,98.4z M151.3,98.4"/>
	<path fill="#4C4C4C" d="M168.1,95.5H167l-0.6,4.3h-0.9l0.6-4.3h-1.1l0.1-1h3.2L168.1,95.5z M168.1,95.5"/>
	<path fill="#4C4C4C" d="M161.9,97h0.5c0.1,0,0.3,0,0.4-0.1c0.1-0.1,0.2-0.2,0.2-0.4c0-0.2,0.1-0.3,0-0.5c0-0.3-0.2-0.4-0.4-0.4
		h-0.6L161.9,97z M161.7,98l-0.2,1.9h-0.9l0.7-5.3l1.4,0c0.4,0,0.8,0.1,1,0.4c0.2,0.3,0.3,0.7,0.3,1.1c0,0.4-0.1,0.7-0.3,0.9
		c-0.1,0.3-0.3,0.5-0.6,0.6l0.5,2.1v0.1h-1l-0.4-1.9H161.7z M161.7,98"/>
	<path fill="#4C4C4C" d="M157.8,98.8l-0.4,1h-1l2.1-5.3h0.9l0.7,5.3h-1l-0.1-1H157.8z M158.2,97.9h0.8l-0.2-1.8L158.2,97.9z
		 M158.2,97.9"/>
	<path fill="#4C4C4C" d="M156.5,95.5h-1.1l-0.6,4.3h-0.9l0.6-4.3h-1.1l0.1-1h3.2L156.5,95.5z M156.5,95.5"/>
	<path fill="#999999" d="M102,67.4c0,20.3-16.4,36.8-36.7,36.8S28.5,87.7,28.5,67.4c0-20.3,16.4-36.8,36.7-36.8S102,47.1,102,67.4"
		/>
	<path fill="none" stroke="#999999" stroke-width="0.8" d="M102,67.4c0,20.3-16.4,36.8-36.7,36.8S28.5,87.7,28.5,67.4
		c0-20.3,16.4-36.8,36.7-36.8S102,47.1,102,67.4"/>
	<path fill="#CCCCCC" d="M100.8,67.4c0,19.7-15.9,35.6-35.6,35.6c-19.7,0-35.6-15.9-35.6-35.6c0-19.7,15.9-35.6,35.6-35.6
		C84.9,31.8,100.8,47.7,100.8,67.4"/>
	<path fill="#666666" d="M301.7,67.5c0,32.3-26.2,58.4-58.4,58.4c-32.3,0-58.4-26.2-58.4-58.4C184.8,35.2,211,9,243.3,9
		C275.5,9,301.7,35.2,301.7,67.5"/>
	<path fill="#4C4C4C" d="M90.8,58.2H74.5V41.8c0-0.7-0.6-1.3-1.3-1.3H57.3c-0.7,0-1.3,0.6-1.3,1.3v16.4H39.7c-0.7,0-1.3,0.6-1.3,1.3
		v15.9c0,0.7,0.6,1.3,1.3,1.3H56V93c0,0.7,0.6,1.3,1.3,1.3h15.9c0.7,0,1.3-0.6,1.3-1.3V76.6h16.4c0.7,0,1.3-0.6,1.3-1.3V59.5
		C92.1,58.8,91.5,58.2,90.8,58.2"/>
	<path fill="#666666" d="M42.2,65.7c-1.6,0.9-1.6,2.4,0,3.3l6.3,3.6c1.6,0.9,2.9,0.5,2.9-0.9v-8.5c0-1.4-1.3-1.9-2.9-0.9L42.2,65.7
		c-1.6,0.9-1.6,2.4,0,3.3l6.3,3.6c1.6,0.9,2.9,0.5,2.9-0.9v-8.5c0-1.4-1.3-1.9-2.9-0.9L42.2,65.7z M42.2,65.7"/>
	<path fill="#666666" d="M88.2,65.7c1.6,0.9,1.6,2.4,0,3.3l-6.3,3.6c-1.6,0.9-2.9,0.5-2.9-0.9v-8.5c0-1.4,1.3-1.9,2.9-0.9L88.2,65.7
		c1.6,0.9,1.6,2.4,0,3.3l-6.3,3.6c-1.6,0.9-2.9,0.5-2.9-0.9v-8.5c0-1.4,1.3-1.9,2.9-0.9L88.2,65.7z M88.2,65.7"/>
	<path fill="#666666" d="M66.9,44.5c-0.9-1.6-2.4-1.6-3.3,0L60,50.7c-0.9,1.6-0.5,2.9,1,2.9h8.5c1.4,0,1.9-1.3,1-2.9L66.9,44.5
		c-0.9-1.6-2.4-1.6-3.3,0L60,50.7c-0.9,1.6-0.5,2.9,1,2.9h8.5c1.4,0,1.9-1.3,1-2.9L66.9,44.5z M66.9,44.5"/>
	<path fill="#666666" d="M66.9,90.4c-0.9,1.6-2.4,1.6-3.3,0L60,84.2c-0.9-1.6-0.5-2.9,1-2.9h8.5c1.4,0,1.9,1.3,1,2.9L66.9,90.4
		c-0.9,1.6-2.4,1.6-3.3,0L60,84.2c-0.9-1.6-0.5-2.9,1-2.9h8.5c1.4,0,1.9,1.3,1,2.9L66.9,90.4z M66.9,90.4"/>
	<path fill="#4C4C4C" d="M133.3,27.8l-0.3,0.8h0.2L133.3,27.8z M125.6,26.9C125.6,26.9,125.6,26.9,125.6,26.9l-0.2,0.9v0
		c0,0,0,0.1,0.1,0.1h0.2c0,0,0.1-0.1,0.1-0.1l0.1-0.7c0,0-0.1-0.1-0.1-0.1H125.6z M156.8,26.6h0.9l-0.1,0.4h-0.2l-0.5,2.6h-0.4
		l0.5-2.6h-0.2L156.8,26.6z M153,26.6h0.4l0.2,1.6l0.3-1.6h0.4l-0.5,3h-0.4l-0.1-1.7l-0.3,1.7h-0.4L153,26.6z M149.2,26.6h0.8
		l-0.1,0.4h-0.4l-0.2,0.9h0.4l-0.1,0.3h-0.4l-0.2,1h0.4l-0.1,0.4h-0.8L149.2,26.6z M144.4,26.6h0.5l0.1,1.7l0.7-1.7h0.5l-0.5,3h-0.4
		l0.2-1.6l-0.7,1.6h-0.3l-0.1-1.6l-0.3,1.6h-0.4L144.4,26.6z M140.1,26.6h0.4l0.2,1.6l0.3-1.6h0.4l-0.5,3h-0.4l-0.1-1.7l-0.3,1.7
		h-0.4L140.1,26.6z M136.8,26.6h0.4l-0.6,3h-0.4L136.8,26.6z M133.3,26.6h0.5l-0.2,3h-0.5l0.1-0.7h-0.3l-0.2,0.7h-0.4L133.3,26.6z
		 M129,26.6h0.9l-0.1,0.4h-0.2l-0.5,2.6h-0.4l0.5-2.6h-0.2L129,26.6z M125.2,26.6h0.8c0.2,0,0.3,0.1,0.2,0.3l-0.2,1.1
		c0,0.1-0.2,0.2-0.3,0.3h0.1v0h0.1l0,0h0v0h0v0h0c0,0,0,0.1,0,0.1c0,0-0.2,1.2-0.2,1.2h-0.4c0,0,0.2-1,0.2-1.1c0,0,0-0.1,0-0.1
		c0,0,0-0.1,0-0.1h-0.3l-0.2,1.3h-0.4L125.2,26.6z M121.6,26.6h0.8l-0.1,0.4h-0.4l-0.2,0.9h0.4l-0.1,0.3h-0.4l-0.2,1h0.4l-0.1,0.4
		H121L121.6,26.6z M117.8,26.6h0.9l-0.1,0.4h-0.2l-0.5,2.6h-0.4l0.5-2.6h-0.2L117.8,26.6z M113.9,26.6h0.4l0.2,1.6l0.3-1.6h0.4
		l-0.6,3h-0.4l-0.1-1.7l-0.3,1.7h-0.4L113.9,26.6z M110.3,26.6h0.8l-0.1,0.4h-0.4l-0.2,0.9h0.4l-0.1,0.3h-0.4l-0.2,1h0.4l-0.1,0.4
		h-0.8L110.3,26.6z M180.3,26.5h0.5l0.1,1.7l0.7-1.7l0.5,0l-0.5,3h-0.4l0.2-1.6l-0.6,1.6h-0.3l-0.1-1.6l-0.3,1.6h-0.4L180.3,26.5z
		 M177,26.5h0.8l-0.1,0.4h-0.4l-0.2,0.9h0.4l-0.1,0.3h-0.4l-0.2,1h0.4l-0.1,0.4h-0.8L177,26.5z M173.6,26.5h0.9l-0.1,0.4h-0.2
		l-0.5,2.6h-0.4l0.5-2.6h-0.2L173.6,26.5z M170.6,26.5h0.6c0.2,0,0.3,0.1,0.2,0.3l-0.1,0.7H171l0.1-0.5c0-0.1,0-0.2-0.2-0.2
		c-0.1,0-0.2,0.1-0.2,0.2l-0.1,0.4c0,0,0,0.1,0,0.1c0,0,0.5,0.8,0.5,0.9c0,0,0,0,0,0.1c0,0.1-0.1,0.8-0.1,0.8c0,0.2-0.2,0.3-0.3,0.3
		h-0.6c-0.2,0-0.3-0.1-0.2-0.3l0.1-0.8h0.4l-0.1,0.5c0,0.1,0.1,0.2,0.2,0.2c0.1,0,0.2-0.1,0.2-0.2l0.1-0.4c-0.1-0.2-0.5-0.8-0.6-1
		c0,0,0-0.1,0-0.2c0-0.1,0.1-0.6,0.1-0.6l0,0v0l0,0v0l0,0v0l0,0v0l0,0l0,0v0h0l0,0l0,0l0,0l0,0l0,0l0,0L170.6,26.5L170.6,26.5
		L170.6,26.5L170.6,26.5L170.6,26.5L170.6,26.5z M166.3,26.5h0.5l0.1,1.1l0.6-1.1h0.5l-1,1.7l-0.2,1.3h-0.4l0.2-1.3L166.3,26.5z
		 M163.3,26.5h0.6c0.2,0,0.3,0.1,0.2,0.3l-0.1,0.7h-0.3l0.1-0.5c0-0.1-0.1-0.2-0.2-0.2c-0.1,0-0.2,0.1-0.2,0.2l-0.1,0.4
		c0,0,0,0.1,0,0.1c0.1,0,0.5,0.8,0.5,0.9c0,0,0,0,0,0.1c0,0.1-0.1,0.8-0.1,0.8c0,0.2-0.2,0.3-0.3,0.3h-0.5c-0.2,0-0.3-0.1-0.2-0.3
		l0.1-0.8h0.4l-0.1,0.5c0,0.1,0,0.2,0.2,0.2c0.1,0,0.2-0.1,0.2-0.2l0.1-0.4c-0.1-0.2-0.5-0.8-0.6-1c0,0,0-0.1,0-0.2
		c0-0.1,0.1-0.6,0.1-0.6h0v0l0,0v0l0,0v0l0,0v0l0,0v0h0l0,0l0,0v0h0l0,0l0,0L163.3,26.5L163.3,26.5L163.3,26.5L163.3,26.5
		L163.3,26.5L163.3,26.5z M108.6,30.4H183V26h-74.4V30.4z M135.1,13.1h0.8c0.2,0,0.6,0.4,0.5,0.6l-0.7,3.3c0,0.2-0.5,0.6-0.6,0.6
		h-0.7c-0.1,0-0.3-0.1-0.3-0.2c0,0,0-0.1,0-0.1l0.8-4l0,0l0,0l0,0h0l0,0l0,0L135.1,13.1L135.1,13.1L135.1,13.1L135.1,13.1
		L135.1,13.1L135.1,13.1z M124.7,13.1h0.8c0.2,0,0.6,0.4,0.5,0.6l-0.7,3.3c0,0.2-0.3,0.6-0.4,0.6h-1l0,0h-0.1v0h0l0,0h0l0,0l0,0h0v0
		l0,0l0,0v0l0,0v0l0,0v0l0,0v0c0,0,0-0.1,0-0.1l0.8-4C124.6,13.1,124.7,13.1,124.7,13.1 M181.7,13L181.7,13c0.5,0,0.9,0.4,0.8,0.9
		l-1.6,8.8c-0.1,0.5-0.5,0.9-1,0.9c-0.5,0-0.7-0.4-0.6-0.9l1.6-8.8l0,0l0,0l0-0.1l0,0l0-0.1l0,0l0,0l0,0l0,0l0,0l0,0l0,0l0,0
		l0.1-0.1l0,0l0,0l0,0l0.1-0.1l0,0l0,0l0,0l0,0l0,0l0.1,0l0,0h0L181.7,13L181.7,13L181.7,13z M175,13h0.8c0.5,0,0.8,0.4,0.7,0.9
		l-1.6,8.8c-0.1,0.5-0.6,0.9-1.1,0.9h-0.8L175,13z M180.8,11.5c-0.7,0-1.4,0.6-1.5,1.3l-1.9,10.8c-0.1,0.7,0.3,1.2,1,1.2h2.8
		c0.7,0,1.4-0.5,1.5-1.2l2-10.8c0.1-0.7-0.3-1.3-1-1.3H180.8z M173.6,11.5l-2.5,13.4h3.8c0.7,0,1.4-0.5,1.5-1.2l2-10.8
		c0.1-0.7-0.3-1.3-1-1.3H173.6z M167,11.5l-2.5,13.4h1.9l1.6-7.8l0.6,7.8h1.7l2.5-13.4h-1.9l-1.3,7l-0.9-7H167z M162.7,11.5
		l-2.6,13.4h3.8l0.3-1.7h-1.9l0.8-4.5h1.9l0.3-1.4h-1.9l0.8-4.2h1.9l0.3-1.7H162.7z M158.1,11.5l-0.3,1.7h1l-2.1,11.7h1.9l2.1-11.7
		h1l0.3-1.7H158.1z M151.7,11.5l-2.5,13.4h1.9l1.6-7.8l0.6,7.8h1.7l2.5-13.4h-1.9l-1.3,7l-0.9-7H151.7z M149.1,11.5l-2.5,13.4h1.7
		l2.5-13.4H149.1z M142.5,11.5L140,24.9h1.9l1.6-7.8l0.6,7.8h1.7l2.5-13.4h-1.9l-1.3,7l-0.9-7H142.5z M133.6,11.5l-2.5,13.4h1.7
		l1.1-6.1h1.2c0.2,0.1,0.2,0.4,0.2,0.6c0,0.2,0.1,0.4,0,0.6c0,0.2-0.9,4.9-0.9,4.9h1.7c0,0,0.9-5.1,0.9-5.2c0-0.1,0-0.3-0.1-0.5
		c-0.1-0.1-0.2-0.3-0.3-0.4c-0.2-0.2-0.5-0.3-0.5-0.3H136c0.5-0.2,1.4-0.5,1.5-1l0.9-4.8c0.1-0.7-0.3-1.3-1-1.3H133.6z M129.1,11.5
		l-2.6,13.4h3.8l0.3-1.7h-1.9l0.8-4.5h1.9l0.3-1.4h-1.8l0.8-4.2h1.9l0.3-1.7H129.1z M123.1,11.5l-2.5,13.4h1.7l1.1-6.1h2.1
		c0.7,0,1.3-0.6,1.5-1.2l0.9-4.8c0.1-0.7-0.3-1.3-1-1.3H123.1z M117.1,11.5l-2.1,12.2c-0.1,0.7,0.3,1.2,1,1.2h2.5
		c0.7,0,1.4-0.5,1.5-1.2l2.2-12.2h-1.6l-2.1,11.8c0,0.2-0.2,0.3-0.4,0.3H117c-0.2,0-0.3-0.1-0.3-0.3l2.1-11.8H117.1z M112.3,11.5
		c-0.7,0-1.4,0.6-1.5,1.3v0l0,0v0l0,0v0l0,0v0l0,0v0l0,0l0,0l0,0.1l0,0.1l0,0.1l0,0.1l0,0.1l0,0.1l0,0.1l0,0.1l0,0.2l0,0.1l0,0.1
		l0,0.1l0,0.1l0,0.1l0,0.1l0,0.1l0,0.1l0,0.1v0l0,0v0.1l0,0v0.1l0,0v0c0,0.3,0,0.8,0.1,0.8c0.1,0.7,2.5,4,2.4,4.5
		c-0.1,0.5-0.3,2-0.3,2c-0.1,0.5-0.4,0.9-0.9,0.9c-0.5,0-0.8-0.4-0.7-0.9l0.4-2.4h-1.7l-0.6,3.4c-0.1,0.7,0.3,1.2,1,1.2h2.5
		c0.7,0,1.3-0.5,1.5-1.2c0,0,0.6-3.2,0.6-3.4c0-0.2-0.1-0.3-0.1-0.3c0-0.3-2.1-3.7-2.3-3.9c-0.1-0.1-0.2-0.4-0.2-0.6
		c0-0.2,0.3-1.6,0.3-1.6c0.1-0.5,0.6-0.9,1-0.9s0.7,0.4,0.6,0.9l-0.4,2.2h1.8l0.6-3.3c0.1-0.7-0.3-1.3-1-1.3H112.3z M112.3,11.5"/>
	<path fill="#666666" d="M134.9,75.2l-13.2,10.3c-4.5,3.6-10.2-2.9-5.3-6.8l13.2-10.3C134.3,64.8,139.7,71.6,134.9,75.2"/>
	<path fill="#666666" d="M168,75.2l-13.2,10.3c-4.5,3.6-10.2-2.9-5.3-6.8l13.2-10.3C167.4,64.8,172.8,71.6,168,75.2"/>
	<path fill="#D8D8D8" d="M263.3,25.2l-2.1,0l2.7,3.2L261,32l2,0l1.9-2.3l1.9,2.3l2,0l-2.9-3.5l2.7-3.2l-2.1,0l-1.6,1.9L263.3,25.2z
		 M263.3,25.2"/>
	<path fill="#D8D8D8" d="M289.8,49.1l1,0l1,0l3,6.6l-1.6,0l-0.8-1.7l-3.3,0l-0.8,1.7l-1.6,0L289.8,49.1z M291.8,52.7l-1-2.3l-1,2.2
		L291.8,52.7z M291.8,52.7"/>
	<path fill="#D8D8D8" d="M194.9,81.5h-1.8l3,3.7v3.1h1.6v-3.1l3-3.7h-1.8l-2,2.5L194.9,81.5z M194.9,81.5"/>
	<path fill="#CCCCCC" d="M220.1,104.8h4.3c0,0,0,0,0,0h0.1v0c2.8,0.2,2.9,3.1,0.2,3.3c3.4,0.1,3.1,3.4-0.2,3.6h0l-0.1,0v0h-4.3
		V104.8z M224.5,110.4c1.1-0.2,1.1-1.4,0-1.6h-2.7v1.6H224.5z M224.5,107.5c1.1-0.4,0.7-1.4,0-1.5h-2.7v1.5H224.5z M224.5,107.5"/>
	<path fill="#F4F4F4" d="M213.9,56c-6.7,0-12.1,5.4-12.1,12.1s5.4,12.1,12.1,12.1c6.7,0,12.1-5.4,12.1-12.1S220.6,56,213.9,56
		L213.9,56z M213.9,57c6.1,0,11.1,4.9,11.1,11.1c0,6.1-4.9,11.1-11.1,11.1c-6.1,0-11.1-4.9-11.1-11.1C202.8,61.9,207.8,57,213.9,57
		L213.9,57z M213.9,57"/>
	<path fill="#F4F4F4" d="M243.2,33.1c-6.7,0-12.1,5.4-12.1,12.1c0,6.7,5.4,12.1,12.1,12.1c6.7,0,12.1-5.4,12.1-12.1
		C255.3,38.5,249.9,33.1,243.2,33.1L243.2,33.1z M243.2,34.1c6.1,0,11.1,4.9,11.1,11.1c0,6.1-4.9,11.1-11.1,11.1s-11-5-11-11.1
		C232.2,39.1,237.1,34.1,243.2,34.1L243.2,34.1z M243.2,34.1"/>
	<path fill="#F4F4F4" d="M244.2,78.3c-6.7,0-12.1,5.4-12.1,12.1c0,6.7,5.4,12.1,12.1,12.1c6.7,0,12.1-5.4,12.1-12.1
		C256.3,83.7,250.9,78.3,244.2,78.3L244.2,78.3z M244.2,79.3c6.1,0,11,4.9,11,11.1c0,6.1-4.9,11-11,11s-11.1-4.9-11.1-11
		C233.2,84.3,238.1,79.3,244.2,79.3L244.2,79.3z M244.2,79.3"/>
	<path fill="#F4F4F4" d="M273.5,55.4c-6.7,0-12.1,5.4-12.1,12.1s5.4,12.1,12.1,12.1c6.7,0,12.1-5.4,12.1-12.1S280.2,55.4,273.5,55.4
		L273.5,55.4z M273.5,56.5c6.1,0,11.1,4.9,11.1,11.1c0,6.1-4.9,11.1-11.1,11.1c-6.1,0-11.1-4.9-11.1-11.1
		C262.5,61.4,267.4,56.5,273.5,56.5L273.5,56.5z M273.5,56.5"/>
	<path fill="#D8D8D8" d="M284.7,58.7c4.8,6.2,3.7,15.1-2.5,20l-29.3,22.9c-6.2,4.8-15.1,3.7-20-2.5c-4.8-6.2-3.7-15.1,2.5-20
		l29.4-22.8c2.3-1.8,5-2.8,7.8-3C277,53,281.7,54.9,284.7,58.7L284.7,58.7z M284.7,58.7"/>
	<path fill="#47449E" d="M273.5,55.4c6.7,0,12.1,5.4,12.1,12.1c0,6.7-5.4,12.1-12.1,12.1c-6.7,0-12.1-5.4-12.1-12.1
		C261.5,60.8,266.9,55.4,273.5,55.4L273.5,55.4z M273.5,55.4"/>
	<path fill="#D8D8D8" d="M254.5,36.5c4.8,6.2,3.7,15.1-2.5,20l-29.3,22.9c-6.2,4.8-15.1,3.7-20-2.5c-4.8-6.2-3.7-15.1,2.5-20
		L234.5,34c2.3-1.8,5-2.8,7.8-3C246.8,30.7,251.5,32.6,254.5,36.5L254.5,36.5z M254.5,36.5"/>
	<path fill="#A59EF7" d="M243.2,33.1c6.7,0,12.1,5.4,12.1,12.1c0,6.7-5.4,12.1-12.1,12.1c-6.7,0-12.1-5.4-12.1-12.1
		C231.2,38.5,236.6,33.1,243.2,33.1L243.2,33.1z M243.2,33.1"/>
	<path fill="#47449E" d="M244.2,78.3c6.7,0,12.1,5.4,12.1,12.1c0,6.7-5.4,12.1-12.1,12.1c-6.7,0-12.1-5.4-12.1-12.1
		C232.1,83.7,237.5,78.3,244.2,78.3L244.2,78.3z M244.2,78.3"/>
	<path fill="#A59EF7" d="M213.9,56c6.7,0,12.1,5.4,12.1,12.1c0,6.7-5.4,12.1-12.1,12.1c-6.7,0-12.1-5.4-12.1-12.1
		C201.8,61.4,207.2,56,213.9,56L213.9,56z M213.9,56"/>
	<circle fill="#595959" cx="65.2" cy="67.4" r="6.8"/>
</g>
</svg>
