<?xml version="1.0" encoding="utf-8"?>
<!-- Generator: Adobe Illustrator 19.0.0, SVG Export Plug-In . SVG Version: 6.00 Build 0)  -->
<svg version="1.1" baseProfile="tiny" id="Calque_1"
	 xmlns="http://www.w3.org/2000/svg" xmlns:xlink="http://www.w3.org/1999/xlink" x="0px" y="0px" viewBox="0 0 541.9 386.9"
	 xml:space="preserve">
<g>
	<path fill="#2B2A2B" d="M541.9,3.5v138.1H0V3.5C0,1.6,1.6,0,3.5,0h69.1v23.4h4.9V0H85v23.4h5V0h7.5v23.4h3.9V0h7.5v23.4h4.9V0h7.5
		v23.4h5V0h7.5v23.4h3.6V0h7.5v23.4h4.9V0h7.5v23.4h5V0h7.5v23.4h3.1V0h7.5v23.4h4.9V0h7.5v23.4h5V0h7.5v23.4h3.6V0h7.5v23.4h4.9V0
		h7.5v23.4h5V0h7.5v23.4h3.1V0h7.5v23.4h4.9V0h7.5v23.4h5V0h7.5v23.4h3.6V0h7.5v23.4h4.9V0h7.5v23.4h5V0h7.5v23.4h4.2V0h7.5v23.4
		h4.9V0h7.5v23.4h5V0h7.5v23.4h3.6V0h7.5v23.4h4.9V0h7.5v23.4h5V0h7.5v23.4h4.7V0h7.5v23.4h4.9V0h7.5v23.4h5V0h7.5v23.4h3.6V0h7.5
		v23.4h4.9V0h7.5v23.4h5V0h7.5v23.4h4.8V0h75.2C540.3,0,541.9,1.6,541.9,3.5z"/>
	<g>
		<rect x="72.6" y="3.9" fill="#1D1D1D" width="4.9" height="19.5"/>
		<rect x="85" y="3.9" fill="#1D1D1D" width="5" height="19.5"/>
		<rect x="97.5" y="3.9" fill="#1D1D1D" width="3.9" height="19.5"/>
		<rect x="108.9" y="3.9" fill="#1D1D1D" width="4.9" height="19.5"/>
		<rect x="121.3" y="3.9" fill="#1D1D1D" width="5" height="19.5"/>
		<rect x="133.8" y="3.9" fill="#1D1D1D" width="3.6" height="19.5"/>
		<rect x="144.9" y="3.9" fill="#1D1D1D" width="4.9" height="19.5"/>
		<rect x="157.3" y="3.9" fill="#1D1D1D" width="5" height="19.5"/>
		<rect x="169.8" y="3.9" fill="#1D1D1D" width="3.1" height="19.5"/>
		<rect x="180.4" y="3.9" fill="#1D1D1D" width="4.9" height="19.5"/>
		<rect x="192.8" y="3.9" fill="#1D1D1D" width="5" height="19.5"/>
		<rect x="205.3" y="3.9" fill="#1D1D1D" width="3.6" height="19.5"/>
		<rect x="216.3" y="3.9" fill="#1D1D1D" width="4.9" height="19.5"/>
		<rect x="228.8" y="3.9" fill="#1D1D1D" width="5" height="19.5"/>
		<rect x="241.2" y="3.9" fill="#1D1D1D" width="3.1" height="19.5"/>
		<rect x="251.8" y="3.9" fill="#1D1D1D" width="4.9" height="19.5"/>
		<rect x="264.2" y="3.9" fill="#1D1D1D" width="5" height="19.5"/>
		<rect x="276.7" y="3.9" fill="#1D1D1D" width="3.6" height="19.5"/>
		<rect x="287.8" y="3.9" fill="#1D1D1D" width="4.9" height="19.5"/>
		<rect x="300.2" y="3.9" fill="#1D1D1D" width="5" height="19.5"/>
		<rect x="312.7" y="3.9" fill="#1D1D1D" width="4.2" height="19.5"/>
		<rect x="324.4" y="3.9" fill="#1D1D1D" width="4.9" height="19.5"/>
		<rect x="336.8" y="3.9" fill="#1D1D1D" width="5" height="19.5"/>
		<rect x="349.3" y="3.9" fill="#1D1D1D" width="3.6" height="19.5"/>
		<rect x="360.4" y="3.9" fill="#1D1D1D" width="4.9" height="19.5"/>
		<rect x="372.8" y="3.9" fill="#1D1D1D" width="5" height="19.5"/>
		<rect x="385.3" y="3.9" fill="#1D1D1D" width="4.7" height="19.5"/>
		<rect x="397.5" y="3.9" fill="#1D1D1D" width="4.9" height="19.5"/>
		<rect x="409.9" y="3.9" fill="#1D1D1D" width="5" height="19.5"/>
		<rect x="422.4" y="3.9" fill="#1D1D1D" width="3.6" height="19.5"/>
		<rect x="433.5" y="3.9" fill="#1D1D1D" width="4.9" height="19.5"/>
		<rect x="445.9" y="3.9" fill="#1D1D1D" width="5" height="19.5"/>
		<rect x="458.4" y="3.9" fill="#1D1D1D" width="4.8" height="19.5"/>
	</g>
	<path fill="#BBBDBF" d="M0,141.6v62.5h541.9v-62.5H0z"/>
	<rect x="409.5" y="340.9" fill="#1D1D1D" width="27.1" height="14.4"/>
	<rect x="104.1" y="340.9" fill="#1D1D1D" width="26.4" height="14.4"/>
	<rect x="0" y="340.9" fill="#1D1D1D" width="68.4" height="14.4"/>
	<rect x="0" y="208.9" fill="#BBBDBF" width="541.9" height="29.3"/>
	<rect x="0" y="238.2" fill="#2B2A2B" width="541.9" height="102.7"/>
	<path fill="#2B2A2B" d="M541.9,355.3v28.1c0,1.9-1.6,3.5-3.5,3.5H3.5c-1.9,0-3.5-1.6-3.5-3.5v-28.1H541.9z"/>
	<rect x="469.8" y="340.9" fill="#1D1D1D" width="72" height="14.4"/>
	<rect x="68.4" y="340.9" fill="#161616" width="35.7" height="14.4"/>
	<rect x="130.6" y="340.9" fill="#161616" width="35.2" height="14.4"/>
	<rect x="165.7" y="340.9" fill="#1D1D1D" width="208.5" height="14.4"/>
	<rect x="374.2" y="340.9" fill="#161616" width="35.3" height="14.4"/>
	<rect x="436.6" y="340.9" fill="#161616" width="33.2" height="14.4"/>
	<path fill="#EC1C24" d="M120.4,348.1c0,1.9-1.5,3.4-3.4,3.4c-1.9,0-3.4-1.5-3.4-3.4c0-1.9,1.5-3.4,3.4-3.4
		C118.9,344.7,120.4,346.2,120.4,348.1z"/>
	<rect x="510.8" y="204.1" fill="#262261" width="31" height="4.8"/>
	<rect x="0" y="204.1" fill="#EC1C24" width="62.3" height="4.8"/>
	<rect x="62.3" y="204.1" fill="#F16522" width="77.6" height="4.8"/>
	<rect x="139.8" y="204.1" fill="#FFDD15" width="80.6" height="4.8"/>
	<rect x="220.5" y="204.1" fill="#00A14B" width="117.6" height="4.8"/>
	<rect x="338" y="204.1" fill="#26A9E0" width="96.1" height="4.8"/>
	<rect x="434.1" y="204.1" fill="#2B388F" width="76.8" height="4.8"/>
	<path fill="#1D1D1D" d="M347.6,68.6H192.5c-3.2,0-5.9,2.7-5.9,5.9V123c0,3.2,2.7,5.9,5.9,5.9h155.1c3.2,0,5.9-2.7,5.9-5.9V74.5
		C353.5,71.3,350.9,68.6,347.6,68.6z M347,117.4c0,2.7-2.2,5-5,5H200.4c-2.7,0-4.9-2.2-4.9-5V81.9c0-2.7,2.2-5,4.9-5H342
		c2.7,0,5,2.2,5,5V117.4z"/>
	<path fill="#161616" d="M342,76.9H200.4c-2.7,0-4.9,2.2-4.9,5v35.5c0,2.7,2.2,5,4.9,5H342c2.7,0,5-2.2,5-5V81.9
		C347,79.1,344.7,76.9,342,76.9z M338,116.1H203.9v-12.6h4.5v2.3H221v-2.3h100.4v2.3h10.9v-2.3h5.8V116.1z M338,101.4h-5.8v-2.6
		h-10.9v2.6H221v-2.6h-12.5v2.6h-4.5v-14H338V101.4z"/>
	<polygon fill="#2B2A2B" points="338,103.5 338,116.1 203.9,116.1 203.9,103.5 208.4,103.5 208.4,105.8 221,105.8 221,103.5 
		321.3,103.5 321.3,105.8 332.3,105.8 332.3,103.5 	"/>
	<polygon fill="#2B2A2B" points="338,87.4 338,101.4 332.3,101.4 332.3,98.8 321.3,98.8 321.3,101.4 221,101.4 221,98.8 208.4,98.8 
		208.4,101.4 203.9,101.4 203.9,87.4 	"/>
	<g>
		<path fill="#231F20" d="M62.5,215l-3.9,9.9H56l3.9-9h-5.1v-2h7.7V215z"/>
		<path fill="#231F20" d="M65.4,219.2L65.4,219.2c-1.3-0.6-1.9-1.4-1.9-2.6c0-0.8,0.3-1.5,1-2.1c0.7-0.6,1.5-0.8,2.6-0.8
			c1.1,0,2,0.3,2.6,0.8c0.7,0.5,1,1.2,1,2c0,1.2-0.7,2.1-2.1,2.7v0c0.7,0.2,1.3,0.6,1.7,1.1c0.4,0.5,0.6,1.1,0.6,1.7
			c0,1-0.4,1.7-1.1,2.3c-0.7,0.6-1.7,0.8-3,0.8c-1.1,0-2-0.3-2.7-0.8c-0.7-0.6-1-1.3-1-2.2C63.2,220.8,64,219.8,65.4,219.2z
			 M67.1,220.1c-1,0.4-1.5,1-1.5,1.9c0,0.4,0.2,0.7,0.5,1c0.3,0.3,0.7,0.4,1.1,0.4c0.5,0,0.9-0.1,1.2-0.4c0.3-0.3,0.4-0.6,0.4-1
			C68.8,221.1,68.2,220.5,67.1,220.1z M68.5,216.7c0-0.4-0.1-0.7-0.4-0.9c-0.2-0.2-0.6-0.3-0.9-0.3c-0.4,0-0.7,0.1-1,0.3
			c-0.3,0.2-0.4,0.5-0.4,0.9c0,0.7,0.4,1.2,1.3,1.6C68.1,217.9,68.5,217.4,68.5,216.7z"/>
		<path fill="#231F20" d="M75.6,225.1c-2.6,0-3.9-1.8-3.9-5.5c0-1.9,0.4-3.4,1.1-4.4c0.7-1,1.7-1.5,3.1-1.5c2.6,0,3.8,1.9,3.8,5.6
			c0,1.9-0.3,3.3-1,4.3C77.9,224.6,76.9,225.1,75.6,225.1z M75.7,215.5c-1,0-1.6,1.3-1.6,4c0,2.5,0.5,3.7,1.5,3.7
			c1,0,1.5-1.3,1.5-3.8S76.7,215.5,75.7,215.5z"/>
		<path fill="#231F20" d="M84.1,225.1c-2.6,0-3.9-1.8-3.9-5.5c0-1.9,0.4-3.4,1.1-4.4c0.7-1,1.7-1.5,3.1-1.5c2.6,0,3.8,1.9,3.8,5.6
			c0,1.9-0.3,3.3-1,4.3C86.4,224.6,85.4,225.1,84.1,225.1z M84.2,215.5c-1,0-1.6,1.3-1.6,4c0,2.5,0.5,3.7,1.5,3.7
			c1,0,1.5-1.3,1.5-3.8S85.2,215.5,84.2,215.5z"/>
		<path fill="#231F20" d="M95.7,221.1v3.8h-2.5v-11h3.9c2.8,0,4.2,1.2,4.2,3.5c0,1.1-0.4,2-1.2,2.7c-0.8,0.7-1.9,1-3.2,1H95.7z
			 M95.7,215.8v3.4h1c1.3,0,2-0.6,2-1.7c0-1.1-0.7-1.7-2-1.7H95.7z"/>
		<path fill="#231F20" d="M110.4,224.9h-2.5l-1.5-2.5c-0.1-0.2-0.2-0.4-0.3-0.5c-0.1-0.2-0.2-0.3-0.3-0.4c-0.1-0.1-0.2-0.2-0.3-0.2
			c-0.1-0.1-0.2-0.1-0.4-0.1h-0.6v3.7h-2.2v-9.8h3.5c2.4,0,3.6,0.9,3.6,2.7c0,0.3-0.1,0.7-0.2,0.9c-0.1,0.3-0.3,0.5-0.4,0.8
			c-0.2,0.2-0.4,0.4-0.7,0.6c-0.3,0.2-0.6,0.3-0.9,0.4v0c0.1,0,0.3,0.1,0.4,0.2c0.1,0.1,0.3,0.2,0.4,0.4c0.1,0.1,0.2,0.3,0.4,0.4
			c0.1,0.2,0.2,0.3,0.3,0.5L110.4,224.9z M104.4,216.8v2.7h1c0.5,0,0.9-0.1,1.1-0.4c0.3-0.3,0.4-0.6,0.4-1c0-0.9-0.5-1.3-1.5-1.3
			H104.4z"/>
		<path fill="#231F20" d="M115,225.1c-1.4,0-2.5-0.5-3.4-1.4c-0.9-0.9-1.3-2.1-1.3-3.6c0-1.5,0.4-2.8,1.3-3.8c0.9-1,2.1-1.4,3.6-1.4
			c1.4,0,2.5,0.5,3.4,1.4c0.9,0.9,1.3,2.1,1.3,3.6c0,1.5-0.4,2.8-1.3,3.7C117.6,224.6,116.4,225.1,115,225.1z M115.1,216.8
			c-0.8,0-1.4,0.3-1.8,0.9c-0.5,0.6-0.7,1.3-0.7,2.3c0,1,0.2,1.7,0.7,2.3c0.5,0.6,1.1,0.8,1.8,0.8c0.8,0,1.4-0.3,1.8-0.8
			c0.4-0.5,0.7-1.3,0.7-2.3c0-1-0.2-1.8-0.6-2.4C116.4,217.1,115.8,216.8,115.1,216.8z"/>
		<path fill="#231F20" d="M120.6,224.5V222c0.4,0.4,0.9,0.7,1.5,0.8c0.5,0.2,1,0.3,1.6,0.3c0.3,0,0.6,0,0.8-0.1s0.4-0.1,0.6-0.2
			c0.2-0.1,0.3-0.2,0.3-0.4c0.1-0.1,0.1-0.3,0.1-0.4c0-0.2-0.1-0.4-0.2-0.6c-0.1-0.2-0.3-0.3-0.5-0.5c-0.2-0.1-0.5-0.3-0.8-0.4
			c-0.3-0.1-0.6-0.3-0.9-0.4c-0.9-0.4-1.5-0.8-1.9-1.3c-0.4-0.5-0.6-1.1-0.6-1.9c0-0.6,0.1-1.1,0.3-1.5c0.2-0.4,0.5-0.8,0.9-1
			c0.4-0.3,0.9-0.5,1.4-0.6c0.5-0.1,1.1-0.2,1.7-0.2c0.6,0,1.1,0,1.5,0.1c0.4,0.1,0.9,0.2,1.2,0.3v2.3c-0.2-0.1-0.4-0.2-0.6-0.3
			c-0.2-0.1-0.4-0.2-0.7-0.2c-0.2-0.1-0.5-0.1-0.7-0.1s-0.4,0-0.6,0c-0.3,0-0.5,0-0.8,0.1c-0.2,0.1-0.4,0.1-0.6,0.2
			c-0.2,0.1-0.3,0.2-0.4,0.3c-0.1,0.1-0.1,0.3-0.1,0.5c0,0.2,0,0.3,0.1,0.5c0.1,0.1,0.2,0.3,0.4,0.4c0.2,0.1,0.4,0.3,0.7,0.4
			c0.3,0.1,0.5,0.3,0.9,0.4c0.4,0.2,0.8,0.4,1.2,0.6c0.4,0.2,0.7,0.4,0.9,0.7c0.3,0.3,0.4,0.6,0.6,0.9c0.1,0.3,0.2,0.7,0.2,1.2
			c0,0.6-0.1,1.1-0.3,1.5c-0.2,0.4-0.5,0.8-0.9,1c-0.4,0.3-0.9,0.4-1.4,0.6c-0.5,0.1-1.1,0.2-1.7,0.2c-0.6,0-1.2-0.1-1.7-0.2
			C121.5,224.8,121,224.7,120.6,224.5z"/>
		<path fill="#231F20" d="M136.6,215.1l-3.2,6.3v3.5h-2.2v-3.4l-3.1-6.4h2.5l1.6,3.7c0,0.1,0.1,0.3,0.2,0.8h0
			c0.1-0.3,0.1-0.6,0.2-0.8l1.6-3.7H136.6z"/>
		<path fill="#231F20" d="M136.8,224.5v-2.2c0.4,0.3,0.8,0.6,1.3,0.7c0.5,0.2,0.9,0.2,1.4,0.2c0.3,0,0.5,0,0.7-0.1
			c0.2-0.1,0.4-0.1,0.5-0.2c0.1-0.1,0.2-0.2,0.3-0.3c0.1-0.1,0.1-0.3,0.1-0.4c0-0.2-0.1-0.4-0.2-0.5c-0.1-0.2-0.3-0.3-0.4-0.4
			c-0.2-0.1-0.4-0.3-0.7-0.4c-0.3-0.1-0.5-0.2-0.8-0.4c-0.8-0.3-1.3-0.7-1.7-1.2c-0.4-0.5-0.6-1-0.6-1.7c0-0.5,0.1-0.9,0.3-1.3
			c0.2-0.4,0.5-0.7,0.8-0.9c0.4-0.2,0.8-0.4,1.2-0.5c0.5-0.1,1-0.2,1.5-0.2c0.5,0,1,0,1.4,0.1c0.4,0.1,0.8,0.2,1.1,0.3v2
			c-0.2-0.1-0.3-0.2-0.5-0.3c-0.2-0.1-0.4-0.2-0.6-0.2c-0.2-0.1-0.4-0.1-0.6-0.1c-0.2,0-0.4,0-0.6,0c-0.3,0-0.5,0-0.7,0.1
			c-0.2,0-0.4,0.1-0.5,0.2c-0.1,0.1-0.3,0.2-0.3,0.3c-0.1,0.1-0.1,0.3-0.1,0.4c0,0.2,0,0.3,0.1,0.4c0.1,0.1,0.2,0.3,0.4,0.4
			c0.2,0.1,0.4,0.2,0.6,0.3c0.2,0.1,0.5,0.2,0.8,0.3c0.4,0.2,0.7,0.3,1.1,0.5c0.3,0.2,0.6,0.4,0.8,0.6c0.2,0.2,0.4,0.5,0.5,0.8
			c0.1,0.3,0.2,0.6,0.2,1c0,0.5-0.1,1-0.3,1.4c-0.2,0.4-0.5,0.7-0.8,0.9c-0.4,0.2-0.8,0.4-1.2,0.5c-0.5,0.1-1,0.2-1.5,0.2
			c-0.5,0-1,0-1.5-0.1C137.6,224.8,137.2,224.7,136.8,224.5z"/>
		<path fill="#231F20" d="M151.5,216.9h-2.8v8h-2.2v-8h-2.8v-1.8h7.8V216.9z"/>
		<path fill="#231F20" d="M158.2,224.9h-5.9v-9.8h5.6v1.8h-3.4v2.2h3.2v1.8h-3.2v2.2h3.7V224.9z"/>
		<path fill="#231F20" d="M170.5,224.9h-2.2V219c0-0.6,0-1.3,0.1-2.1h-0.1c-0.1,0.6-0.2,1-0.3,1.3l-2.3,6.7h-1.8l-2.3-6.6
			c-0.1-0.2-0.2-0.6-0.3-1.4h-0.1c0.1,1,0.1,1.8,0.1,2.5v5.4h-2v-9.8h3.2l2,5.8c0.2,0.5,0.3,0.9,0.3,1.4h0c0.1-0.5,0.3-1,0.4-1.4
			l2-5.8h3.1V224.9z"/>
	</g>
	<g>
		<path fill-rule="evenodd" d="M72.1,200.8c-0.7,0-1.4-0.1-2.1-0.3c-0.7-0.2-1.3-0.6-1.8-1c-0.2-0.2-0.5-0.4-0.7-0.6
			c-0.4-0.5-0.8-1-1.1-1.5c-0.3-0.6-0.6-1.2-0.8-1.8c-0.2-0.5-0.3-1.1-0.4-1.7c0-0.5-0.1-1-0.1-1.5c0-2,0-4,0-6.1c0-0.1,0-0.1,0-0.2
			c0.4,0,0.8,0,1.2,0c0,0.1,0,0.1,0,0.2c0,1.5,0,3,0,4.5c0,0.5,0.1,0.9,0.1,1.4c0.1,0.6,0.2,1.1,0.4,1.7c0.3,0.8,0.7,1.6,1.3,2.3
			c0.3,0.4,0.6,0.7,1,1.1c0.8,0.7,1.7,1.2,2.8,1.4c0,0,0.1,0,0.1,0C72.1,199.4,72.1,200.1,72.1,200.8z"/>
		<path fill-rule="evenodd" d="M64.6,186.1c0,4.9,0,9.8,0,14.7c-0.6,0-1.2,0-1.8,0c0-4.9,0-9.8,0-14.7
			C63.4,186.1,64,186.1,64.6,186.1z"/>
		<path fill-rule="evenodd" d="M85.6,200.1c-0.7-2.4-1.5-4.8-2.2-7.2c-0.4-1.2-0.7-2.4-1.1-3.6c-0.2-0.7-0.5-1.4-0.8-2.1
			c-0.6-1.1-1.9-1.3-2.6-1.1c-0.8,0.3-1.3,0.9-1.5,1.7c-0.7,2.1-1.3,4.2-2,6.3c-0.4,1.2-0.7,2.3-1.1,3.5c-0.3,1-0.6,1.9-1,2.9v0.2
			c1,0,2,0,3,0c0.2,0,0.3-0.1,0.4-0.3c0.2-0.8,0.5-1.6,0.7-2.4c1.3,0,2.7,0,4,0c0.1,0,0.3,0.1,0.3,0.2c0.3,0.8,0.5,1.6,0.7,2.4h3.3
			C85.7,200.5,85.7,200.3,85.6,200.1z M78.3,195.2c0.4-1.9,0.9-3.9,1.3-5.8c0,0,0,0,0.1,0c0.4,1.9,0.8,3.8,1.2,5.8H78.3z"/>
		<path fill-rule="evenodd" d="M115.4,200.8c0-4.8,0-9.6,0-14.5c1.1,0,2.2,0,3.3,0c0,4.8,0,9.6,0,14.5
			C117.6,200.8,116.5,200.8,115.4,200.8z"/>
		<path fill-rule="evenodd" d="M55.3,200.8c0-0.7,0-1.4,0-2c0,0,0.1-0.1,0.1-0.1c0.6-0.1,1.1-0.3,1.6-0.6c0.4-0.2,0.8-0.5,1.1-0.8
			c0.6-0.5,1.1-1.1,1.5-1.7c0.3-0.5,0.6-1.1,0.8-1.7c0.2-0.6,0.3-1.1,0.5-1.7c0.1-0.3,0.1-0.6,0.1-0.8c0-1.7,0-3.4,0-5.1
			c0,0,0-0.1,0-0.1c0.4,0,0.8,0,1.2,0c0,0.1,0,0.1,0,0.2c0,2.2,0,4.4,0,6.6c0,0.4-0.1,0.9-0.1,1.3c-0.1,0.6-0.2,1.1-0.4,1.6
			c-0.3,0.8-0.7,1.6-1.3,2.3c-0.3,0.3-0.5,0.6-0.8,0.9c-0.6,0.6-1.3,1-2,1.3c-0.7,0.3-1.4,0.4-2.1,0.4
			C55.4,200.8,55.4,200.8,55.3,200.8z"/>
		<path fill-rule="evenodd" d="M107.6,189.1c0,3.9,0,7.7,0,11.6c-1,0-2,0-3.1,0c0-0.1,0-0.3,0-0.5c0-3.9,0-7.9,0-11.8c0-0.9,1-2,2-2
			c1,0,2,0,3,0c1.9,0.1,3.7,1.3,4.3,3.1c0.4,1.5-0.1,3.2-1.4,4c-0.4,0.3-0.8,0.5-1.2,0.8c1.2,2.1,2.5,4.2,3.8,6.4
			c-0.1,0-0.2,0-0.3,0c-1.1,0-2.1,0-3.2,0c-0.1,0-0.3-0.1-0.3-0.2c-1-1.9-2-3.8-3.1-5.7c-0.8-1.4-0.1-2.1,1.1-2.7
			c0.4-0.2,0.8-0.4,1.2-0.7c0.7-0.6,0.5-1.2,0.1-1.7c-0.4-0.5-0.8-0.8-1.5-0.7C108.5,189.1,108.1,189.1,107.6,189.1z"/>
		<path fill-rule="evenodd" d="M104,200.1c-0.7-2.4-1.5-4.8-2.2-7.2c-0.4-1.5-0.9-2.9-1.3-4.4c-0.2-0.6-0.4-1.3-0.9-1.7
			c-1.1-1-2.9-1-3.6,0.6c-0.3,0.7-0.5,1.4-0.7,2.1c-0.9,2.9-1.8,5.8-2.7,8.6c-0.3,0.9-0.5,1.7-0.8,2.6c1.1,0,2.1,0,3.1,0
			c0.1,0,0.3-0.1,0.3-0.2c0.3-0.8,0.5-1.6,0.8-2.4c1.3,0,2.7,0,4,0c0.1,0,0.3,0.1,0.3,0.2c0.2,0.8,0.5,1.6,0.7,2.4h3.3
			C104.1,200.5,104,200.3,104,200.1z M96.6,195.2c0.4-1.9,0.9-3.9,1.3-5.8c0,0,0,0,0.1,0c0.4,1.9,0.8,3.8,1.2,5.8H96.6z"/>
		<path fill-rule="evenodd" d="M87.1,200.7c0-3.9,0-7.7,0-11.6c-0.9,0-1.9,0-2.8,0c0-0.9,0-1.8,0-2.8c2.9,0,5.8,0,8.8,0
			c0,0.9,0,1.8,0,2.7c-0.9,0-1.8,0-2.7,0c0,3.9,0,7.7,0,11.6C89.2,200.7,88.2,200.7,87.1,200.7z"/>
	</g>
	<g>
		<path fill="#FFFFFF" d="M75.9,348.3v1.9h-0.6v-4.9h1.3c0.5,0,0.9,0.1,1.2,0.4c0.3,0.3,0.4,0.6,0.4,1.1s-0.2,0.8-0.5,1.1
			c-0.3,0.3-0.8,0.4-1.3,0.4H75.9z M75.9,345.8v2h0.6c0.4,0,0.7-0.1,0.9-0.3c0.2-0.2,0.3-0.4,0.3-0.8c0-0.6-0.4-1-1.1-1H75.9z"/>
		<path fill="#FFFFFF" d="M81,350.3c-0.7,0-1.2-0.2-1.7-0.7c-0.4-0.5-0.6-1.1-0.6-1.8c0-0.8,0.2-1.4,0.6-1.9c0.4-0.5,1-0.7,1.7-0.7
			c0.7,0,1.2,0.2,1.6,0.7c0.4,0.5,0.6,1.1,0.6,1.8c0,0.8-0.2,1.4-0.6,1.9C82.3,350,81.7,350.3,81,350.3z M81.1,345.7
			c-0.5,0-0.9,0.2-1.3,0.6c-0.3,0.4-0.5,0.9-0.5,1.5c0,0.6,0.2,1.1,0.5,1.5c0.3,0.4,0.7,0.6,1.2,0.6c0.5,0,1-0.2,1.3-0.5
			c0.3-0.4,0.5-0.8,0.5-1.5c0-0.6-0.2-1.1-0.5-1.5C82,345.9,81.6,345.7,81.1,345.7z"/>
		<path fill="#FFFFFF" d="M89.9,345.3l-1.4,4.9h-0.7l-1-3.6c0-0.2-0.1-0.3-0.1-0.5h0c0,0.2,0,0.3-0.1,0.5l-1,3.6H85l-1.4-4.9h0.6
			l1,3.8c0,0.2,0.1,0.3,0.1,0.5h0c0-0.1,0-0.3,0.1-0.5l1.1-3.8H87l1,3.8c0,0.1,0.1,0.3,0.1,0.5h0c0-0.1,0-0.3,0.1-0.5l1-3.8H89.9z"
			/>
		<path fill="#FFFFFF" d="M93,350.2h-2.6v-4.9h2.5v0.5h-1.9v1.6h1.8v0.5h-1.8v1.7h2V350.2z"/>
		<path fill="#FFFFFF" d="M97.2,350.2h-0.7l-0.8-1.4c-0.1-0.1-0.1-0.2-0.2-0.3c-0.1-0.1-0.1-0.2-0.2-0.2c-0.1-0.1-0.2-0.1-0.2-0.1
			c-0.1,0-0.2,0-0.3,0h-0.5v2.1h-0.6v-4.9h1.5c0.2,0,0.4,0,0.6,0.1c0.2,0.1,0.3,0.1,0.5,0.2c0.1,0.1,0.2,0.2,0.3,0.4
			c0.1,0.2,0.1,0.4,0.1,0.6c0,0.2,0,0.3-0.1,0.5c-0.1,0.1-0.1,0.3-0.2,0.4c-0.1,0.1-0.2,0.2-0.3,0.3c-0.1,0.1-0.3,0.1-0.4,0.2v0
			c0.1,0,0.2,0.1,0.2,0.1c0.1,0,0.1,0.1,0.2,0.2s0.1,0.1,0.2,0.2c0.1,0.1,0.1,0.2,0.2,0.3L97.2,350.2z M94.2,345.8v1.8H95
			c0.1,0,0.3,0,0.4-0.1c0.1,0,0.2-0.1,0.3-0.2c0.1-0.1,0.2-0.2,0.2-0.3c0-0.1,0.1-0.2,0.1-0.4c0-0.3-0.1-0.5-0.3-0.6
			c-0.2-0.1-0.4-0.2-0.7-0.2H94.2z"/>
	</g>
	<g>
		<path fill="#FFFFFF" d="M139.7,348.3v1.9h-0.6v-4.9h1.3c0.5,0,0.9,0.1,1.2,0.4c0.3,0.3,0.4,0.6,0.4,1.1s-0.2,0.8-0.5,1.1
			c-0.3,0.3-0.8,0.4-1.3,0.4H139.7z M139.7,345.8v2h0.6c0.4,0,0.7-0.1,0.9-0.3c0.2-0.2,0.3-0.4,0.3-0.8c0-0.6-0.4-1-1.1-1H139.7z"/>
		<path fill="#FFFFFF" d="M146.6,350.2H146l-0.5-1.4h-2.1l-0.5,1.4h-0.6l1.9-4.9h0.6L146.6,350.2z M145.3,348.3l-0.8-2.1
			c0-0.1,0-0.2-0.1-0.3h0c0,0.1,0,0.2-0.1,0.3l-0.8,2.1H145.3z"/>
		<path fill="#FFFFFF" d="M150.7,348.2c0,1.4-0.6,2.1-1.9,2.1c-1.2,0-1.8-0.7-1.8-2v-3h0.6v3c0,1,0.4,1.5,1.3,1.5
			c0.8,0,1.2-0.5,1.2-1.5v-3h0.6V348.2z"/>
		<path fill="#FFFFFF" d="M151.5,350v-0.7c0.1,0.1,0.2,0.1,0.3,0.2c0.1,0.1,0.2,0.1,0.3,0.1c0.1,0,0.2,0.1,0.4,0.1
			c0.1,0,0.2,0,0.3,0c0.4,0,0.6-0.1,0.8-0.2c0.2-0.1,0.3-0.3,0.3-0.6c0-0.1,0-0.2-0.1-0.3c-0.1-0.1-0.1-0.2-0.2-0.3
			c-0.1-0.1-0.2-0.2-0.4-0.2c-0.1-0.1-0.3-0.2-0.5-0.2c-0.2-0.1-0.3-0.2-0.5-0.3c-0.1-0.1-0.3-0.2-0.4-0.3c-0.1-0.1-0.2-0.2-0.3-0.4
			c-0.1-0.1-0.1-0.3-0.1-0.5c0-0.2,0-0.4,0.1-0.6c0.1-0.2,0.2-0.3,0.4-0.4c0.2-0.1,0.3-0.2,0.5-0.2c0.2-0.1,0.4-0.1,0.6-0.1
			c0.5,0,0.8,0.1,1.1,0.2v0.6c-0.3-0.2-0.7-0.3-1.1-0.3c-0.1,0-0.3,0-0.4,0c-0.1,0-0.2,0.1-0.3,0.1c-0.1,0.1-0.2,0.1-0.2,0.2
			c-0.1,0.1-0.1,0.2-0.1,0.3c0,0.1,0,0.2,0.1,0.3c0,0.1,0.1,0.2,0.2,0.2s0.2,0.1,0.3,0.2c0.1,0.1,0.3,0.1,0.5,0.2
			c0.2,0.1,0.3,0.2,0.5,0.3c0.2,0.1,0.3,0.2,0.4,0.3c0.1,0.1,0.2,0.2,0.3,0.4c0.1,0.1,0.1,0.3,0.1,0.5c0,0.2,0,0.4-0.1,0.6
			s-0.2,0.3-0.4,0.4c-0.2,0.1-0.3,0.2-0.6,0.2c-0.2,0-0.4,0.1-0.7,0.1c-0.1,0-0.2,0-0.3,0c-0.1,0-0.2,0-0.3-0.1
			c-0.1,0-0.2-0.1-0.3-0.1C151.6,350.1,151.5,350,151.5,350z"/>
		<path fill="#FFFFFF" d="M157.8,350.2h-2.6v-4.9h2.5v0.5h-1.9v1.6h1.8v0.5h-1.8v1.7h2V350.2z"/>
	</g>
	<g>
		<path fill="#FFFFFF" d="M382.3,350v-0.7c0.1,0.1,0.2,0.1,0.3,0.2c0.1,0.1,0.2,0.1,0.3,0.1c0.1,0,0.2,0.1,0.4,0.1
			c0.1,0,0.2,0,0.3,0c0.4,0,0.6-0.1,0.8-0.2c0.2-0.1,0.3-0.3,0.3-0.6c0-0.1,0-0.2-0.1-0.3c-0.1-0.1-0.1-0.2-0.2-0.3
			c-0.1-0.1-0.2-0.2-0.4-0.2c-0.1-0.1-0.3-0.2-0.5-0.2c-0.2-0.1-0.3-0.2-0.5-0.3c-0.1-0.1-0.3-0.2-0.4-0.3c-0.1-0.1-0.2-0.2-0.3-0.4
			c-0.1-0.1-0.1-0.3-0.1-0.5c0-0.2,0-0.4,0.1-0.6c0.1-0.2,0.2-0.3,0.4-0.4c0.2-0.1,0.3-0.2,0.5-0.2c0.2-0.1,0.4-0.1,0.6-0.1
			c0.5,0,0.8,0.1,1.1,0.2v0.6c-0.3-0.2-0.7-0.3-1.1-0.3c-0.1,0-0.3,0-0.4,0c-0.1,0-0.2,0.1-0.3,0.1c-0.1,0.1-0.2,0.1-0.2,0.2
			c-0.1,0.1-0.1,0.2-0.1,0.3c0,0.1,0,0.2,0.1,0.3c0,0.1,0.1,0.2,0.2,0.2c0.1,0.1,0.2,0.1,0.3,0.2c0.1,0.1,0.3,0.1,0.5,0.2
			c0.2,0.1,0.3,0.2,0.5,0.3c0.2,0.1,0.3,0.2,0.4,0.3c0.1,0.1,0.2,0.2,0.3,0.4c0.1,0.1,0.1,0.3,0.1,0.5c0,0.2,0,0.4-0.1,0.6
			s-0.2,0.3-0.4,0.4c-0.2,0.1-0.3,0.2-0.6,0.2c-0.2,0-0.4,0.1-0.7,0.1c-0.1,0-0.2,0-0.3,0c-0.1,0-0.2,0-0.3-0.1
			c-0.1,0-0.2-0.1-0.3-0.1C382.5,350.1,382.4,350,382.3,350z"/>
		<path fill="#FFFFFF" d="M388.6,350.2H386v-4.9h2.5v0.5h-1.9v1.6h1.8v0.5h-1.8v1.7h2V350.2z"/>
		<path fill="#FFFFFF" d="M391.9,350.2h-2.5v-4.9h0.6v4.4h2V350.2z"/>
		<path fill="#FFFFFF" d="M395,350.2h-2.6v-4.9h2.5v0.5H393v1.6h1.8v0.5H393v1.7h2V350.2z"/>
		<path fill="#FFFFFF" d="M399,350c-0.4,0.2-0.8,0.3-1.4,0.3c-0.7,0-1.3-0.2-1.7-0.7c-0.4-0.4-0.6-1-0.6-1.8c0-0.8,0.2-1.4,0.7-1.9
			c0.5-0.5,1.1-0.7,1.8-0.7c0.5,0,0.8,0.1,1.2,0.2v0.6c-0.4-0.2-0.7-0.3-1.2-0.3c-0.6,0-1,0.2-1.4,0.6c-0.3,0.4-0.5,0.9-0.5,1.5
			c0,0.6,0.2,1.1,0.5,1.4c0.3,0.4,0.8,0.5,1.3,0.5c0.5,0,0.9-0.1,1.3-0.3V350z"/>
		<path fill="#FFFFFF" d="M402.7,345.8h-1.4v4.4h-0.6v-4.4h-1.4v-0.5h3.4V345.8z"/>
	</g>
	<g>
		<path fill="#FFFFFF" d="M449.2,350.2h-0.7l-0.8-1.4c-0.1-0.1-0.1-0.2-0.2-0.3c-0.1-0.1-0.1-0.2-0.2-0.2c-0.1-0.1-0.2-0.1-0.2-0.1
			c-0.1,0-0.2,0-0.3,0h-0.5v2.1h-0.6v-4.9h1.5c0.2,0,0.4,0,0.6,0.1c0.2,0.1,0.3,0.1,0.5,0.2c0.1,0.1,0.2,0.2,0.3,0.4
			c0.1,0.2,0.1,0.4,0.1,0.6c0,0.2,0,0.3-0.1,0.5c-0.1,0.1-0.1,0.3-0.2,0.4s-0.2,0.2-0.3,0.3c-0.1,0.1-0.3,0.1-0.4,0.2v0
			c0.1,0,0.2,0.1,0.2,0.1c0.1,0,0.1,0.1,0.2,0.2c0.1,0.1,0.1,0.1,0.2,0.2c0.1,0.1,0.1,0.2,0.2,0.3L449.2,350.2z M446.3,345.8v1.8
			h0.8c0.1,0,0.3,0,0.4-0.1c0.1,0,0.2-0.1,0.3-0.2c0.1-0.1,0.2-0.2,0.2-0.3c0-0.1,0.1-0.2,0.1-0.4c0-0.3-0.1-0.5-0.3-0.6
			c-0.2-0.1-0.4-0.2-0.7-0.2H446.3z"/>
		<path fill="#FFFFFF" d="M452.3,350.2h-2.6v-4.9h2.5v0.5h-1.9v1.6h1.8v0.5h-1.8v1.7h2V350.2z"/>
		<path fill="#FFFFFF" d="M452.7,350v-0.7c0.1,0.1,0.2,0.1,0.3,0.2c0.1,0.1,0.2,0.1,0.3,0.1c0.1,0,0.2,0.1,0.4,0.1
			c0.1,0,0.2,0,0.3,0c0.4,0,0.6-0.1,0.8-0.2c0.2-0.1,0.3-0.3,0.3-0.6c0-0.1,0-0.2-0.1-0.3c-0.1-0.1-0.1-0.2-0.2-0.3
			c-0.1-0.1-0.2-0.2-0.4-0.2c-0.1-0.1-0.3-0.2-0.5-0.2c-0.2-0.1-0.3-0.2-0.5-0.3c-0.1-0.1-0.3-0.2-0.4-0.3c-0.1-0.1-0.2-0.2-0.3-0.4
			c-0.1-0.1-0.1-0.3-0.1-0.5c0-0.2,0-0.4,0.1-0.6c0.1-0.2,0.2-0.3,0.4-0.4c0.2-0.1,0.3-0.2,0.5-0.2c0.2-0.1,0.4-0.1,0.6-0.1
			c0.5,0,0.8,0.1,1.1,0.2v0.6c-0.3-0.2-0.7-0.3-1.1-0.3c-0.1,0-0.3,0-0.4,0c-0.1,0-0.2,0.1-0.3,0.1c-0.1,0.1-0.2,0.1-0.2,0.2
			c-0.1,0.1-0.1,0.2-0.1,0.3c0,0.1,0,0.2,0.1,0.3c0,0.1,0.1,0.2,0.2,0.2s0.2,0.1,0.3,0.2c0.1,0.1,0.3,0.1,0.5,0.2
			c0.2,0.1,0.3,0.2,0.5,0.3c0.2,0.1,0.3,0.2,0.4,0.3c0.1,0.1,0.2,0.2,0.3,0.4c0.1,0.1,0.1,0.3,0.1,0.5c0,0.2,0,0.4-0.1,0.6
			s-0.2,0.3-0.4,0.4c-0.2,0.1-0.3,0.2-0.6,0.2c-0.2,0-0.4,0.1-0.7,0.1c-0.1,0-0.2,0-0.3,0c-0.1,0-0.2,0-0.3-0.1s-0.2-0.1-0.3-0.1
			C452.9,350.1,452.8,350,452.7,350z"/>
		<path fill="#FFFFFF" d="M459,350.2h-2.6v-4.9h2.5v0.5H457v1.6h1.8v0.5H457v1.7h2V350.2z"/>
		<path fill="#FFFFFF" d="M462.6,345.8h-1.4v4.4h-0.6v-4.4h-1.4v-0.5h3.4V345.8z"/>
	</g>
</g>
</svg>
