<?xml version="1.0" encoding="utf-8"?>
<!-- Generator: Adobe Illustrator 19.0.0, SVG Export Plug-In . SVG Version: 6.00 Build 0)  -->
<svg version="1.1" baseProfile="tiny" id="Layer_1" xmlns="http://www.w3.org/2000/svg" xmlns:xlink="http://www.w3.org/1999/xlink"
	 x="0px" y="0px" viewBox="0 0 158.3 389.7" xml:space="preserve">
<g id="XMLID_1_">
	<g id="XMLID_86_">
		<g id="XMLID_49_">
			<path id="XMLID_4_" fill="#8F191C" d="M149.7,23.5h-10.2l6.6-5.9c1.4-1.2,2.8-1.1,4.2,0c0.7,0.6,2.4,1.6,2.5,2.5
				C153.1,21.7,151.7,21.9,149.7,23.5z"/>
			<polygon id="XMLID_5_" fill="#BA2025" points="142.1,80.2 139.5,23.5 149.7,23.5 154.5,79.3 			"/>
			<path id="XMLID_6_" fill="#9B1C1F" d="M158.1,86.1l-3.5-6.8l-12.5,1l0.1,2.8l7.4,7.7c0.6,0.6,1.4,0.8,2.2,0.4l5.4-2.4
				C158.2,88.3,158.6,87.1,158.1,86.1z"/>
			<path id="XMLID_7_" fill="#9C3821" d="M152.9,20.7c1.1,20.5,2.7,42.3,5.4,66l-3.7-7.5l-4.8-55.8l3.2-3.2"/>
		</g>
		<g id="XMLID_85_">
			<path id="XMLID_21_" fill="#8F191C" d="M8.6,23.5h10.2l-6.6-5.9c-1.4-1.2-2.8-1.1-4.2,0c-0.7,0.6-2.4,1.6-2.5,2.5
				C5.2,21.7,6.6,21.9,8.6,23.5z"/>
			<polygon id="XMLID_12_" fill="#BA2025" points="16.2,80.2 18.8,23.5 8.6,23.5 3.7,79.3 			"/>
			<path id="XMLID_9_" fill="#9B1C1F" d="M0.2,86.1l3.5-6.8l12.5,1L16.1,83l-7.4,7.7c-0.6,0.6-1.4,0.8-2.2,0.4l-5.4-2.4
				C0.1,88.3-0.3,87.1,0.2,86.1z"/>
			<path id="XMLID_8_" fill="#9C3821" d="M5.4,20.7C4.3,41.2,2.7,63,0,86.7l3.7-7.5l4.8-55.8l-3.2-3.2"/>
		</g>
	</g>
	<path id="XMLID_2_" fill="#1B1B1C" d="M79.2,0L26.9,0C20.3,1.3,15.2,4.2,12,6.4c-1.3,0.9-2.1,2.4-2.1,4l0,5.2l8.9,7.8L16.1,83
		L3.7,95.8l18.9,280.7c0.3,4.8,2.7,7.9,6.5,10.7c1.3,1,2.9,1.9,4.8,2.4h45.3h0h45.3c1.9-0.6,3.4-1.4,4.8-2.4
		c3.8-2.8,6.2-5.9,6.5-10.7l18.9-280.7L142.2,83l-2.7-59.5l8.9-7.8l0-5.2c0-1.6-0.8-3.1-2.1-4C143,4.2,138,1.3,131.4,0L79.2,0"/>
	<rect id="XMLID_11_" x="32.1" y="190" fill="#B2B3B2" width="94" height="191.5"/>
	<rect id="XMLID_3_" x="34.1" y="192" fill="#919191" width="90" height="189.5"/>
	<polygon id="XMLID_19_" fill="#A09F8E" points="34,386.1 32.1,381.5 126.1,381.5 124.2,386.1 	"/>
	<polygon id="XMLID_10_" fill="#858581" points="79.1,381.5 124.1,381.5 122.8,384.6 79.1,384.6 35.5,384.6 34.1,381.5 	"/>
	<rect id="XMLID_13_" x="32.1" y="91.3" fill="#1F211E" width="94" height="98.7"/>
	<path id="XMLID_22_" fill="#171717" d="M120.2,190h-82c-3.3,0-6-2.7-6-6V97.3c0-3.3,2.7-6,6-6h82c3.3,0,6,2.7,6,6V184
		C126.1,187.3,123.5,190,120.2,190z"/>
	<circle id="XMLID_23_" fill="#282828" cx="79.1" cy="140.6" r="50"/>
	<circle id="XMLID_24_" fill="#383C3D" cx="79.1" cy="140.6" r="37.5"/>
	<circle id="XMLID_25_" fill="#A8B1B6" cx="79.1" cy="140.6" r="29"/>
	<g id="XMLID_14_">
		<g id="XMLID_48_">
			<g id="XMLID_26_">
				<path id="XMLID_87_" fill-rule="evenodd" fill="#B2B3B2" d="M84.1,285.4c-4.8,1.3-9.6,2.7-14.4,4c-2.4,0.7-4.8,1.3-7.1,2
					c-1.4,0.4-2.8,0.8-4.1,1.5c-2.1,1-2.6,3.4-2.1,4.7c0.6,1.5,1.8,2.3,3.4,2.8c4.2,1.2,8.3,2.4,12.5,3.5c2.3,0.7,4.7,1.3,7,1.9
					c1.9,0.6,3.8,1.1,5.8,1.7l0.3,0c0-1.8,0-3.6,0-5.4c0-0.4-0.1-0.6-0.6-0.7c-1.6-0.4-3.2-0.9-4.8-1.3c0-2.4,0-4.8,0-7.2
					c0-0.2,0.3-0.5,0.5-0.5c1.6-0.5,3.2-0.9,4.8-1.3l0-6C84.8,285.2,84.4,285.3,84.1,285.4z M74.3,298.6c-3.9-0.8-7.7-1.6-11.6-2.3
					c0,0,0-0.1,0-0.1c3.8-0.7,7.6-1.4,11.5-2.2L74.3,298.6z"/>
				<path id="XMLID_77_" fill-rule="evenodd" fill="#B2B3B2" d="M85.2,231.6c-9.6,0-19.1,0.1-28.8,0.1c0-2,0-3.9,0-5.9
					c9.6,0,19.2-0.1,28.8-0.1C85.2,227.7,85.2,229.6,85.2,231.6z"/>
				<path id="XMLID_75_" fill-rule="evenodd" fill="#B2B3B2" d="M62,245.7c7.7,0,15.3,0,23-0.1c0,1.9,0,3.7,0,5.6
					c-0.3,0-0.6,0-0.9,0c-7.9,0-15.7,0-23.6,0.1c-1.8,0-4.1-1.8-4.1-3.7c0-1.8-0.1-3.6,0-5.4c0.1-3.4,2.5-6.7,6.2-7.7
					c2.9-0.8,6.3,0.2,8.1,2.6c0.5,0.7,1,1.4,1.5,2.2c4.2-2.3,8.4-4.5,12.7-6.9c0,0.2,0.1,0.4,0.1,0.5c0,1.9,0,3.8,0,5.8
					c0,0.2-0.1,0.5-0.3,0.6c-3.7,1.9-7.5,3.7-11.3,5.6c-2.9,1.4-4.2,0.3-5.3-1.9c-0.4-0.7-0.8-1.5-1.4-2.1c-1.1-1.2-2.3-0.9-3.4-0.2
					c-1,0.6-1.6,1.5-1.4,2.7C62.1,244.1,62,244.9,62,245.7z"/>
				<path id="XMLID_68_" fill-rule="evenodd" fill="#B2B3B2" d="M84,252.3c-4.8,1.3-9.6,2.7-14.4,4c-2.9,0.8-5.8,1.6-8.7,2.4
					c-1.3,0.4-2.6,0.8-3.5,1.7c-2,2-1.9,5.2,1.2,6.4c1.3,0.5,2.7,0.9,4.1,1.3c5.7,1.6,11.5,3.2,17.2,4.8c1.7,0.5,3.5,1,5.3,1.5
					c0-1.9,0-3.7,0-5.6c0-0.2-0.3-0.5-0.5-0.5c-1.6-0.5-3.2-0.9-4.9-1.4c0-2.4,0-4.8,0-7.2c0-0.2,0.3-0.5,0.5-0.5
					c1.6-0.4,3.2-0.9,4.8-1.3l0-6C84.7,252.1,84.3,252.2,84,252.3z M74.2,265.6c-3.9-0.8-7.7-1.6-11.5-2.3c0,0,0-0.1,0-0.1
					c3.8-0.7,7.6-1.4,11.5-2.2L74.2,265.6z"/>
				<path id="XMLID_28_" fill-rule="evenodd" fill="#B2B3B2" d="M85.2,282.7c-7.7,0-15.3,0-23,0.1c0,1.7,0,3.4,0,5.1
					c-1.9,0-3.7,0-5.5,0c0-5.2,0-10.5-0.1-15.8c1.8,0,3.6,0,5.4,0c0,1.6,0,3.2,0,4.9c7.7,0,15.4,0,23.1-0.1
					C85.1,278.8,85.2,280.7,85.2,282.7z"/>
			</g>
			<g id="XMLID_16_">
				<path id="XMLID_20_" fill-rule="evenodd" fill="#B2B3B2" d="M84.9,313.2c0.1,1.6-0.1,3.1-0.6,4.6c-0.5,1.5-1.1,2.9-2.1,4.1
					c-0.4,0.5-0.8,1.1-1.3,1.6c-0.9,1-1.9,1.8-3,2.5c-1.1,0.7-2.3,1.3-3.5,1.7c-1.1,0.4-2.2,0.7-3.3,0.8c-1,0.1-1.9,0.2-2.9,0.2
					c-4,0-8,0-12,0c-0.1,0-0.2,0-0.4,0c0-0.9,0-1.7,0-2.6c0.1,0,0.2,0,0.3,0c3,0,5.9,0,8.9,0c0.9,0,1.9-0.2,2.8-0.3
					c1.1-0.2,2.2-0.5,3.3-1c1.6-0.7,3.2-1.5,4.5-2.8c0.7-0.7,1.5-1.4,2.1-2.2c1.4-1.8,2.4-3.9,2.8-6.3c0-0.1,0-0.2,0.1-0.2
					C82.1,313.2,83.5,313.2,84.9,313.2z"/>
				<path id="XMLID_18_" fill-rule="evenodd" fill="#B2B3B2" d="M55.9,330c9.7,0,19.4-0.1,29.1-0.1c0,1.3,0,2.6,0,3.9
					c-9.7,0-19.4,0.1-29.1,0.1C55.9,332.6,55.9,331.3,55.9,330z"/>
				<path id="XMLID_17_" fill-rule="evenodd" fill="#B2B3B2" d="M85.1,350.4c-1.4,0-2.7,0-4,0c-0.1,0-0.2-0.1-0.2-0.2
					c-0.2-1.2-0.6-2.4-1.1-3.5c-0.5-0.9-1-1.7-1.5-2.5c-1-1.3-2.1-2.5-3.5-3.4c-1.1-0.8-2.2-1.4-3.4-1.8c-1.1-0.4-2.2-0.7-3.4-1
					c-0.5-0.1-1.1-0.2-1.7-0.2c-3.4,0-6.7,0-10.1,0c-0.1,0-0.1,0-0.2,0c0-0.9,0-1.7,0-2.6c0.1,0,0.2,0,0.4,0c4.4,0,8.7,0,13.1,0
					c0.9,0,1.7,0.2,2.6,0.3c1.1,0.2,2.2,0.5,3.3,0.9c1.7,0.7,3.3,1.6,4.6,2.9c0.6,0.6,1.3,1.2,1.8,1.9c1.1,1.3,1.9,2.8,2.5,4.5
					c0.5,1.5,0.8,3,0.8,4.6C85.1,350.2,85.1,350.3,85.1,350.4z"/>
			</g>
		</g>
		<rect id="XMLID_53_" x="95.4" y="224.2" fill="#B2B3B2" width="7" height="127.7"/>
		<g id="XMLID_50_">
			<rect id="XMLID_57_" x="96.9" y="346.8" fill="#FEDD10" width="4" height="3.7"/>
			<rect id="XMLID_58_" x="96.9" y="340.3" fill="#F16724" width="4" height="6.5"/>
			<rect id="XMLID_59_" x="96.9" y="296.3" fill="#EB2227" width="4" height="44"/>
			<rect id="XMLID_60_" x="96.9" y="277.8" fill="#2A3B8F" width="4" height="18.5"/>
			<rect id="XMLID_61_" x="96.9" y="263.2" fill="#28A8E0" width="4" height="14.5"/>
			<rect id="XMLID_62_" x="96.9" y="250.8" fill="#06A14B" width="4" height="12.4"/>
			<rect id="XMLID_63_" x="96.9" y="225.7" fill="#51B26E" width="4" height="25.1"/>
		</g>
	</g>
	<rect id="XMLID_51_" x="32.1" y="0" fill="#1D1D1D" width="94" height="91.3"/>
	<g id="XMLID_55_">
		<rect id="XMLID_52_" x="32.1" y="8.5" fill="#282828" width="94" height="2.3"/>
		<rect id="XMLID_54_" x="32.1" y="14.5" fill="#282828" width="94" height="2.3"/>
		<rect id="XMLID_56_" x="32.1" y="20.5" fill="#282828" width="94" height="2.3"/>
		<rect id="XMLID_64_" x="32.1" y="26.5" fill="#282828" width="94" height="2.3"/>
		<rect id="XMLID_65_" x="32.1" y="32.5" fill="#282828" width="94" height="2.3"/>
		<rect id="XMLID_66_" x="32.1" y="38.5" fill="#282828" width="94" height="2.3"/>
		<rect id="XMLID_76_" x="32.1" y="44.5" fill="#282828" width="94" height="2.3"/>
		<rect id="XMLID_78_" x="32.1" y="50.6" fill="#282828" width="94" height="2.3"/>
		<rect id="XMLID_79_" x="32.1" y="56.6" fill="#282828" width="94" height="2.3"/>
		<rect id="XMLID_80_" x="32.1" y="62.6" fill="#282828" width="94" height="2.3"/>
		<rect id="XMLID_81_" x="32.1" y="68.6" fill="#282828" width="94" height="2.3"/>
		<rect id="XMLID_82_" x="32.1" y="74.6" fill="#282828" width="94" height="2.3"/>
		<rect id="XMLID_83_" x="32.1" y="80.6" fill="#282828" width="94" height="2.3"/>
		<rect id="XMLID_84_" x="32.1" y="86.6" fill="#282828" width="94" height="2.3"/>
	</g>
</g>
</svg>
