<?xml version="1.0" encoding="utf-8"?>
<!-- Generator: Adobe Illustrator 19.0.0, SVG Export Plug-In . SVG Version: 6.00 Build 0)  -->
<svg version="1.1" baseProfile="tiny" id="Calque_1"
	 xmlns="http://www.w3.org/2000/svg" xmlns:xlink="http://www.w3.org/1999/xlink" x="0px" y="0px" viewBox="0 0 162.5 204.3"
	 xml:space="preserve">
<g>
	<path fill="#2B2A2B" d="M159.8,204.3H2.7c-1.5,0-2.7-1.2-2.7-2.7V2.7C0,1.2,1.2,0,2.7,0h157.1c1.5,0,2.7,1.2,2.7,2.7v198.8
		C162.5,203,161.3,204.3,159.8,204.3z"/>
	<path fill="#A7AFB6" d="M153.1,195.1H10.2c-1.7,0-3.1-1.4-3.1-3.1V13.1c0-1.7,1.4-3.1,3.1-3.1h142.8c1.7,0,3.1,1.4,3.1,3.1V192
		C156.1,193.7,154.8,195.1,153.1,195.1z"/>
	<rect x="35.3" y="36.1" fill="#BBBDBF" width="92.4" height="121.1"/>
	<g>
		<path fill-rule="evenodd" fill="#AD2B37" d="M12.2,32c0.1-0.4,0.3-0.9,0.4-1.3c0.2-0.5,0.3-1.1,0.5-1.6c0.3-1,0.6-1.9,0.9-2.9
			c0.1-0.4,0.3-0.7,0.7-0.8c0.3-0.1,0.9,0,1.2,0.5c0.2,0.3,0.3,0.6,0.4,1c0.2,0.5,0.3,1.1,0.5,1.6c0.3,1.1,0.7,2.2,1,3.3
			c0,0.1,0,0.2,0.1,0.3c-0.5,0-1,0-1.5,0c-0.1-0.4-0.2-0.7-0.3-1.1c0,0-0.1-0.1-0.1-0.1c-0.6,0-1.2,0-1.8,0
			c-0.1,0.4-0.2,0.7-0.3,1.1c0,0.1-0.1,0.1-0.2,0.1C13.1,32.1,12.7,32.1,12.2,32C12.2,32.1,12.2,32.1,12.2,32z M15.1,26.9
			C15.1,26.9,15.1,26.9,15.1,26.9c-0.2,0.9-0.4,1.8-0.6,2.7c0.4,0,0.8,0,1.2,0C15.5,28.7,15.3,27.8,15.1,26.9z"/>
		<path fill-rule="evenodd" fill="#AD2B37" d="M31.5,32.1c0-2.2,0-4.4,0-6.7c0.5,0,1,0,1.5,0c0,2.2,0,4.4,0,6.7
			C32.5,32.1,32,32.1,31.5,32.1z"/>
		<path fill-rule="evenodd" fill="#AD2B37" d="M28,26.8c0,1.8,0,3.5,0,5.3c-0.5,0-0.9,0-1.4,0c0-0.1,0-0.1,0-0.2c0-1.8,0-3.6,0-5.4
			c0-0.4,0.5-0.9,0.9-0.9c0.5,0,0.9,0,1.4,0c0.9,0,1.7,0.6,2,1.4c0.2,0.7-0.1,1.5-0.7,1.9c-0.2,0.1-0.4,0.2-0.6,0.3
			c0.6,1,1.1,1.9,1.7,2.9c-0.1,0-0.1,0-0.1,0c-0.5,0-1,0-1.5,0c-0.1,0-0.1,0-0.2-0.1c-0.5-0.9-0.9-1.7-1.4-2.6
			c-0.4-0.7-0.1-1,0.5-1.2c0.2-0.1,0.4-0.2,0.5-0.3c0.3-0.3,0.2-0.5,0.1-0.8c-0.2-0.2-0.4-0.4-0.7-0.3C28.4,26.8,28.2,26.8,28,26.8z
			"/>
		<path fill-rule="evenodd" fill="#AD2B37" d="M26.4,32.1c-0.5,0-1,0-1.5,0c-0.1-0.4-0.2-0.7-0.3-1.1c0,0-0.1-0.1-0.1-0.1
			c-0.6,0-1.2,0-1.8,0c-0.1,0.4-0.2,0.8-0.4,1.1c0,0-0.1,0.1-0.1,0.1c-0.5,0-0.9,0-1.4,0c0.1-0.4,0.3-0.8,0.4-1.2
			c0.4-1.3,0.8-2.6,1.2-4c0.1-0.3,0.2-0.6,0.3-0.9c0.3-0.7,1.1-0.8,1.6-0.3c0.2,0.2,0.3,0.5,0.4,0.8c0.2,0.7,0.4,1.3,0.6,2
			c0.3,1.1,0.7,2.2,1,3.3C26.3,31.9,26.3,32,26.4,32.1z M23.5,26.9C23.5,26.9,23.5,26.9,23.5,26.9c-0.2,0.9-0.4,1.8-0.6,2.7
			c0.4,0,0.8,0,1.2,0C23.9,28.7,23.7,27.8,23.5,26.9z"/>
		<path fill-rule="evenodd" fill="#AD2B37" d="M18.5,32.1c0-1.8,0-3.5,0-5.3c-0.4,0-0.9,0-1.3,0c0-0.4,0-0.8,0-1.3c1.3,0,2.7,0,4,0
			c0,0.4,0,0.8,0,1.3c-0.4,0-0.8,0-1.3,0c0,1.8,0,3.5,0,5.3C19.5,32.1,19,32.1,18.5,32.1z"/>
	</g>
	<path fill="#A62F34" d="M34.5,14.6h15.8l-7.9,18h-6.6l6-12.7h-7.3V14.6z"/>
	<path fill="#A62F34" d="M58.9,22.7c1.5,0.4,2.6,1.1,3.4,2c0.8,0.9,1.2,1.9,1.2,3.1c0,1.6-0.7,2.9-2.1,3.8c-1.4,1-3.2,1.4-5.6,1.4
		c-2.4,0-4.3-0.5-5.6-1.4c-1.4-0.9-2.1-2.2-2.1-3.8c0-0.4,0-0.8,0.1-1.1c0.1-0.4,0.2-0.7,0.4-1c0.2-0.3,0.4-0.6,0.6-0.9
		c0.2-0.3,0.5-0.5,0.8-0.8c0.3-0.2,0.7-0.5,1.1-0.7c0.4-0.2,0.9-0.4,1.4-0.6v0h0c0,0,0,0,0,0c0,0,0,0,0,0c-0.8-0.3-1.4-0.5-1.9-0.8
		c-0.5-0.3-0.9-0.7-1.3-1.3c-0.4-0.6-0.5-1.2-0.5-2c0-1.3,0.7-2.4,2-3.2c1.3-0.9,3-1.3,5.1-1.3c2.1,0,3.8,0.4,5.1,1.3
		c1.3,0.9,2,2,2,3.4c0,0.9-0.3,1.7-0.9,2.3C61.2,21.7,60.2,22.2,58.9,22.7z M57.8,26.8c0-1.3-0.6-1.9-1.9-1.9
		c-1.3,0-1.9,0.6-1.9,1.8c0,1.3,0.7,1.9,2,1.9C57.2,28.5,57.8,27.9,57.8,26.8z M57.2,19.6c0-1.1-0.5-1.6-1.4-1.6
		c-1,0-1.5,0.5-1.5,1.4c0,0.6,0.1,1,0.4,1.2c0.2,0.2,0.6,0.4,1.2,0.4C56.8,21,57.2,20.6,57.2,19.6z"/>
	<path fill="#A62F34" d="M86.4,14.1c2.5,0,4.4,0.8,5.6,2.4c1.3,1.6,1.9,4,1.9,7.1c0,3.1-0.7,5.4-2,7c-1.3,1.6-3.2,2.4-5.6,2.4
		c-2.3,0-4.1-0.8-5.5-2.3c-1.4-1.5-2-4-2-7.4c0-3,0.7-5.3,2-6.9C82.1,14.9,83.9,14.1,86.4,14.1L86.4,14.1z M83.8,23.5
		c0,2.6,0.8,3.9,2.5,3.9c0.9,0,1.6-0.3,2-0.9c0.4-0.6,0.6-1.5,0.6-2.7c0-1.4-0.2-2.4-0.6-3c-0.4-0.6-1.1-0.9-2-0.9
		C84.6,19.8,83.8,21,83.8,23.5z"/>
	<path fill="#A62F34" d="M70.9,14.1c2.5,0,4.4,0.8,5.6,2.4c1.3,1.6,1.9,4,1.9,7.1c0,3.1-0.7,5.4-2,7c-1.3,1.6-3.2,2.4-5.6,2.4
		c-2.3,0-4.1-0.8-5.5-2.3c-1.4-1.5-2-4-2-7.4c0-3,0.7-5.3,2-6.9C66.6,14.9,68.5,14.1,70.9,14.1L70.9,14.1z M68.3,23.5
		c0,2.6,0.8,3.9,2.5,3.9c0.9,0,1.6-0.3,2-0.9c0.4-0.6,0.6-1.5,0.6-2.7c0-1.4-0.2-2.4-0.6-3c-0.4-0.6-1.1-0.9-2-0.9
		C69.2,19.8,68.3,21,68.3,23.5z"/>
</g>
</svg>
