<?xml version="1.0" encoding="utf-8"?>
<!-- Generator: Adobe Illustrator 19.0.0, SVG Export Plug-In . SVG Version: 6.00 Build 0)  -->
<svg version="1.1" baseProfile="tiny" id="Calque_1"
	 xmlns="http://www.w3.org/2000/svg" xmlns:xlink="http://www.w3.org/1999/xlink" x="0px" y="0px" viewBox="0 0 426.7 95.2"
	 xml:space="preserve">
<g>
	<g>
		<path fill="#A92D38" d="M177.3,10.8c-2.1-6.7-6.2-10-12-10c-5.9,0-10,3.3-12,10l-26,84.4h18.4l6.5-20.6h26.4l6.4,20.6h18.5
			L177.3,10.8z M157,58.4l8.2-26.6l8.2,26.6H157z"/>
		<path fill="#A92D38" d="M185.8,0.8V17h20.3v78.2h17.8V17h20.3V0.8H185.8z"/>
		<path fill="#A92D38" d="M276.8,10.8c-2.1-6.7-6.1-10-12-10c-6,0-10,3.3-12,10l-26,84.4h18.4l6.5-20.6h26.4l6.4,20.6h18.5
			L276.8,10.8z M256.5,58.4l8.2-26.6l8.2,26.6H256.5z"/>
		<path fill="#A92D38" d="M339.6,55.1c7-2.3,12.8-6,17.4-11.3c4.6-5.3,6.9-11.2,6.9-17.6c0-6.9-3-12.9-8.8-17.8
			c-5.9-5-12.6-7.5-20.3-7.5h-20.3c-3.1,0-5.8,1-8,3.1c-2.3,2.1-3.4,4.5-3.4,7.2v84h17.8V17h13.9c3,0,5.6,1.1,7.9,3.2
			c2.3,2.1,3.5,4.5,3.5,7.2c0,3.9-2.2,7.1-6.6,9.8c-2.1,1-4.1,2.1-6.1,3.1c-2,1-4,2.1-6.1,3.1c-4.4,2.9-6.6,6.7-6.6,11.3
			c0,2.5,1.6,5.9,4.7,10.3l21.3,30.3h20.7L339.6,55.1z"/>
		<path fill="#A92D38" d="M373.4,0.8v94.4h17.8V0.8H373.4z"/>
	</g>
	<g>
		<path fill="#A92D38" d="M404.7,76.6c-0.5-0.3-1-0.4-1.4-0.4c-0.8,0-1.4,0.4-2,1.3c-0.6,0.8-0.9,1.8-0.9,2.9v14.8h4.5V83l21.8,11.4
			v-6.3L404.7,76.6z"/>
		<path fill="#A92D38" d="M424.5,56.3c-1.5-2.1-3.2-3.1-5.2-3.1c-2.4,0-4.3,1-5.8,3.1c-1.4-2-3.2-3.1-5.1-3.1h-0.6
			c-2,0-3.7,1-5.2,3.1c-1.5,2-2.2,4.4-2.2,7.2s0.7,5.1,2.2,7.2c1.5,2.1,3.2,3.1,5.2,3.1c2.4,0,4.3-1,5.8-3.1
			c1.4,2.1,3.2,3.1,5.1,3.1h0.7c2,0,3.7-1,5.2-3.1c1.5-2.1,2.2-4.5,2.2-7.2C426.7,60.8,426,58.4,424.5,56.3z M410.8,66.8
			c-0.7,1-1.5,1.4-2.4,1.4c-1,0-2-0.4-2.8-1.2c-0.9-0.9-1.3-2.1-1.3-3.5c0-1.5,0.4-2.6,1.3-3.5c0.8-0.8,1.8-1.2,2.8-1.2
			c0.9,0,1.7,0.5,2.4,1.4c0.7,1,1,2,1,3.3C411.9,64.7,411.5,65.8,410.8,66.8z M421.6,67.2c-0.9,0.9-1.9,1.3-3,1.3
			c-0.9,0-1.8-0.5-2.5-1.5c-0.7-1-1.1-2.2-1.1-3.5c0-1.3,0.4-2.5,1.1-3.5c0.7-1,1.6-1.5,2.5-1.5c1.1,0,2.1,0.4,3,1.3
			c1,0.9,1.4,2.2,1.4,3.7C423.1,65,422.6,66.3,421.6,67.2z"/>
		<path fill="#A92D38" d="M413.6,26.6c-6.6,0-11.9,5.4-11.9,12c0,6.6,5.3,12,11.9,12c6.6,0,11.9-5.4,11.9-12
			C425.5,31.9,420.1,26.6,413.6,26.6z M413.6,46c-4.1,0-7.4-3.3-7.4-7.5c0-4.1,3.3-7.5,7.4-7.5c4.1,0,7.4,3.3,7.4,7.5
			C421,42.7,417.7,46,413.6,46z"/>
		<path fill="#A92D38" d="M413.6,0.8c-6.6,0-11.9,5.4-11.9,12c0,6.6,5.3,12,11.9,12c6.6,0,11.9-5.4,11.9-12
			C425.5,6.2,420.1,0.8,413.6,0.8z M413.6,20.2c-4.1,0-7.4-3.3-7.4-7.5c0-4.1,3.3-7.5,7.4-7.5c4.1,0,7.4,3.3,7.4,7.5
			C421,16.9,417.7,20.2,413.6,20.2z"/>
	</g>
	<g>
		<rect x="52.7" y="84.9" fill-rule="evenodd" fill="#6C4D9D" width="12.5" height="10"/>
		<path fill-rule="evenodd" fill="#6C4D9D" d="M118.1,84.9v10.2c-5,0.2-9.9-0.4-14.5-2c-4.7-1.6-9.1-3.8-12.9-6.8
			c-0.6-0.5-1.2-0.9-1.8-1.4H118.1z"/>
		<path fill-rule="evenodd" fill="#6C4D9D" d="M29.4,84.9c-4,3.4-8.6,6-13.8,7.8c-4.7,1.7-9.5,2.5-14.6,2.4H0c0-3.5,0-6.9,0-10.2
			H29.4z"/>
		<path fill-rule="evenodd" fill="#3E6EB2" d="M41.9,69.7c-1.7,3.1-3.7,6.1-6.1,8.8c-1.9,2.1-3.8,4.1-5.9,6
			c-0.2,0.1-0.3,0.3-0.5,0.4H0C0,84,0,83,0,82.1c0-0.3,0.4-0.8,0.7-0.8c4-0.6,7.7-1.9,11.2-3.7c2.7-1.5,5.4-3.1,7.9-4.9
			c1.2-0.9,2.4-1.9,3.5-2.9H41.9z"/>
		<path fill-rule="evenodd" fill="#3E6EB2" d="M118.1,81.4v3.5H88.9c-1.1-0.9-2.2-1.8-3.2-2.7c-3.1-3-5.6-6.2-7.8-9.8
			c-0.5-0.9-1.1-1.8-1.5-2.7H95c0.8,0.8,1.6,1.5,2.5,2.2c5.8,4.7,12.3,8,20,9.3C117.7,81.3,117.9,81.4,118.1,81.4z"/>
		<rect x="52.7" y="69.7" fill-rule="evenodd" fill="#3E6EB2" width="12.5" height="15.2"/>
		<rect x="52.7" y="54.9" fill-rule="evenodd" fill="#35AFDF" width="12.5" height="14.9"/>
		<path fill-rule="evenodd" fill="#35AFDF" d="M95,69.7H76.3c-1.6-2.8-2.9-5.8-3.9-8.8c-0.7-2-1.3-4-1.8-6.1h13.1
			c1.8,3.6,4,7.1,6.8,10.2C92,66.6,93.4,68.2,95,69.7z"/>
		<path fill-rule="evenodd" fill="#35AFDF" d="M47.5,54.9c-0.6,2.9-1.5,5.7-2.7,8.5c-0.9,2.2-1.8,4.3-3,6.3H23.3
			c2.8-2.5,5.2-5.3,7.3-8.3c1.4-2.1,2.8-4.3,3.9-6.5H47.5z"/>
		<path fill-rule="evenodd" fill="#9ECF81" d="M48.9,42.6c0,0.6,0,1.1,0,1.7c0,2.8-0.6,5.7-1,8.5c-0.1,0.7-0.2,1.4-0.4,2.1h-13
			c0.7-1.5,1.4-3,2-4.5c0.9-2.6,1.7-5.1,2.4-7.7H48.9z"/>
		<rect x="52.7" y="42.6" fill-rule="evenodd" fill="#9ECF81" width="12.5" height="12.3"/>
		<path fill-rule="evenodd" fill="#9ECF81" d="M83.8,54.9H70.6c-0.4-1.5-0.6-3.1-0.8-4.7c-0.2-2.5-0.5-5-0.6-7.6h9.9
			c0.6,2.6,1.5,5.1,2.5,7.6C82.3,51.8,83,53.3,83.8,54.9z"/>
		<path fill-rule="evenodd" fill="#FDD255" d="M49,26.6c0,5.3,0,10.7-0.1,16H38.8c0.3-1.1,0.6-2.2,0.9-3.3c0.5-1.7,0.7-3.6,0.7-5.4
			c0-2.4,0.1-4.9,0.1-7.3H49z"/>
		<path fill-rule="evenodd" fill="#FDD255" d="M79.2,42.6h-9.9c0-0.6,0-1.3,0-1.9c0-4.7,0-9.4,0-14.1h8.4c0,1.2,0,2.5,0,3.7
			c0,3.1,0.6,6.1,1,9.2C78.7,40.5,78.9,41.6,79.2,42.6z"/>
		<rect x="52.7" y="26.6" fill-rule="evenodd" fill="#FDD255" width="12.5" height="16"/>
		<rect x="52.7" y="14" fill-rule="evenodd" fill="#F89F5C" width="12.5" height="12.6"/>
		<path fill-rule="evenodd" fill="#F89F5C" d="M77.5,26.6h-8.4c0-4.2,0-8.4,0-12.6h8.3C77.5,18.2,77.5,22.4,77.5,26.6z"/>
		<path fill-rule="evenodd" fill="#F89F5C" d="M49,14v12.6h-8.5c0-4.2,0.1-8.4,0.1-12.6H49z"/>
		<path fill-rule="evenodd" fill="#EE3D57" d="M49,1.4c0,4.2,0,8.4,0,12.5h-8.4c0-4.4,0.1-8.7,0.1-13.1V0.3H49V1.4z"/>
		<path fill-rule="evenodd" fill="#EE3D57" d="M77.5,0.3v1.1c0,4.2,0,8.4,0,12.6h-8.3c0-4.2,0-8.3,0-12.5V0.3H77.5z"/>
		<rect x="52.7" fill-rule="evenodd" fill="#EE3D57" width="12.5" height="14"/>
	</g>
</g>
</svg>
